M48
;Layer_Color=9474304
;FILE_FORMAT=4:3
METRIC,LZ
;TYPE=PLATED
T1F00S00C0.200
;TYPE=NON_PLATED
%
T01
X0084275Y0009725
X008045Y0022975
X0074Y0027
X0073525Y0028475
X0071Y0029
X00705Y00285
X00685Y00255
X0068478Y0024501
X00675Y00245
X00665
X00655
X00655Y00235
X00645
X00645Y00225
X00655
X00675
X00675Y00235
X00685
X00665Y00255
X0064Y0026
X0063
X0062Y0024
X00615Y00235
Y00225
X00605
X006Y0023
X0059
X006Y0026
X0049875Y0012725
X0048461Y0012714
X0044625Y00127
X-0007575Y0037775
X-0007725Y0054775
X00575Y00395
X0059Y0039
Y0038
X006
Y0039
X0062
X0063
X0064
X0065
Y0038
X0066
X0067
Y0037
X0066
Y0036
X0065
X0064
X0063
Y0037
X0064
Y0038
X0061
Y0037
Y0036
Y0035
X006
Y0036
X0059Y0036
X0058Y0036
Y0037
X0059
X0057Y0038
X0058Y0035
X0058Y0034
X0059
Y0033
X006
X0061
X0062
X0062Y0034
X0063Y0034
X0064
X0065
Y0033
X0066
X0067
Y0034
X0068
X0069Y0034
X00695Y00325
X0067Y0032
X0065
X0064Y0033
X0063Y0035
X0062
X0062Y0037
X006Y0034
X0061Y0031
X006Y003
X0065Y0035
X0066Y0035
X0067Y0035
X0068
X0068Y0036
X0069
X00695Y00375
X007Y0038
Y0039
X0069
Y0038
X0068Y0037
X0067Y0039
X0068Y0041
X0068Y0042
X0069Y0042
X0069Y0041
X007055Y00365
X0071Y0037
Y0038
X0072
Y0039
Y0037
X0074Y0038
X00735Y00405
X0074Y0041
X0072Y0042
X0071Y0042
X0075575Y0042575
X0085925Y0042475
X008025Y003085
X0075Y0032
X00715Y00315
X0071Y0031
Y003
X0064775Y007865
X0063975Y007835
X0063175Y0078375
X006175Y0077725
X0061575Y00806
X0062375Y00802
X0052604Y0075304
X004975Y0077825
X004895Y0078475
X004815Y0078625
X0047375Y0080275
X0046525Y008065
X0034727Y0081204
X00339Y0081725
X0033125Y00824
X00323Y0083225
X00315Y0084125
X0036725Y0075975
X00612Y0108175
X00308Y00831
X0030125Y0083075
X002945
X002875
X002805Y00831
X001945Y00809
X001865Y00815
X001785Y0081975
X001705Y0082475
X001625Y008295
X00043Y0080975
X000355Y00814
X000265Y008185
X0001875Y0082375
X0001025Y00829
X000125Y010235
X000205Y0102375
X000285Y010235
X000365Y0102325
X000445
X000525
X001625Y011235
X0017075Y0111725
X0017875Y011125
X0018701Y011083
X0019475Y0110225
X0031275Y011245
X0032125Y0111875
X0032875Y011145
X00337Y0110975
X00345Y0110475
X0061075Y01128
X006195Y0112275
X00627Y011185
X00636Y0111325
X00644Y011075
M30
