M48
;Layer_Color=9474304
;FILE_FORMAT=4:3
METRIC,LZ
;TYPE=PLATED
T1F00S00C0.200
;TYPE=NON_PLATED
%
T01
X0061Y0026
X0065Y0024
X007Y0025
Y0032
X0068Y0033
X00675Y00345
X0067Y0036
X00665Y00365
X0066525Y0037475
X00645Y00365
Y00345
X00655
X0066Y0034
X00655Y00335
X0064475Y0033375
X0063Y0033
X0064Y0032
X0062
X0061Y0034
X00606Y00345
X00615Y00355
X0062Y0036
X0063978Y0035002
X0066Y0032
X0065Y0031
X0059Y003
X00595Y00335
X0056Y0038
X0068Y004
X0069
X007
X007Y0037
X0069Y004275
X0068
X0071Y0042625
X0072Y0041
X0075Y0042
Y0035
X0076Y0036
X00725Y00355
X0073475Y0032
M30
