M48
;Layer_Color=9474304
;FILE_FORMAT=4:3
METRIC,LZ
;TYPE=PLATED
T1F00S00C0.200
T2F00S00C1.700
T3F00S00C3.175
;TYPE=NON_PLATED
T4F00S00C1.000
T5F00S00C1.016
%
T01
X00716Y-0007625
X00736
X00756
X00776
X00796
X00816
X00836
X00856
X00876
X00896
X00916
X00906Y-0005625
X00886
X00866
X00846
X00826
X00806
X00786
X00766
X00746
X00726
X00716Y-0003625
X00736
X00756
X00776
X00796
X00816
X00836
X00856
X00876
X00896
X00916
X00906Y-0001625
X00886
X008805Y-0000475
X0088454Y0001645
X0090475Y000035
X00916Y0000375
X00926Y-0001625
Y-0005625
Y0002375
X00935Y000155
X00926Y0006375
X00906
X0091054Y0005835
X00896Y0004375
X00886Y0006375
X00876Y0008375
X0087425Y0009075
Y0010375
Y0011025
X0087475Y0012325
X00896Y0012375
X0089174Y0011246
Y0009646
X00896Y0008375
X00916
X00906Y0010375
X00926
X00916Y0012375
X00906Y0014375
X00886
X00866
X008665Y001585
X00856Y0016375
X00836
X00816
X00796
X00776
X00766Y0014375
X00746
X00726
X00736Y0012375
X00726Y0010375
X00746
X00766
X0077425Y0010696
X0076775Y00115
X0077425Y0012296
X0079325Y00123
Y001105
X00793Y0009725
X00776Y0008375
X00756
X00736
X00726Y0006375
X00746
X00766
X00786
X00776Y0004375
X00756
X00736
X0072075Y00049
X0071575
X00726Y0002375
X00716Y0000375
X00736
X00756
X00776
X00796
X00786Y-0001625
X00766
X00746
X00726
X00766Y0002375
X00786
X00796Y0004375
X008225Y00084
X00836Y0008375
X00826Y0010375
X0081775Y0010375
X00846Y0010375
X00836Y0012375
X00846Y0014375
Y0018375
X00866
X00906
X00926
X00916Y0016375
X00915Y001585
X00926Y0014375
X00929Y002305
Y0024975
X0092875Y0027
X0092825Y0029
X00886Y0026375
X00846
X00806
X0078275Y0026
X007805Y0027225
X0078075Y0028475
X00777Y0029525
X0077Y0029
X0075525Y0029475
X00755Y00275
X00735
X00735Y00255
X00735Y00245
Y00225
X00755Y00215
X00776Y0020375
X00796
X00816
X00836
X00846Y0022375
X00806
X00796Y0024375
X00788Y0024975
X0077Y0024
X00765Y002645
X00725Y00255
X00715Y00245
X0072Y002
X00726Y0018375
X00786
X00806
X0078125Y00138
X00806Y-0001625
X00826
X00846
X00866
X00706
X00686
X00666
X00646
X00626
X0062529Y000015
X00616Y0000375
X0060029Y000015
X00606Y-0001625
X00586
X00566
X00546
X00526
X00506
X00486
X00466
X0045925Y-000195
X00446Y-0001625
X004465Y-0000875
X004415Y-000215
X00428Y-0002758
X0042742Y-0003408
X00428Y-0004058
Y-0004708
X00426Y-0005625
X004415Y-00054
X00448Y-0006475
X00456Y-0007625
X00436
X00416
X004155Y-0006475
X0040375Y-0006375
X0040875Y-0005066
X003895Y-0004708
Y-0004058
X00378Y-00054
X0036875Y-00064
X00376Y-0007625
X00356
X00336
X00316
X0034975Y-0004475
X00356Y0000375
X00376
X00366Y0002375
X00346
X00356Y0004375
X00376
X00366Y0006375
X00346
X00356Y0008375
X00376
X00396
X00416
X00436
X00456
X00476
X00496
X00516
X00536
X00526Y0006375
X00506
X00486
X00466
X00446
X00426
X00406
X00416Y0004375
X00436
X00456
X00476
X00496
X00516
X00536
X00556
X00546Y0002375
X00526
X00506
X00486
X00466
X00446
X004425Y0001975
X00426Y0002375
X00406
X00386
X0039775Y-0001775
X0040875Y-00024
X00422Y-0001725
X00456Y-0003625
X00476
X00496
X00516
X00536
X00556
X00576
X00596
X00616
X00636
X00656
X00676
X00696
X00686Y-0005625
X00666
X00646
X00626
X00606
X00586
X00566
X00546
X00526
X00506
X00486
X00466
X0045925Y-00054
X00476Y-0007625
X00496
X00516
X00536
X00556
X00576
X00596
X00616
X00636
X00656
X00676
X00696
X00706Y-0005625
X0070029Y000015
X0067529
X00656Y0000375
X0065029Y000015
X00636Y0000375
X0064Y00041
X00645
X006355Y00048
X006305
X0062075Y0005025
X0061575
X006075Y0005775
X006025
X00596Y000635
X005875Y0006075
X005825
X0057525Y000665
X00546Y0006375
Y0010375
X00526
X00506
X0050378Y0011096
X00486Y0010375
X00466
X0045675Y00111
X00456Y0012375
X0046203Y0014296
X00456Y0016375
X00436
X00416
X00396
X00376
X00356
X00346Y0014375
X00366
X00386
X00406
X0042028Y0014296
X00416Y0012375
X0042028Y0011096
X00426Y0010375
X00406
X00386
X00366
X00356Y0012375
X00376
X00396
X00386Y0018375
X00366
X00346
X00356Y0020375
X00376
X00396
X00416
X00436
X00456
X00476
X00496
X00516
X00526Y0018375
X00546
X00536Y0016375
X00516
X0051203Y001512
X00526Y0014375
X00546
X005555Y0012775
X005605
X00571Y0011675
X00576
X0058975Y0012375
X0059475
X006125Y00123
X006175
X006225Y0012
X006275
X0061025Y00108
X0060525
X0062535Y0009246
X0065029Y0006322
X006535Y00055
X006585
X006625Y000425
X006675
X006725Y0005025
X006775
X0068032Y0003375
X0068553Y0003375
X0069032Y000305
X0069532
X0070029Y0006322
X00706Y0006375
X0067025Y00064
X0068032Y0010525
X0068532
X006765Y0013475
X006715
X006575Y0014275
X006525
X0064275Y0017025
X0063775
X0067632Y0017225
X0068132
X006995Y0015375
X007045
X00705Y00215
X00685Y0021475
X00685Y00225
X00695Y00245
X00705Y00255
X00695Y00265
Y00275
X00705
Y00295
X00695
X00685
Y00285
X00695
X00685Y00275
X00675
Y00265
X00665
Y00275
X00655Y00275
Y00265
X00645
X00635
X00625
X00625Y00275
X00615
Y00285
X00625
X00635
X00635Y00295
Y00275
X00645
X00645Y00285
X00655
Y00295
X00615
X00595Y00285
Y00275
X00585
X00575
X00565
Y00285
Y00295
X00575
Y00255
X00565
Y00245
Y00225
X00555
X0054Y0023
Y0022
Y0025
Y0027
Y0029
X00523Y00274
X00506Y0026375
X0049825Y00265
X00496Y0024375
X00476
X00456
X00436
X00416
X00396
X00376
X00356
X00346Y0022375
X00366
X00386
X00406
X00426
X00446
X00466
X00486
X00512Y00248
X00575Y00235
Y00225
X00585Y00235
X00595Y00245
X00605
Y00255
X00615
Y00245
X00615Y00265
X00605Y00275
X00585Y00265
X00605Y00215
X0062Y002
X00635Y00225
X00645Y00245
X00665Y00235
X00655Y00215
X0067Y002
X0057
X00576Y0016375
X00536Y0012375
X00476Y0016375
X00466Y0018375
X00446
X00426
X00406
X0039838Y0027187
X003985Y0028925
X003755Y002895
X0037575Y0027175
X00366Y0026375
X00346
X00326
X00386
X00426Y00272
X00446Y0010375
X00456Y0000375
X00476
X00496
X00516
X00536
X00556
X00576
X0057525Y0002925
X00566Y0002375
X00396Y-0007625
X00296
X00276
X00256
X00236
X00216
X00196
X00176
X00156
X00136
X00116
X00096
X00076
X00056
X00036
X00016
X-00004
X-00024
X-00044
X-00064
X-00084
X-00074Y-0005625
X-00054
X-00034
X-00014
X00006
X00026
X00046
X00066
X00086
X00106
X00126
X00146
X00166
X00186
X00206
X00226
X00246
X00266
X00286
X00276Y-0003625
X00256
X00236
X00216
X00196
X00176
X00156
X00136
X00116
X00096
X00076
X00056
X00036
X00016
X-00004
X-00024
X-00044
X-00064
X-00084
X-00074Y-0001625
X-00054
X-00034
X-00014
X00006
X00026
X00046
X00066
X00086
X00106
X00126
X00146
X00166
X0016825Y000015
X00176Y0000375
X0019325Y000015
X00186Y-0001625
X00206
X00226
X00246
X00266
X00286
X00276Y0000375
X0026822Y0000263
X00256Y0000375
X0024325Y000015
X00236Y0000375
X0021825Y000015
X0022772Y0004335
Y0005535
X0023972
Y0004335
X002435Y0003
X0026Y0003725
X0029625Y0003025
X0028525Y000575
X00286Y0006375
X002755Y00066
X0026831Y0009246
X0024331
X0021831
X00222Y0010225
X0020925Y00102
X0019675Y0010225
X00184Y001025
X001675
X0016831Y0009246
X0019331
X00186Y0006375
X00166
X00146
X00126
X00106
X00086
X00076Y0004375
X00096
X00116
X00136
X00156
X0017622Y000481
X0017625Y0003025
X0019275Y0003025
X0019375Y00043
X0022325Y0006675
X00195Y0013875
X00184Y0014025
X0017525
X0018395Y0014905
X0013975Y0015425
Y001725
X0013875Y0019225
X0012075
X00104Y00209
Y00214
Y00219
Y00224
Y00229
X001125Y002335
X001305
X000885Y00229
Y00223
Y00216
Y0021
X000815
Y00216
Y00223
Y00229
X000835Y0024375
X000885
X000935
X000785
X000735
X000685
X000635
X0006125Y0025375
X000405
X0002125
X00022Y0027725
X00043
X0004975Y00277
X0005025Y00265
X0007375Y0027725
X00096Y00272
X001375Y00281
Y0028875
X00156Y0028375
X00166Y0026375
X00186
X00206
X00226
X00246
X00266
X00286
X00306
X00295Y002295
X0027975
X002625
X0025325Y00204
X0026125Y0016425
X00271Y001485
Y001325
X002875Y001485
X0029775Y0016425
X0029Y00179
X0027975Y00179
X002795Y001725
X0020925Y0019175
X0019675Y00192
X001455Y0013125
X00136Y0008375
X00116
X00096
X00076
X00056
X00036
X00016
X000175Y001
Y00107
X0001775Y001145
X000235Y0012425
X000285Y0013675
X000335Y0014
X000385Y0013675
X000485
X000585Y001365
Y00153
X000645
X000705
X000765
Y00159
Y00165
Y00171
X000705
X000645
X000585
X000525
X000465
X000405
X000345
X000285
Y00165
Y00159
Y00153
X000345
X000405
X000465
X000525
Y00159
Y00165
X0008875Y00164
X0009175Y00154
X0009175Y00149
X0008425Y001395
X0008125Y001155
X000735Y00107
X00089Y0010525
X000635Y0012375
X000535
X000435Y0012425
X00046Y001145
Y00107
X0004625Y000985
X-00004Y0008375
X-00024
X-00044
X-00064
X-00084
X-00074Y0006375
X-00054
X-00034
X-00014
X-00024Y0004375
X-00044
X-00064
X-00084
X-00074Y0002375
X-00054
X-00034
X-00014
X-00024Y0000375
X-00044
X-00064
X-00084
X-00004
Y0004375
X-00014Y0010375
X-00034
X-00054
X-00074
X-00084Y0012375
X-00064
X-00044
X-00024
X-00034Y0014375
X-00054
X-00074
X-00084Y0016375
X-00064
X-00044
X-00024
X-00034Y0018375
X-00054
X-00074
X-00084Y0020375
X-00064
X-00044
X-00024
X-00034Y0022375
X-00014
X-00024Y0024375
X-00044
X-00064
X-00084
X-00074Y0022375
X-00014Y0018375
Y0014375
X0000825Y00144
X0001125Y00149
X000085Y00154
X0001125Y00159
X00008Y0016425
X0001125Y00169
X0001125Y0013876
X000335Y0023
X000385
X000435
X000485
X000535
X000585
X0008875Y00184
Y00179
X00086Y0002375
X00106
X00096Y0000375
X00076
X00116
X00136
X00156
X-0008825Y0053575
X-00084Y0052375
X-00064
X-00044
X-00024
X-00004
X-00014Y0050375
X-00034
X-00054
X-00064Y0048375
X-00084
Y0044375
Y0040375
X-00064
X-00044
X-0003075Y004095
X-00024Y0040375
X-00034Y0038375
X-00054
X-00064Y0036375
X-00084
X-00044
X-00024
X-0003075Y0034975
X-0004375Y003345
X-00044Y0032375
X-00064
X-00054Y0034375
X0002525Y0036725
X0002575Y00383
X0002875Y004105
X000285Y0041625
X00035Y004165
X000355Y0041
X000215Y0041025
Y0041675
X000595Y004185
X0006275Y0042325
X000595Y004285
X0007425Y004285
Y004225
Y004165
Y004105
Y004045
Y003985
Y003925
Y003865
Y003805
X0008025
X0008625
X0009225
Y003865
Y003925
Y003985
Y004045
Y004105
Y004165
Y004225
Y004285
X0008625
X0008025
X0008025Y0044575
X00085Y0044875
X0009025Y0044575
X0009525Y0044875
X0007525
X0007025Y0044575
X0006525Y00449
X0006025Y0044575
X0005125Y0044175
X0006275Y004135
X000595Y004085
X000625Y004035
X000595Y003985
X000625Y003935
X0008025Y004045
X0008625
X0008025Y003715
X0007525Y0036775
X00068Y0036725
X000753Y003203
X000898Y003203
X0009575Y0029825
X0003675Y003135
X00156Y0032375
X00176
X00196
X00216
X00236
X00256
X00276
X00296
X00286Y0030375
X00266
X00246
X00226
X00206
X00186
Y0034375
X00166
X0015025Y0035125
X0014525Y003475
X0014025Y0035125
X0013575Y0034725
X0013025Y0035125
X0013125Y003685
X0013725
X0014425
X0015025
Y003755
X0014425
X0013725
X0013125
X00151Y003935
X00149Y0039825
X00151Y004035
X0014875Y004085
X00151Y004135
X0014875Y0041825
X00151Y004235
X0016925Y0043
X0017425Y004335
X0017925Y0043
X00176Y0044375
X0016825Y004537
X00156Y0044375
Y0048375
X00136
X00126Y0046375
Y0050375
X00106
X00086
X00076Y0048375
X00096
Y0052375
X00076
X00086Y0054375
X00106
X00126
X00116Y0052375
X00136
X00146Y0050375
X00166
X0016825Y0051542
X0019325
X00206Y0050375
X00226
X0021825Y0051542
X0024325
X00246Y0050375
X002635Y00501
X00256Y0048375
X00236
X00216
X00196
X00176
X0019325Y004537
X00196Y0044375
X00216
X0021825Y004537
X0024325
X00236Y0044375
X00256
X00276
X0026825Y004537
X00296Y0044375
Y0040375
X0030575Y004125
X0028175Y004145
X00276Y0040375
X00256
X00236
X00216
X0020675Y0041025
X00202Y0040675
X0019675Y0041025
X00196Y0040375
X0019675Y0037825
X00202Y0037375
X0020675Y0037825
X00216Y0036375
X00196
X001715Y003635
X001675Y003685
X0017125Y003735
X001675Y003785
X001715Y003835
X001675Y003885
X00172Y0039225
X0017975Y0039125
X00226Y0038375
X00246
X00266
X00286
X0028275Y00371
X00286Y0034375
X00266
X00246
X00226
X00206
X00236Y0036375
X00256
X00246Y0042375
X00226
X00276Y0048375
Y0056375
X00306Y0054375
X00226
X00206
X00186
X00166
X00156Y0056375
X00136
X00096
X00076
X00056
X00036
X00016
X-00004
X-00014Y0054375
Y0058375
X-00034
X-0004675Y0058575
X-00054Y0058375
X-0006425Y0058575
X-00074Y0058375
X-00084Y0060375
X-00064
X-00044
X-00024
X-00004
X00016
X00036
X00026Y0058375
X00006
Y0062375
X-00014
X-00034
X-00054
X-00074
X-00084Y0064375
X-00064
X-00044
X-00024
X-00004
X-00014Y0066375
X-00034
X-00054
X-00074
X-00084Y0068375
X-00064
X-00044
X-00024
X-00004
X00006Y0066375
X00026Y0062375
X00046Y0058375
X00066
X00096Y0064375
X00116
X00106Y0066375
X00086
X00056Y0068375
X00156
X00176
X00196
X00216
X00206Y0066375
X00186
X00196Y0064375
X00216
X00236
X00226Y0062375
X00246
Y0066375
X00226
X00286Y0062375
X00146
X00176Y0056375
X00196
X-00044
X-00064
X-00044Y0048375
X-00024
X-00004
X-00014Y0046375
X-00034
X-00034Y0047125
X-0003405Y0045395
X-0003075Y00441
X-00024Y0044375
X-00044
X-00054Y0046375
X-00014Y0042375
X00306Y0034375
Y0030375
X00326
X0032025Y0032475
X00336Y0032375
X00356
X0036575Y0033525
X00386Y0034375
X0040025Y00349
X0039875Y0033575
X00396Y0036375
X00376
X00366Y0038375
X00346
X0035375Y003995
X00336Y0040375
X00346Y0042375
X00316Y0044375
Y0048375
Y0052375
X00346Y0050375
X00356Y0048375
X00386Y0046375
X0040725Y00434
X00438Y004045
X00447Y0039125
X0045175Y0036075
X00426Y0034375
Y0030375
X00438Y003
X00446Y0030375
X00461Y00306
X00466Y0030375
X00484Y00316
X00491Y0031875
X004485Y0032125
X00386Y0030375
X00366
X0034652Y0035398
X00386Y0038375
X0054Y0037
X00565Y00365
X00555Y00345
Y00315
Y00305
X0054Y0031
X0054025Y0031875
X00565Y00315
X00575
Y00325
X00595
Y00315
Y00305
X00585
X00615
X00625
X00635
Y00315
Y00325
X00625Y00315
X00615
Y00325
X00625Y00335
X00605
X00585Y00355
X00595Y00375
X00615Y00365
X00625Y00385
X00605Y00395
X00615Y00415
X00635Y00405
X00655Y00395
Y00375
X00665Y00355
Y00345
Y00325
X00655Y00325
Y00315
Y00305
X00645
X00675
X00685
X00695
Y00315
X00705Y00325
X00685
Y00335
X00695Y00355
X00705Y00375
X00685Y00385
X00695Y00405
X0067528Y0041502
X007Y0043
X0065
X006
X00585Y00405
X00575Y00385
X00555Y00395
X00565Y00415
X0054Y0042
X00645Y00355
X00606Y0058375
X00566Y0062375
X00526Y0066375
X00746
Y0062375
X0075Y005895
X00746Y0058375
Y0054375
Y0050375
Y0046375
X007625Y00452
X0075775Y0044675
X00767Y0044125
X0076675Y00434
X0076075Y00432
X0075Y0043
X00755Y00415
X00745Y00405
X00745Y0038525
X00735Y00385
X00725Y00365
X00745Y00355
X00735Y00335
X00715Y00345
Y00395
X0072404Y0041502
X007745Y00419
X00771Y00406
X0077452Y0040227
X0077875Y0039775
X0077Y0039
X007945Y0039
X008055Y003905
X0080175Y0037825
X007905Y003745
X00755Y00375
X0077Y0034
X00806Y0034375
X008115Y0035375
X00826Y0034375
X00846
X0084775Y0035725
X00856Y0036375
X00876
X0088075Y00368
X00896Y0036375
X00916
X009185Y0039125
X009185Y0040608
X00896Y0040375
X0088675Y004045
X008865Y0039125
X00866Y0038375
Y0034375
X00886
X00906
X00926
X00928Y0032975
X0092825Y003095
X00886Y0030375
X00846
X0083375Y0031825
X00836Y0032375
X00806Y0030375
X0077479Y0030201
X00745Y00305
X00725
X0080225Y004125
X00798Y0042875
X0080925Y004405
X00816Y0044375
X00806Y0046375
X008255Y004675
X00848Y00477
X00876Y0048375
X00896
X008865Y0046875
X00886Y0046375
X00906
X009185Y0046875
X00926Y0046375
X009185Y0043742
X00926Y0042375
X00906
X008865Y0043742
X00876Y0044375
X00856
X0083504Y0041027
X00822Y0040075
X00926Y0038375
Y0050375
X00906
X00886
X00876Y0052375
X00896
X00916
X00906Y0054375
X00886
X00876Y0056375
X00896
X00916
X00906Y0058375
X00886
X00866
X00856Y0060375
X00876
X00896
X00916
X00906Y0062375
X00886
X00866
X00846
X00836Y0064375
X00856
X00876
X00896
X00916
X00906Y0066375
X00886
X00866
X00846
X00836Y0068375
X00856
X00876
X00896
X00916
X00926Y0066375
Y0062375
Y0058375
Y0054375
X00836Y0056375
X00816
X00826Y0058375
X007985Y005895
X0079875Y0071425
Y0072525
X007985Y0073425
Y0074775
X0079875Y0075775
X008085Y00758
X0082075
X00836Y0076375
X00856
X00876
X00896
X00916
X00906Y0074375
X00886
X00866
X00846
X00836Y0072375
X00856
X00876
X00896
X00916
X00906Y0070375
X00886
X00866
X00846
Y0078375
X00826
X0082Y00786
X0080675Y0078575
X0079804Y0078404
X0080629Y0080429
X0080625Y008125
X0080775Y008415
X00816Y0084375
X0082175Y0085475
X00836Y0084375
X008525Y00844
Y0086
X00866Y0086375
X0087675Y0086
X0087825Y00844
X00896Y0084375
X00916
X00906Y0082375
X00886
X00866
X00846
X00826
X00836Y0080375
X00856
X00876
X00896
X00916
X00906Y0078375
X00886
X00866
X00926
Y0074375
Y0070375
Y0082375
Y0086375
X00906
X00896Y0088375
X00876
X00856
X00836
X00816
X00826Y0090375
X00846
X00866
X00886
X00906
X00926
X00916Y0088375
Y0092375
X00896
X00876
X00856
X00836
X00816
X00826Y0094375
X00846
X00866
X00886
X00906
X00926
X00916Y0096375
X00896
X00876
X00856
X00836
X00816
X00826Y0098375
X00846
X00866
X00886
X00906
X00926
X00916Y0100375
X00896
X00876
X00856
X00836
X00816
X00826Y0102375
X00846
X00866
X00886
X00906
X00926
X00916Y0104375
X00896
X00876
X00856
X00836
X00846Y0106375
X00866
X00886
X00906
X00926
X00916Y0108375
X00896
X00876
X00856
X00836
X0081863Y010865
X0081063Y0108625
X0080263
X0079475Y0108425
X0078675
X0077875Y01084
X0077069Y0108406
X0076275Y01084
X00756Y0108375
X0075875Y010775
X0076675
X0077475
X0078275
X0079075
X0079875
X0080675
X0081875
X0082263Y010615
X0081469Y0105881
X008085Y0105875
X0080275
X007905Y0105675
X0078229Y0105655
X007745Y0105625
X00767
X0075904Y010563
X00746Y0106375
X00736Y0108375
X00716
X00746Y0102375
Y0098375
Y0090375
Y0086375
X0073275Y00871
X00733Y008335
X00746Y0082375
X0075475Y00788
Y00782
Y00776
X00755Y007695
X00746Y0070375
X00646
X0065575Y0075325
X00696Y0076375
X00676Y0080375
X0066763Y0080262
X0065963Y0080287
X006635Y0080725
X006505Y00809
X00646Y0082375
X00666
X00686
X0069325Y008345
X00676Y0084375
X006707Y0085475
X0065575Y0084625
X00646Y0086375
X00656Y0088375
X00676
X00696
X0069325Y00871
X00686Y0090375
X00666
X00646
X00656Y0092375
X00676
X00696
X00686Y0094375
X00666
X00646
X00656Y0096375
X00676
X00696
X00666Y0098375
X00646
X00656Y0100375
X00652Y01062
X0065975Y01078
X0066Y01086
X0064528Y010853
X0063925Y0108825
X00586Y0106375
X00596Y0104375
X00586Y0102375
X00576Y0100375
X00556
X00536
X00516
X00496
X00476
X00466Y0098375
X00486
X00506
X00526
X00546
X00536Y0096375
X00516
X00496
X00476
X00466Y0094375
X00486
X00506
X00526
X00546
X00536Y0092375
X00516
X00496
X00476
X00466Y0090375
X00486
X00506
X00526
X00546
X00536Y0088375
X00516
X00496
X00476
X00466Y0086375
X00486
X005Y0085075
X00496Y0084375
X00476
X00466Y0082375
X00486
X00506
X00526
X00546
X00536Y0084375
X00516
X0051965Y0085475
X0056016Y0085823
Y0084223
X0058416Y0084223
Y0085823
X00576Y0088375
X00556
Y0092375
X00576
Y0096375
X00556
Y0104375
X00546Y0106375
X00556Y0108375
X0051525Y0108625
X0050725
X00495Y01086
X0048725Y0108725
X0047125Y01078
X0046325Y010825
X0047925Y0106125
X0048725Y01061
X0049525Y0106125
X00503Y0106075
X0051525Y010555
X00516Y0104375
X00496
X00476
X00466Y0102375
X00486
X00506
X00526
X00426
X00406
X00386
X00376Y0104375
X0036787Y0104425
X003605Y0104425
X00396Y0104375
X00416
X00406Y0106375
X00386
X00376Y0108375
X0036501Y01085
X0036101Y01081
X0035701Y01085
X0035276Y01081
X00336Y0108375
X00316
Y0100375
X00336
X00326Y0098375
X00346
X00336Y0096375
X00316
X00326Y0094375
X00346
X00366
X00356Y0092375
X00336
X00316
X00326Y0090375
X00346
X00366
X00386
X00376Y0088375
X00356
X00336
X00316
X00326Y0086375
X0035375Y00851
X003686Y0085475
X0039125Y0086825
X00396Y0088375
X0039075Y0083275
X00376Y0080375
X0036711Y0080338
X0035911
X0036311Y0078562
X0035511
X00346Y0078375
X00326
X0035875Y0076075
X00386Y0074375
Y0078375
X00466
X0050937Y0078562
X0051737
X00526Y0078375
X00546
X00536Y0076375
X00556
Y0072375
X00536
X0051425Y0074425
X00506Y0074375
X00446
X00444Y0084225
Y008585
X0050537Y0080338
X0051337
X00576Y0080375
X00376Y0092375
Y0096375
X00356
X00426Y0098375
X00416Y0100375
X00426Y0106375
X00416Y0108375
X00396
X00256
X00236
X0021476Y01085
X0021076Y01081
X0020676Y01085
X0020251Y01081
X0020273Y0106
X00246Y0106375
X00266
X00256Y0104375
X00236
X00226Y0102375
X00246
X00256Y0100375
X00276
X00266Y0098375
X00226
X00146
X00126
X00106
X00086
X00066
X00056Y0096375
X00066Y0094375
X00086
X00106
X00126
X00146
X00166
X00186
X00176Y0092375
X00156
X00136
X00116
X00096
X00086Y0090375
X00066
X00056Y0088375
X00036
X00026Y0086375
X00016Y0084375
X00036
X00056
X0005025Y0084975
X000665Y0085475
X0009185Y0086223
X00106Y0086375
X0011585Y0086223
Y0084623
X00136Y0084375
X00156
X00176
X00196
X002025Y00848
X00216Y0084375
X0021755Y0085475
X00216Y0088375
X00196
X00176
X00156
X00136
X00116
X00096
X00106Y0090375
X00126
X00146
X00166
X00186
X00206
X00196Y0092375
X00186Y0086375
X00166
X00146
Y0082375
X00156Y0080375
X00126Y0078375
X00106
X00086
X00066
X0005875Y0078562
X0005075
X0005475Y0080338
X0006275
X00096Y0080375
Y0076375
X00116
X00136
X00126Y0074375
X00106
X00116Y0072375
X00136
X00156
X00176
X00166Y0070375
X00146
Y0074375
X002025Y0075975
Y0078562
X002105
X00226Y0078375
X00236Y0076375
X002145Y0080338
X002065
X00186Y0078375
Y0070375
X00206
X0023625Y0083625
Y0087
X00236Y0088375
X00284Y008705
Y008365
X0009185Y0084623
X00056Y0092375
X00016
X-00004
X-00024
X-00044
X-00064
X-00084
X-00074Y0090375
X-00054
X-00034
X-00014
Y0094375
X-00034
X-00054
X-00074
X-00084Y0096375
X-00064
X-00044
X-00024
X-00004
X00016
X00006Y0094375
Y0098375
X-00014
X-00034
X-00054
X-00074
X-00084Y0100375
X-00064
X-00044
X-00024
X-00004
X00016
X00006Y0102375
X-00014
X-00034
X-00054
X-00074
X-00084Y0104375
X-00064
X-00044
X-00024
X-00004
X00016
Y0108375
X-00004
X-00024
X-00044
X-00064
X-00084
X-00074Y0106375
X-00054
X-00034
X-00014
X00036Y0108375
X0005225Y01081
X000565Y01085
X000645
X000605Y01081
X00076Y0108375
X00096
X00086Y0106375
X00106
X00096Y0104375
X00076
X00056
X000525Y0105975
X000645Y0102325
X00086Y0102375
X00106
X00126
X00146
X00136Y0100375
X00116
X00096
X00056
X00096Y0096375
X00116
X00136
X00156
Y0100375
X00136Y0104375
X00116
X00146Y0106375
X00176Y0108375
X00276Y0104375
X-00044Y0088375
X-00064
X-00084
X-00074Y0086375
X-00054
X-00034
X-00044Y0084375
X-00064
X-00084
X-00074Y0082375
X-00054
X-00034
X-00044Y0080375
X-00064
X-00084
X-00074Y0078375
X-00054
X-00034
X-00014
X-00024Y0076375
X-00044
X-00064
X-00084
X-00074Y0074375
X-00054
X-00034
X-00014
X00006
X-00004Y0072375
X-00024
X-00044
X-00064
X-00084
X-00074Y0070375
X-00054
X-00034
X-00014
X00006
X-00004Y0076375
X0005075Y0075075
X000445Y01103
X000365Y0110688
X000289Y0111085
X000205Y01118
X0001251Y0112499
X-00004Y0112375
X-00024
X-00044
X-00064
X-00084
X-00074Y0110375
X-00054
X-00034
X-00014
X00006
Y0114375
X-00014
X-00034
X-00054
X-00074
X-00084Y0116375
X-00064
X-00044
X-00024
X-00004
X00016
X00036
X00056
X000505Y0114475
X00064Y0114525
X0007225Y0113975
X0008175Y0116525
X00086Y0118375
X00066
X00046
X00026
X00006
X-00014
X-00034
X-00054
X-00074
X00026Y0114375
X0011Y0113975
X0011075Y0115575
X00116Y0116375
X00136
X00156
X00176
X00166Y0114375
X00146
X00126
X00136Y0112375
X00156
X00146Y0110375
X00166
X00106
Y0118375
X00126
X00146
X00166
X00186
X00206
X00226
X00246
X00266
X00286
X00306
X00296Y0116375
X00276
X00256
X002495Y01167
X0023225
X0023175Y0112975
X0024975Y0112825
X00266Y0114375
X00286
X00306
X00296Y0112375
X00306Y0110375
X0021575Y01145
X00206Y0114375
X00201Y01145
X00186Y0114375
X00326
X00346
X003535Y0114375
X003675Y01144
X00376Y0116375
X0038525Y01167
X00396Y0116375
X00404Y0116675
X00416Y0116375
X00436
X00456
X00476
X00496
X00486Y0114375
X00466
X00446
X00426
X00436Y0112375
X00456
X00463Y0111425
X0047125Y0110925
X004795Y0110425
X00486Y0110375
X0050775Y01102
X00517
X00526Y0110375
X00546
X00536Y0112375
X0053875Y0112875
X00556Y01129
X00556Y0112375
X00576
X00596
X00586Y0114375
X00566
X00576Y0116375
X00596
X00616
X00636
X00626Y0114375
X00606
Y0110375
Y0118375
X00586
X00566
X00546
X00526
X00506
X00486
X00466
X00446
X00426
X00406
X00386
X00366
X00346
X00326
X00316Y0116375
X00336
X0038525Y0112925
X0040375
X00446Y0110375
X00476Y0112375
X00496
X00516
X005195Y011455
X00526Y0114375
X00503Y011395
X0053875Y0116525
X00556Y01165
X00626Y0118375
X00646
X00666
X00686
X00706
X00697Y0116675
X006715
X00666Y0114375
X006555Y011445
X00646Y0114375
X00686
X00706
X0069725Y011315
X00696Y0112375
X00676
X00706Y0110375
X00726
X00746
X0075875Y011025
X0076675
X0077475
X0078275
X0079075
X0079875
X0080675Y0110275
X0081475
X0082275Y011025
X00846Y0110375
X00866
X00886
X00906
X00926
X00916Y0112375
X00896
X0089185Y0113373
X00906Y0114375
X00926
X00916Y0116375
X0089186Y0116623
X00876Y0116375
X008546Y0116623
X00836Y0116375
X00816
X00796
X00776
X00756
X007295Y0116625
X00716Y0116375
X00726Y0118375
X00746
X00766
X00786
X00806
X00826
X00846
X00866
X00886
X00906
X00926
X00866Y0114375
X00846
X0085525Y01133
X00856Y0112375
X00836
X00816
X00796
X00776
X00756
X00736
X0072975Y0113175
X00716Y0112375
X00746Y0114375
X00766
X00786
X008075Y0114075
X0082341Y01148
X00876Y0112375
T02
X-0005425Y0022994
Y0026956
T03
X0083185Y0003175
X0003175
Y0051435
X0083185
T04
X0088975Y0022
Y0032
T05
X007402Y0002666
X0055544
X0030816
X001234
Y0047886
X0030816
X0055544
X007402
M30
