G04 Layer_Color=32896*
%FSLAX43Y43*%
%MOMM*%
G71*
G01*
G75*
%ADD19C,0.100*%
%ADD20C,0.254*%
D19*
X51775Y44100D02*
X51109D01*
X51442D01*
Y43100D01*
X50775Y44100D02*
Y43100D01*
Y43600D01*
X50609Y43766D01*
X50275D01*
X50109Y43600D01*
Y43100D01*
X49276D02*
X49609D01*
X49776Y43267D01*
Y43600D01*
X49609Y43766D01*
X49276D01*
X49109Y43600D01*
Y43433D01*
X49776D01*
X47776Y43100D02*
Y44100D01*
X47276D01*
X47110Y43933D01*
Y43600D01*
X47276Y43433D01*
X47776D01*
X46610Y43766D02*
X46277D01*
X46110Y43600D01*
Y43100D01*
X46610D01*
X46777Y43267D01*
X46610Y43433D01*
X46110D01*
X45777Y43766D02*
Y43100D01*
Y43433D01*
X45610Y43600D01*
X45444Y43766D01*
X45277D01*
X44777Y43100D02*
X44277D01*
X44111Y43267D01*
X44277Y43433D01*
X44611D01*
X44777Y43600D01*
X44611Y43766D01*
X44111D01*
X42778Y44100D02*
Y43100D01*
X42278D01*
X42111Y43267D01*
Y43433D01*
X42278Y43600D01*
X42778D01*
X42278D01*
X42111Y43766D01*
Y43933D01*
X42278Y44100D01*
X42778D01*
X41612Y43100D02*
X41278D01*
X41112Y43267D01*
Y43600D01*
X41278Y43766D01*
X41612D01*
X41778Y43600D01*
Y43267D01*
X41612Y43100D01*
X40612Y43766D02*
X40279D01*
X40112Y43600D01*
Y43100D01*
X40612D01*
X40779Y43267D01*
X40612Y43433D01*
X40112D01*
X39779Y43766D02*
Y43100D01*
Y43433D01*
X39612Y43600D01*
X39446Y43766D01*
X39279D01*
X38113Y44100D02*
Y43100D01*
X38613D01*
X38779Y43267D01*
Y43600D01*
X38613Y43766D01*
X38113D01*
X36780D02*
X36447Y43100D01*
X36113Y43766D01*
X35780Y43100D02*
X35447D01*
X35614D01*
Y44100D01*
X35780Y43933D01*
X34947Y43100D02*
Y43267D01*
X34780D01*
Y43100D01*
X34947D01*
X34114Y43933D02*
X33947Y44100D01*
X33614D01*
X33448Y43933D01*
Y43267D01*
X33614Y43100D01*
X33947D01*
X34114Y43267D01*
Y43933D01*
X38352Y29954D02*
Y30954D01*
X37853D01*
X37686Y30787D01*
Y30454D01*
X37853Y30287D01*
X38352D01*
X37353Y29954D02*
X37020D01*
X37186D01*
Y30954D01*
X37353Y30787D01*
X81119Y29954D02*
Y30954D01*
X80619D01*
X80453Y30787D01*
Y30454D01*
X80619Y30287D01*
X81119D01*
X79620Y29954D02*
Y30954D01*
X80119Y30454D01*
X79453D01*
X16969Y29954D02*
Y30954D01*
X16469D01*
X16303Y30787D01*
Y30454D01*
X16469Y30287D01*
X16969D01*
X15969Y30787D02*
X15803Y30954D01*
X15470D01*
X15303Y30787D01*
Y30621D01*
X15470Y30454D01*
X15636D01*
X15470D01*
X15303Y30287D01*
Y30121D01*
X15470Y29954D01*
X15803D01*
X15969Y30121D01*
X59736Y29954D02*
Y30954D01*
X59236D01*
X59069Y30787D01*
Y30454D01*
X59236Y30287D01*
X59736D01*
X58070Y29954D02*
X58736D01*
X58070Y30621D01*
Y30787D01*
X58236Y30954D01*
X58569D01*
X58736Y30787D01*
X80010Y48260D02*
X86360D01*
X80010D02*
Y54610D01*
Y0D02*
Y6350D01*
X86360D01*
X0Y48260D02*
X6350D01*
Y54610D01*
Y0D02*
Y6350D01*
X0D02*
X6350D01*
D20*
X24833Y10725D02*
X38333D01*
X34783Y23700D02*
X34808Y23675D01*
X24833Y29225D02*
X38333D01*
X24833Y10725D02*
Y29225D01*
X38333Y10725D02*
Y29225D01*
X67600Y10725D02*
X81100D01*
X77550Y23700D02*
X77575Y23675D01*
X67600Y29225D02*
X81100D01*
X67600Y10725D02*
Y29225D01*
X81100Y10725D02*
Y29225D01*
X3450Y10725D02*
X16950D01*
X13400Y23700D02*
X13425Y23675D01*
X3450Y29225D02*
X16950D01*
X3450Y10725D02*
Y29225D01*
X16950Y10725D02*
Y29225D01*
X46217Y10725D02*
X59717D01*
X56167Y23700D02*
X56192Y23675D01*
X46217Y29225D02*
X59717D01*
X46217Y10725D02*
Y29225D01*
X59717Y10725D02*
Y29225D01*
X0Y54610D02*
X86360D01*
Y0D02*
Y54610D01*
X0Y0D02*
X86360D01*
X0D02*
Y54610D01*
M02*
