G04 Layer_Color=128*
%FSLAX43Y43*%
%MOMM*%
G71*
G01*
G75*
%ADD19C,0.100*%
%ADD20C,0.254*%
%ADD31R,0.230X0.700*%
D19*
X80010Y48260D02*
X86360D01*
X80010D02*
Y54610D01*
Y0D02*
Y6350D01*
X86360D01*
X0Y48260D02*
X6350D01*
Y54610D01*
Y0D02*
Y6350D01*
X0D02*
X6350D01*
D20*
X0Y54610D02*
X86360D01*
Y0D02*
Y54610D01*
X0Y0D02*
X86360D01*
X0D02*
Y54610D01*
D31*
X34383Y26975D02*
D03*
X34783D02*
D03*
X33983D02*
D03*
X33583D02*
D03*
X31983D02*
D03*
X32383D02*
D03*
X33183D02*
D03*
X32783D02*
D03*
X29583D02*
D03*
X29983D02*
D03*
X29183D02*
D03*
X28783D02*
D03*
X30383D02*
D03*
X30783D02*
D03*
X31583D02*
D03*
X31183D02*
D03*
X28383D02*
D03*
Y24475D02*
D03*
X31183D02*
D03*
X31583D02*
D03*
X30783D02*
D03*
X30383D02*
D03*
X28783D02*
D03*
X29183D02*
D03*
X29983D02*
D03*
X29583D02*
D03*
X32783D02*
D03*
X33183D02*
D03*
X32383D02*
D03*
X31983D02*
D03*
X33583D02*
D03*
X33983D02*
D03*
X34783D02*
D03*
X34383D02*
D03*
X77150Y26975D02*
D03*
X77550D02*
D03*
X76750D02*
D03*
X76350D02*
D03*
X74750D02*
D03*
X75150D02*
D03*
X75950D02*
D03*
X75550D02*
D03*
X72350D02*
D03*
X72750D02*
D03*
X71950D02*
D03*
X71550D02*
D03*
X73150D02*
D03*
X73550D02*
D03*
X74350D02*
D03*
X73950D02*
D03*
X71150D02*
D03*
Y24475D02*
D03*
X73950D02*
D03*
X74350D02*
D03*
X73550D02*
D03*
X73150D02*
D03*
X71550D02*
D03*
X71950D02*
D03*
X72750D02*
D03*
X72350D02*
D03*
X75550D02*
D03*
X75950D02*
D03*
X75150D02*
D03*
X74750D02*
D03*
X76350D02*
D03*
X76750D02*
D03*
X77550D02*
D03*
X77150D02*
D03*
X13000Y26975D02*
D03*
X13400D02*
D03*
X12600D02*
D03*
X12200D02*
D03*
X10600D02*
D03*
X11000D02*
D03*
X11800D02*
D03*
X11400D02*
D03*
X8200D02*
D03*
X8600D02*
D03*
X7800D02*
D03*
X7400D02*
D03*
X9000D02*
D03*
X9400D02*
D03*
X10200D02*
D03*
X9800D02*
D03*
X7000D02*
D03*
Y24475D02*
D03*
X9800D02*
D03*
X10200D02*
D03*
X9400D02*
D03*
X9000D02*
D03*
X7400D02*
D03*
X7800D02*
D03*
X8600D02*
D03*
X8200D02*
D03*
X11400D02*
D03*
X11800D02*
D03*
X11000D02*
D03*
X10600D02*
D03*
X12200D02*
D03*
X12600D02*
D03*
X13400D02*
D03*
X13000D02*
D03*
X55767Y26975D02*
D03*
X56167D02*
D03*
X55367D02*
D03*
X54967D02*
D03*
X53367D02*
D03*
X53767D02*
D03*
X54567D02*
D03*
X54167D02*
D03*
X50967D02*
D03*
X51367D02*
D03*
X50567D02*
D03*
X50167D02*
D03*
X51767D02*
D03*
X52167D02*
D03*
X52967D02*
D03*
X52567D02*
D03*
X49767D02*
D03*
Y24475D02*
D03*
X52567D02*
D03*
X52967D02*
D03*
X52167D02*
D03*
X51767D02*
D03*
X50167D02*
D03*
X50567D02*
D03*
X51367D02*
D03*
X50967D02*
D03*
X54167D02*
D03*
X54567D02*
D03*
X53767D02*
D03*
X53367D02*
D03*
X54967D02*
D03*
X55367D02*
D03*
X56167D02*
D03*
X55767D02*
D03*
M02*
