M48
;Layer_Color=9474304
;FILE_FORMAT=4:3
METRIC,LZ
;TYPE=PLATED
T1F00S00C0.200
T2F00S00C0.900
T3F00S00C3.175
;TYPE=NON_PLATED
T4F00S00C1.016
%
T01
X00625Y0003325
X0065025Y0003275
X0067575Y0003225
X007Y000325
X0070075Y00059
X0067575Y0005875
X006505Y0005975
X00626Y00061
X00732Y00191
X007315Y002305
X007235Y002295
X0073875Y002325
X007475Y0022975
X007555Y00232
X007635Y002295
X0077575Y0023175
X00558Y00233
X0054175Y0023275
X0052567Y0023233
X0051275Y0023425
X0050567Y0023233
X0049767Y0023458
X0051775Y0022
X0053375Y002185
X0054975Y00218
X0050475Y0019025
X0031825Y0018775
X0031975Y00216
X0033575Y0021575
X0032783Y0023292
X0034383Y0023283
X0031183Y0023308
X0029183Y0023283
X003035Y0021625
X002585Y00206
X0026825Y000595
X00268Y0003475
X0024325Y0003375
X0022825Y00035
X0021775Y000345
X0021825Y000585
X0022825Y00053
X002435Y0006125
X0060025Y000615
X006Y0003225
X0019325Y0003475
Y000595
X00168Y00061
X0016825Y0003325
X0010475Y001915
X00106Y002205
X0009
X00098Y002315
X00114Y00232
X0013Y0023225
X00122Y0022075
X00078Y0023125
X0007475Y0028475
X00168Y00487
X001685Y005115
X0019325Y0051175
Y0048775
X00218Y004885
X0021825Y005115
X0024325
Y0048875
X00268Y0048675
X0026825Y005105
X005155Y0050775
X0054075Y00497
X00558Y0049525
X0058625Y005085
X0059775Y00505
X0060032Y0051582
X00565Y00533
X005725Y00452
X0051625Y002815
X0051782Y0025875
X0050175Y00257
X002735Y0024325
X00702Y0024475
X0068675Y0026025
X007325Y0025975
X007395Y00257
X007555Y00257
X007715Y00257
X0078425Y0026225
X0073075Y0028925
X007195Y0028025
X0071225Y0034875
X006945Y00432
X00702Y0044475
X0072275
X0073775
X0074675Y004725
X0073475Y0048825
X0075375Y004975
X0073775Y0053525
X0069825Y0050475
X0070175Y0048925
X00695Y00485
X0068525Y004915
X006705Y0048775
X0066125Y004945
X00651Y004955
X00656Y0048539
X0064125Y00488
X0062475Y0048725
X0061425Y0048375
X0060403Y0048427
X0062875Y00511
X00648Y0051225
X0067825Y0051175
T02
X008055Y0038175
X008309
Y0040725
X008055
T03
X0083185Y0003175
X0003175
Y0051435
X0083185
T04
X007402Y000673
X0055545
X0030815
X001234
Y005195
X0030815
X0055545
X007402
M30
