G04 Layer_Color=128*
%FSLAX43Y43*%
%MOMM*%
G71*
G01*
G75*
%ADD19C,0.100*%
%ADD20C,0.254*%
%ADD42C,0.051*%
D19*
X80010Y48260D02*
X86360D01*
X80010D02*
Y54610D01*
Y0D02*
Y6350D01*
X86360D01*
X0Y48260D02*
X6350D01*
Y54610D01*
Y0D02*
Y6350D01*
X0D02*
X6350D01*
D20*
X0Y54610D02*
X86360D01*
Y0D02*
Y54610D01*
X0Y0D02*
X86360D01*
X0D02*
Y54610D01*
D42*
X80100Y40725D02*
X81000D01*
X80550Y40275D02*
Y41175D01*
X82640Y40725D02*
X83540D01*
X83090Y40275D02*
Y41175D01*
X73512Y51950D02*
X74528D01*
X74020Y51442D02*
Y52458D01*
X55037Y51950D02*
X56053D01*
X55545Y51442D02*
Y52458D01*
X80100Y38175D02*
X81000D01*
X80550Y37725D02*
Y38625D01*
X82640Y38175D02*
X83540D01*
X83090Y37725D02*
Y38625D01*
X30307Y6730D02*
X31323D01*
X30815Y6222D02*
Y7238D01*
X11832Y6730D02*
X12848D01*
X12340Y6222D02*
Y7238D01*
X30307Y51950D02*
X31323D01*
X30815Y51442D02*
Y52458D01*
X11832Y51950D02*
X12848D01*
X12340Y51442D02*
Y52458D01*
X73512Y6730D02*
X74528D01*
X74020Y6222D02*
Y7238D01*
X55037Y6730D02*
X56053D01*
X55545Y6222D02*
Y7238D01*
X81598Y3175D02*
X84772D01*
X83185Y1587D02*
Y4762D01*
X81598Y51435D02*
X84772D01*
X83185Y49847D02*
Y53022D01*
X1587Y51435D02*
X4762D01*
X3175Y49847D02*
Y53022D01*
X1587Y3175D02*
X4762D01*
X3175Y1587D02*
Y4762D01*
X56400Y53300D02*
X56600D01*
X56500Y53200D02*
Y53400D01*
X57150Y45200D02*
X57350D01*
X57250Y45100D02*
Y45300D01*
X51450Y50775D02*
X51650D01*
X51550Y50675D02*
Y50875D01*
X53975Y49700D02*
X54175D01*
X54075Y49600D02*
Y49800D01*
X55700Y49525D02*
X55900D01*
X55800Y49425D02*
Y49625D01*
X58525Y50850D02*
X58725D01*
X58625Y50750D02*
Y50950D01*
X7700Y23125D02*
X7900D01*
X7800Y23025D02*
Y23225D01*
X61325Y48375D02*
X61525D01*
X61425Y48275D02*
Y48475D01*
X64700Y51225D02*
X64900D01*
X64800Y51125D02*
Y51325D01*
X8900Y22050D02*
X9100D01*
X9000Y21950D02*
Y22150D01*
X62775Y51100D02*
X62975D01*
X62875Y51000D02*
Y51200D01*
X9700Y23150D02*
X9900D01*
X9800Y23050D02*
Y23250D01*
X10500Y22050D02*
X10700D01*
X10600Y21950D02*
Y22150D01*
X11300Y23200D02*
X11500D01*
X11400Y23100D02*
Y23300D01*
X12100Y22075D02*
X12300D01*
X12200Y21975D02*
Y22175D01*
X12900Y23225D02*
X13100D01*
X13000Y23125D02*
Y23325D01*
X66025Y49450D02*
X66225D01*
X66125Y49350D02*
Y49550D01*
X66950Y48775D02*
X67150D01*
X67050Y48675D02*
Y48875D01*
X30250Y21625D02*
X30450D01*
X30350Y21525D02*
Y21725D01*
X31875Y21600D02*
X32075D01*
X31975Y21500D02*
Y21700D01*
X33475Y21575D02*
X33675D01*
X33575Y21475D02*
Y21675D01*
X34283Y23283D02*
X34483D01*
X34383Y23183D02*
Y23383D01*
X32683Y23292D02*
X32883D01*
X32783Y23192D02*
Y23392D01*
X31083Y23308D02*
X31283D01*
X31183Y23208D02*
Y23408D01*
X51675Y22000D02*
X51875D01*
X51775Y21900D02*
Y22100D01*
X53275Y21850D02*
X53475D01*
X53375Y21750D02*
Y21950D01*
X54875Y21800D02*
X55075D01*
X54975Y21700D02*
Y21900D01*
X76250Y22950D02*
X76450D01*
X76350Y22850D02*
Y23050D01*
X73050D02*
X73250D01*
X73150Y22950D02*
Y23150D01*
X74650Y22975D02*
X74850D01*
X74750Y22875D02*
Y23075D01*
X69350Y43200D02*
X69550D01*
X69450Y43100D02*
Y43300D01*
X69725Y50475D02*
X69925D01*
X69825Y50375D02*
Y50575D01*
X68425Y49150D02*
X68625D01*
X68525Y49050D02*
Y49250D01*
X70075Y48925D02*
X70275D01*
X70175Y48825D02*
Y49025D01*
X75275Y49750D02*
X75475D01*
X75375Y49650D02*
Y49850D01*
X73375Y48825D02*
X73575D01*
X73475Y48725D02*
Y48925D01*
X74575Y47250D02*
X74775D01*
X74675Y47150D02*
Y47350D01*
X29083Y23283D02*
X29283D01*
X29183Y23183D02*
Y23383D01*
X73675Y53525D02*
X73875D01*
X73775Y53425D02*
Y53625D01*
X77050Y25700D02*
X77250D01*
X77150Y25600D02*
Y25800D01*
X75450Y25700D02*
X75650D01*
X75550Y25600D02*
Y25800D01*
X73675Y44475D02*
X73875D01*
X73775Y44375D02*
Y44575D01*
X72175Y44475D02*
X72375D01*
X72275Y44375D02*
Y44575D01*
X72975Y28925D02*
X73175D01*
X73075Y28825D02*
Y29025D01*
X73850Y25700D02*
X74050D01*
X73950Y25600D02*
Y25800D01*
X70100Y44475D02*
X70300D01*
X70200Y44375D02*
Y44575D01*
X55700Y23300D02*
X55900D01*
X55800Y23200D02*
Y23400D01*
X54075Y23275D02*
X54275D01*
X54175Y23175D02*
Y23375D01*
X52467Y23233D02*
X52667D01*
X52567Y23133D02*
Y23333D01*
X50467Y23233D02*
X50667D01*
X50567Y23133D02*
Y23333D01*
X67725Y51175D02*
X67925D01*
X67825Y51075D02*
Y51275D01*
X16700Y6100D02*
X16900D01*
X16800Y6000D02*
Y6200D01*
X21725Y5850D02*
X21925D01*
X21825Y5750D02*
Y5950D01*
X22725Y5300D02*
X22925D01*
X22825Y5200D02*
Y5400D01*
X19225Y5950D02*
X19425D01*
X19325Y5850D02*
Y6050D01*
X24250Y6125D02*
X24450D01*
X24350Y6025D02*
Y6225D01*
X26725Y5950D02*
X26925D01*
X26825Y5850D02*
Y6050D01*
X24225Y3375D02*
X24425D01*
X24325Y3275D02*
Y3475D01*
X26700D02*
X26900D01*
X26800Y3375D02*
Y3575D01*
X22725Y3500D02*
X22925D01*
X22825Y3400D02*
Y3600D01*
X21675Y3450D02*
X21875D01*
X21775Y3350D02*
Y3550D01*
X19225Y3475D02*
X19425D01*
X19325Y3375D02*
Y3575D01*
X16725Y3325D02*
X16925D01*
X16825Y3225D02*
Y3425D01*
X59925Y6150D02*
X60125D01*
X60025Y6050D02*
Y6250D01*
X64950Y5975D02*
X65150D01*
X65050Y5875D02*
Y6075D01*
X69975Y5900D02*
X70175D01*
X70075Y5800D02*
Y6000D01*
X67475Y5875D02*
X67675D01*
X67575Y5775D02*
Y5975D01*
X62500Y6100D02*
X62700D01*
X62600Y6000D02*
Y6200D01*
X59900Y3225D02*
X60100D01*
X60000Y3125D02*
Y3325D01*
X62400D02*
X62600D01*
X62500Y3225D02*
Y3425D01*
X64925Y3275D02*
X65125D01*
X65025Y3175D02*
Y3375D01*
X67475Y3225D02*
X67675D01*
X67575Y3125D02*
Y3325D01*
X69900Y3250D02*
X70100D01*
X70000Y3150D02*
Y3350D01*
X16700Y48700D02*
X16900D01*
X16800Y48600D02*
Y48800D01*
X19225Y48775D02*
X19425D01*
X19325Y48675D02*
Y48875D01*
X21700Y48850D02*
X21900D01*
X21800Y48750D02*
Y48950D01*
X24225Y48875D02*
X24425D01*
X24325Y48775D02*
Y48975D01*
X26700Y48675D02*
X26900D01*
X26800Y48575D02*
Y48775D01*
X26725Y51050D02*
X26925D01*
X26825Y50950D02*
Y51150D01*
X24225D02*
X24425D01*
X24325Y51050D02*
Y51250D01*
X21725Y51150D02*
X21925D01*
X21825Y51050D02*
Y51250D01*
X19225Y51175D02*
X19425D01*
X19325Y51075D02*
Y51275D01*
X16750Y51150D02*
X16950D01*
X16850Y51050D02*
Y51250D01*
X71850Y28025D02*
X72050D01*
X71950Y27925D02*
Y28125D01*
X51525Y28150D02*
X51725D01*
X51625Y28050D02*
Y28250D01*
X50075Y25700D02*
X50275D01*
X50175Y25600D02*
Y25800D01*
X31725Y18775D02*
X31925D01*
X31825Y18675D02*
Y18875D01*
X10375Y19150D02*
X10575D01*
X10475Y19050D02*
Y19250D01*
X69400Y48500D02*
X69600D01*
X69500Y48400D02*
Y48600D01*
X65500Y48539D02*
X65700D01*
X65600Y48439D02*
Y48639D01*
X65000Y49550D02*
X65200D01*
X65100Y49450D02*
Y49650D01*
X59932Y51582D02*
X60132D01*
X60032Y51482D02*
Y51682D01*
X59675Y50500D02*
X59875D01*
X59775Y50400D02*
Y50600D01*
X60303Y48427D02*
X60503D01*
X60403Y48327D02*
Y48527D01*
X62375Y48725D02*
X62575D01*
X62475Y48625D02*
Y48825D01*
X64025Y48800D02*
X64225D01*
X64125Y48700D02*
Y48900D01*
X27250Y24325D02*
X27450D01*
X27350Y24225D02*
Y24425D01*
X25750Y20600D02*
X25950D01*
X25850Y20500D02*
Y20700D01*
X7375Y28475D02*
X7575D01*
X7475Y28375D02*
Y28575D01*
X50375Y19025D02*
X50575D01*
X50475Y18925D02*
Y19125D01*
X70100Y24475D02*
X70300D01*
X70200Y24375D02*
Y24575D01*
X72250Y22950D02*
X72450D01*
X72350Y22850D02*
Y23050D01*
X73775Y23250D02*
X73975D01*
X73875Y23150D02*
Y23350D01*
X75450Y23200D02*
X75650D01*
X75550Y23100D02*
Y23300D01*
X77475Y23175D02*
X77675D01*
X77575Y23075D02*
Y23275D01*
X78325Y26225D02*
X78525D01*
X78425Y26125D02*
Y26325D01*
X73150Y25975D02*
X73350D01*
X73250Y25875D02*
Y26075D01*
X68575Y26025D02*
X68775D01*
X68675Y25925D02*
Y26125D01*
X71125Y34875D02*
X71325D01*
X71225Y34775D02*
Y34975D01*
X51682Y25875D02*
X51882D01*
X51782Y25775D02*
Y25975D01*
X51175Y23425D02*
X51375D01*
X51275Y23325D02*
Y23525D01*
X49667Y23458D02*
X49867D01*
X49767Y23358D02*
Y23558D01*
X73100Y19100D02*
X73300D01*
X73200Y19000D02*
Y19200D01*
M02*
