G04 Layer_Color=65535*
%FSLAX43Y43*%
%MOMM*%
G71*
G01*
G75*
%ADD10C,0.200*%
%ADD19C,0.100*%
%ADD20C,0.254*%
D10*
X30700Y19325D02*
Y19725D01*
X30000Y19325D02*
Y19725D01*
X79280Y39455D02*
X84360D01*
Y41995D01*
X79280D02*
X84360D01*
X79280Y39455D02*
Y41995D01*
X71700Y30950D02*
Y31950D01*
X69900Y30950D02*
Y31950D01*
X70350Y27225D02*
X71350D01*
X73550Y20725D02*
Y21125D01*
X72850Y20725D02*
Y21125D01*
X9375Y19700D02*
Y20100D01*
X8675Y19700D02*
Y20100D01*
X52125Y19575D02*
Y19975D01*
X51425Y19575D02*
Y19975D01*
X79280Y36905D02*
X84360D01*
Y39445D01*
X79280D02*
X84360D01*
X79280Y36905D02*
Y39445D01*
X26642Y22362D02*
Y23362D01*
X25350Y21500D02*
X26350D01*
X25350Y19700D02*
X26350D01*
X6925Y30575D02*
X7925D01*
X6113Y30917D02*
Y31917D01*
X4313Y30917D02*
Y31917D01*
X48425Y21700D02*
Y22700D01*
X47100Y20850D02*
X48100D01*
X47100Y19050D02*
X48100D01*
D19*
X9727Y42874D02*
Y43873D01*
X10393Y42874D01*
Y43873D01*
X11226D02*
X10893D01*
X10726Y43707D01*
Y43040D01*
X10893Y42874D01*
X11226D01*
X11393Y43040D01*
Y43707D01*
X11226Y43873D01*
X11726Y42874D02*
Y43873D01*
X12226D01*
X12392Y43707D01*
Y43373D01*
X12226Y43207D01*
X11726D01*
X12059D02*
X12392Y42874D01*
X12726Y43873D02*
X13392D01*
X13059D01*
Y42874D01*
X13725Y43873D02*
Y42874D01*
Y43373D01*
X14392D01*
Y43873D01*
Y42874D01*
X50525Y49625D02*
X50358Y49791D01*
X50025D01*
X49858Y49625D01*
Y48958D01*
X50025Y48792D01*
X50358D01*
X50525Y48958D01*
Y49291D01*
X50192D01*
X50858Y48792D02*
Y49791D01*
X51358D01*
X51524Y49625D01*
Y49291D01*
X51358Y49125D01*
X50858D01*
X51858Y49791D02*
X52191D01*
X52024D01*
Y48792D01*
X51858D01*
X52191D01*
X53191Y49791D02*
X52857D01*
X52691Y49625D01*
Y48958D01*
X52857Y48792D01*
X53191D01*
X53357Y48958D01*
Y49625D01*
X53191Y49791D01*
X48100Y2550D02*
Y3550D01*
X48600D01*
X48766Y3383D01*
Y3050D01*
X48600Y2883D01*
X48100D01*
X49600Y3550D02*
X49266D01*
X49100Y3383D01*
Y2717D01*
X49266Y2550D01*
X49600D01*
X49766Y2717D01*
Y3383D01*
X49600Y3550D01*
X50099D02*
Y2550D01*
X50433Y2883D01*
X50766Y2550D01*
Y3550D01*
X51765D02*
X51099D01*
Y2550D01*
X51765D01*
X51099Y3050D02*
X51432D01*
X52099Y2550D02*
Y3550D01*
X52599D01*
X52765Y3383D01*
Y3050D01*
X52599Y2883D01*
X52099D01*
X52432D02*
X52765Y2550D01*
X34850Y14300D02*
X35516D01*
X35183D01*
Y13300D01*
X35850Y14300D02*
Y13300D01*
Y13800D01*
X36016Y13966D01*
X36350D01*
X36516Y13800D01*
Y13300D01*
X37349D02*
X37016D01*
X36849Y13467D01*
Y13800D01*
X37016Y13966D01*
X37349D01*
X37516Y13800D01*
Y13633D01*
X36849D01*
X38849Y13300D02*
Y14300D01*
X39349D01*
X39515Y14133D01*
Y13800D01*
X39349Y13633D01*
X38849D01*
X40015Y13966D02*
X40348D01*
X40515Y13800D01*
Y13300D01*
X40015D01*
X39848Y13467D01*
X40015Y13633D01*
X40515D01*
X40848Y13966D02*
Y13300D01*
Y13633D01*
X41015Y13800D01*
X41181Y13966D01*
X41348D01*
X41848Y13300D02*
X42348D01*
X42514Y13467D01*
X42348Y13633D01*
X42014D01*
X41848Y13800D01*
X42014Y13966D01*
X42514D01*
X43847Y14300D02*
Y13300D01*
X44347D01*
X44514Y13467D01*
Y13633D01*
X44347Y13800D01*
X43847D01*
X44347D01*
X44514Y13966D01*
Y14133D01*
X44347Y14300D01*
X43847D01*
X45013Y13300D02*
X45347D01*
X45513Y13467D01*
Y13800D01*
X45347Y13966D01*
X45013D01*
X44847Y13800D01*
Y13467D01*
X45013Y13300D01*
X46013Y13966D02*
X46346D01*
X46513Y13800D01*
Y13300D01*
X46013D01*
X45846Y13467D01*
X46013Y13633D01*
X46513D01*
X46846Y13966D02*
Y13300D01*
Y13633D01*
X47013Y13800D01*
X47179Y13966D01*
X47346D01*
X48512Y14300D02*
Y13300D01*
X48012D01*
X47846Y13467D01*
Y13800D01*
X48012Y13966D01*
X48512D01*
X49845D02*
X50178Y13300D01*
X50512Y13966D01*
X50845Y13300D02*
X51178D01*
X51011D01*
Y14300D01*
X50845Y14133D01*
X51678Y13300D02*
Y13467D01*
X51845D01*
Y13300D01*
X51678D01*
X52511Y14133D02*
X52678Y14300D01*
X53011D01*
X53177Y14133D01*
Y13467D01*
X53011Y13300D01*
X52678D01*
X52511Y13467D01*
Y14133D01*
X31775Y16900D02*
Y17900D01*
X32275D01*
X32441Y17733D01*
Y17400D01*
X32275Y17233D01*
X31775D01*
X32108D02*
X32441Y16900D01*
X32775D02*
X33108D01*
X32941D01*
Y17900D01*
X32775Y17733D01*
X76725Y40350D02*
Y41350D01*
X77225D01*
X77391Y41183D01*
Y40850D01*
X77225Y40683D01*
X76725D01*
X77725Y40517D02*
X77891Y40350D01*
X78225D01*
X78391Y40517D01*
Y41183D01*
X78225Y41350D01*
X77891D01*
X77725Y41183D01*
Y41016D01*
X77891Y40850D01*
X78391D01*
X68641Y28233D02*
X68475Y28400D01*
X68142D01*
X67975Y28233D01*
Y27567D01*
X68142Y27400D01*
X68475D01*
X68641Y27567D01*
X68975Y27400D02*
X69308D01*
X69141D01*
Y28400D01*
X68975Y28233D01*
X73091Y31833D02*
X72925Y32000D01*
X72592D01*
X72425Y31833D01*
Y31167D01*
X72592Y31000D01*
X72925D01*
X73091Y31167D01*
X74091Y31000D02*
X73425D01*
X74091Y31666D01*
Y31833D01*
X73925Y32000D01*
X73591D01*
X73425Y31833D01*
X75975Y52700D02*
Y53700D01*
X76475D01*
X76641Y53533D01*
Y53200D01*
X76475Y53033D01*
X75975D01*
X77641Y53700D02*
X76975D01*
Y53200D01*
X77308Y53366D01*
X77475D01*
X77641Y53200D01*
Y52867D01*
X77475Y52700D01*
X77141D01*
X76975Y52867D01*
X69975Y20575D02*
Y21575D01*
X70475D01*
X70641Y21408D01*
Y21075D01*
X70475Y20908D01*
X69975D01*
X70308D02*
X70641Y20575D01*
X71475D02*
Y21575D01*
X70975Y21075D01*
X71641D01*
X7700Y16950D02*
Y17950D01*
X8200D01*
X8366Y17783D01*
Y17450D01*
X8200Y17283D01*
X7700D01*
X8033D02*
X8366Y16950D01*
X8700Y17783D02*
X8866Y17950D01*
X9200D01*
X9366Y17783D01*
Y17616D01*
X9200Y17450D01*
X9033D01*
X9200D01*
X9366Y17283D01*
Y17117D01*
X9200Y16950D01*
X8866D01*
X8700Y17117D01*
X53175Y18525D02*
Y19525D01*
X53675D01*
X53841Y19358D01*
Y19025D01*
X53675Y18858D01*
X53175D01*
X53508D02*
X53841Y18525D01*
X54841D02*
X54175D01*
X54841Y19191D01*
Y19358D01*
X54675Y19525D01*
X54341D01*
X54175Y19358D01*
X75975Y37700D02*
Y38700D01*
X76475D01*
X76641Y38533D01*
Y38200D01*
X76475Y38033D01*
X75975D01*
X76975Y37700D02*
X77308D01*
X77141D01*
Y38700D01*
X76975Y38533D01*
X77808D02*
X77974Y38700D01*
X78308D01*
X78474Y38533D01*
Y37867D01*
X78308Y37700D01*
X77974D01*
X77808Y37867D01*
Y38533D01*
X33050Y7725D02*
Y8725D01*
X33550D01*
X33716Y8558D01*
Y8225D01*
X33550Y8058D01*
X33050D01*
X34050Y8558D02*
X34216Y8725D01*
X34550D01*
X34716Y8558D01*
Y8391D01*
X34550Y8225D01*
X34716Y8058D01*
Y7892D01*
X34550Y7725D01*
X34216D01*
X34050Y7892D01*
Y8058D01*
X34216Y8225D01*
X34050Y8391D01*
Y8558D01*
X34216Y8225D02*
X34550D01*
X33450Y51225D02*
Y52225D01*
X33950D01*
X34116Y52058D01*
Y51725D01*
X33950Y51558D01*
X33450D01*
X34450Y52225D02*
X35116D01*
Y52058D01*
X34450Y51392D01*
Y51225D01*
X75950Y7625D02*
Y8625D01*
X76450D01*
X76616Y8458D01*
Y8125D01*
X76450Y7958D01*
X75950D01*
X77616Y8625D02*
X77283Y8458D01*
X76950Y8125D01*
Y7792D01*
X77116Y7625D01*
X77450D01*
X77616Y7792D01*
Y7958D01*
X77450Y8125D01*
X76950D01*
X25066Y25058D02*
X24900Y25225D01*
X24567D01*
X24400Y25058D01*
Y24392D01*
X24567Y24225D01*
X24900D01*
X25066Y24392D01*
X25400Y25058D02*
X25566Y25225D01*
X25900D01*
X26066Y25058D01*
Y24891D01*
X25900Y24725D01*
X26066Y24558D01*
Y24392D01*
X25900Y24225D01*
X25566D01*
X25400Y24392D01*
Y24558D01*
X25566Y24725D01*
X25400Y24891D01*
Y25058D01*
X25566Y24725D02*
X25900D01*
X24541Y18633D02*
X24375Y18800D01*
X24042D01*
X23875Y18633D01*
Y17967D01*
X24042Y17800D01*
X24375D01*
X24541Y17967D01*
X24875Y18800D02*
X25541D01*
Y18633D01*
X24875Y17967D01*
Y17800D01*
X9791Y31883D02*
X9625Y32050D01*
X9292D01*
X9125Y31883D01*
Y31217D01*
X9292Y31050D01*
X9625D01*
X9791Y31217D01*
X10791Y32050D02*
X10458Y31883D01*
X10125Y31550D01*
Y31217D01*
X10291Y31050D01*
X10625D01*
X10791Y31217D01*
Y31383D01*
X10625Y31550D01*
X10125D01*
X4541Y35758D02*
X4375Y35925D01*
X4042D01*
X3875Y35758D01*
Y35092D01*
X4042Y34925D01*
X4375D01*
X4541Y35092D01*
X5541Y35925D02*
X4875D01*
Y35425D01*
X5208Y35591D01*
X5375D01*
X5541Y35425D01*
Y35092D01*
X5375Y34925D01*
X5041D01*
X4875Y35092D01*
X44916Y22508D02*
X44750Y22675D01*
X44417D01*
X44250Y22508D01*
Y21842D01*
X44417Y21675D01*
X44750D01*
X44916Y21842D01*
X45750Y21675D02*
Y22675D01*
X45250Y22175D01*
X45916D01*
X47366Y17808D02*
X47200Y17975D01*
X46867D01*
X46700Y17808D01*
Y17142D01*
X46867Y16975D01*
X47200D01*
X47366Y17142D01*
X47700Y17808D02*
X47866Y17975D01*
X48200D01*
X48366Y17808D01*
Y17641D01*
X48200Y17475D01*
X48033D01*
X48200D01*
X48366Y17308D01*
Y17142D01*
X48200Y16975D01*
X47866D01*
X47700Y17142D01*
X33966Y2858D02*
X33800Y3025D01*
X33467D01*
X33300Y2858D01*
Y2691D01*
X33467Y2525D01*
X33800D01*
X33966Y2358D01*
Y2192D01*
X33800Y2025D01*
X33467D01*
X33300Y2192D01*
X34800Y3025D02*
X34466D01*
X34300Y2858D01*
Y2192D01*
X34466Y2025D01*
X34800D01*
X34966Y2192D01*
Y2858D01*
X34800Y3025D01*
X35299D02*
Y2192D01*
X35466Y2025D01*
X35799D01*
X35966Y2192D01*
Y3025D01*
X36299D02*
X36965D01*
X36632D01*
Y2025D01*
X37299Y3025D02*
Y2025D01*
Y2525D01*
X37965D01*
Y3025D01*
Y2025D01*
X80010Y48260D02*
X86360D01*
X80010D02*
Y54610D01*
Y0D02*
Y6350D01*
X86360D01*
X0Y48260D02*
X6350D01*
Y54610D01*
Y0D02*
Y6350D01*
X0D02*
X6350D01*
D20*
X73926Y45473D02*
X74942Y46489D01*
X55638Y45473D02*
X73926D01*
X54622Y46489D02*
Y54236D01*
Y46489D02*
X55638Y45473D01*
X74942Y46489D02*
Y54236D01*
X54622D02*
X74942D01*
X30722Y253D02*
X31738Y1269D01*
X12434Y253D02*
X30722D01*
X11418Y1269D02*
Y9016D01*
Y1269D02*
X12434Y253D01*
X31738Y1269D02*
Y9016D01*
X11418D02*
X31738D01*
X30722Y45473D02*
X31738Y46489D01*
X12434Y45473D02*
X30722D01*
X11418Y46489D02*
Y54236D01*
Y46489D02*
X12434Y45473D01*
X31738Y46489D02*
Y54236D01*
X11418D02*
X31738D01*
X73926Y253D02*
X74942Y1269D01*
X55638Y253D02*
X73926D01*
X54622Y1269D02*
Y9016D01*
Y1269D02*
X55638Y253D01*
X74942Y1269D02*
Y9016D01*
X54622D02*
X74942D01*
X0Y54610D02*
X86360D01*
Y0D02*
Y54610D01*
X0Y0D02*
X86360D01*
X0D02*
Y54610D01*
M02*
