G04 Layer_Color=16711935*
%FSLAX43Y43*%
%MOMM*%
G71*
G01*
G75*
%ADD19C,0.100*%
%ADD20C,0.254*%
D19*
X30825Y18675D02*
Y20375D01*
X29875Y18675D02*
Y20375D01*
X30825D01*
X29875Y18675D02*
X30825D01*
X73675Y20075D02*
Y21775D01*
X72725Y20075D02*
Y21775D01*
X73675D01*
X72725Y20075D02*
X73675D01*
X9500Y19050D02*
Y20750D01*
X8550Y19050D02*
Y20750D01*
X9500D01*
X8550Y19050D02*
X9500D01*
X52250Y18925D02*
Y20625D01*
X51300Y18925D02*
Y20625D01*
X52250D01*
X51300Y18925D02*
X52250D01*
X64782Y49918D02*
Y50918D01*
X65282D01*
X65449Y50751D01*
Y50418D01*
X65282Y50251D01*
X64782D01*
X66449Y50918D02*
X65782D01*
Y50418D01*
X66115Y50584D01*
X66282D01*
X66449Y50418D01*
Y50085D01*
X66282Y49918D01*
X65949D01*
X65782Y50085D01*
X21578Y4698D02*
Y5698D01*
X22077D01*
X22244Y5531D01*
Y5198D01*
X22077Y5031D01*
X21578D01*
X22577Y5531D02*
X22744Y5698D01*
X23077D01*
X23244Y5531D01*
Y5364D01*
X23077Y5198D01*
X23244Y5031D01*
Y4865D01*
X23077Y4698D01*
X22744D01*
X22577Y4865D01*
Y5031D01*
X22744Y5198D01*
X22577Y5364D01*
Y5531D01*
X22744Y5198D02*
X23077D01*
X21578Y49918D02*
Y50918D01*
X22077D01*
X22244Y50751D01*
Y50418D01*
X22077Y50251D01*
X21578D01*
X22577Y50918D02*
X23244D01*
Y50751D01*
X22577Y50085D01*
Y49918D01*
X64782Y4698D02*
Y5698D01*
X65282D01*
X65449Y5531D01*
Y5198D01*
X65282Y5031D01*
X64782D01*
X66449Y5698D02*
X66115Y5531D01*
X65782Y5198D01*
Y4865D01*
X65949Y4698D01*
X66282D01*
X66449Y4865D01*
Y5031D01*
X66282Y5198D01*
X65782D01*
X80010Y48260D02*
X86360D01*
X80010D02*
Y54610D01*
Y0D02*
Y6350D01*
X86360D01*
X0Y48260D02*
X6350D01*
Y54610D01*
Y0D02*
Y6350D01*
X0D02*
X6350D01*
D20*
X56339Y47950D02*
Y51887D01*
Y47950D02*
X73226D01*
Y51887D01*
X56339D02*
X73226D01*
X54783Y48133D02*
Y52903D01*
Y48133D02*
X55982Y46933D01*
X73582D01*
X74782Y48133D01*
Y52903D01*
X54783D02*
X74782D01*
X13134Y2730D02*
Y6667D01*
Y2730D02*
X30021D01*
Y6667D01*
X13134D02*
X30021D01*
X11578Y2914D02*
Y7682D01*
Y2914D02*
X12778Y1714D01*
X30378D01*
X31577Y2914D01*
Y7682D01*
X11578D02*
X31577D01*
X13134Y47950D02*
Y51887D01*
Y47950D02*
X30021D01*
Y51887D01*
X13134D02*
X30021D01*
X11578Y48133D02*
Y52903D01*
Y48133D02*
X12778Y46933D01*
X30378D01*
X31577Y48133D01*
Y52903D01*
X11578D02*
X31577D01*
X56339Y2730D02*
Y6667D01*
Y2730D02*
X73226D01*
Y6667D01*
X56339D02*
X73226D01*
X54783Y2914D02*
Y7682D01*
Y2914D02*
X55982Y1714D01*
X73582D01*
X74782Y2914D01*
Y7682D01*
X54783D02*
X74782D01*
X0Y54610D02*
X86360D01*
Y0D02*
Y54610D01*
X0Y0D02*
X86360D01*
X0D02*
Y54610D01*
M02*
