G04 Layer_Physical_Order=5*
G04 Layer_Color=128*
%FSLAX43Y43*%
%MOMM*%
G71*
G01*
G75*
%ADD10C,0.100*%
%ADD47C,0.300*%
%ADD52C,0.400*%
%ADD53C,1.000*%
%ADD54C,1.200*%
%ADD55C,1.900*%
%ADD56C,1.216*%
%ADD57C,3.375*%
%ADD60C,0.254*%
D10*
X95000Y-10000D02*
Y120000D01*
X-10000D02*
X95000D01*
X-10000Y-10000D02*
Y120000D01*
Y-10000D02*
X95000D01*
D47*
X6600Y33900D02*
X14475D01*
Y38925D01*
Y43575D01*
X18450D01*
X31200Y30825D01*
X45125D01*
X48325Y34025D01*
X31450Y26450D02*
X35225D01*
X26525Y31375D02*
X31450Y26450D01*
X6600Y31375D02*
X26525D01*
X6600D02*
Y33900D01*
X57000Y23875D02*
Y26602D01*
X57775Y18000D02*
X61200Y21425D01*
Y25875D02*
X66801D01*
X33500Y22200D02*
X46125D01*
X33500Y1450D02*
Y22200D01*
X62875Y28975D02*
Y29875D01*
Y28975D02*
X65050D01*
X62838Y33100D02*
X67912D01*
X48550Y14125D02*
X59175D01*
X48550Y-7075D02*
Y14125D01*
X40625Y-7075D02*
X48550D01*
X40625D02*
Y-75D01*
X46150Y5100D02*
Y16081D01*
X60925Y32025D02*
Y33100D01*
X48775Y28875D02*
X50900Y31000D01*
X55775D01*
X46350Y26450D02*
X48775Y28875D01*
X35225Y26450D02*
X46350D01*
X57000Y26602D02*
Y29775D01*
X55775Y31000D02*
X57000Y29775D01*
X46125Y18000D02*
X57775D01*
X47075Y28200D02*
X50431D01*
X46150Y16081D02*
Y18000D01*
X48069D01*
X60925Y32025D02*
X63925D01*
X57000Y23875D02*
X58475D01*
Y26925D01*
X60075D01*
Y28925D01*
X58050Y30950D02*
X60075Y28925D01*
X56500Y32500D02*
X58050Y30950D01*
X50600Y32500D02*
X56500D01*
X45975Y27875D02*
X50600Y32500D01*
X36601Y27875D02*
X45975D01*
X36601Y26450D02*
Y27875D01*
X46125Y22175D02*
X47825Y23875D01*
X57000D01*
X40625Y-75D02*
X46150D01*
Y5100D01*
X60075Y26925D02*
X60150D01*
X57000Y23875D02*
Y25075D01*
X60925Y33100D02*
X61438D01*
X62838D01*
X65050Y28975D02*
Y30500D01*
X66226Y31050D02*
Y32000D01*
X65050D02*
X66226D01*
X65050Y30500D02*
Y32000D01*
X67600Y33100D02*
X69925D01*
Y32100D02*
Y33100D01*
X65688Y24900D02*
X71175D01*
X62775Y23050D02*
X65688D01*
X62775Y16800D02*
Y23050D01*
X65688D02*
Y24900D01*
X69775Y25875D02*
X70924Y27024D01*
X66801Y25875D02*
X69775D01*
X63925Y30925D02*
Y32025D01*
X62875Y29875D02*
X63925Y30925D01*
X58900Y32475D02*
X59350Y32025D01*
X61125D01*
X57550Y33825D02*
X58900Y32475D01*
X48325Y34025D02*
X57350D01*
X57550Y33825D01*
X72700Y26425D02*
Y26950D01*
X71175Y24900D02*
X72700Y26425D01*
X68100Y30125D02*
Y31050D01*
Y30125D02*
X68125Y30100D01*
X66226Y31050D02*
X67325D01*
X67874D01*
X68100D01*
X68125Y30100D02*
X70924D01*
Y27024D02*
Y30100D01*
X72700Y26800D02*
Y32100D01*
X69925D02*
X72700D01*
X23400Y4900D02*
X31450D01*
X23375Y4925D02*
X23400Y4900D01*
X23375Y4925D02*
Y7825D01*
X19275D02*
X23375D01*
X19250Y7800D02*
X19275Y7825D01*
X19250Y5475D02*
Y7800D01*
Y5475D02*
X20975D01*
Y1450D02*
Y5475D01*
Y1450D02*
X33500D01*
X31450Y4900D02*
Y26450D01*
X62775Y16800D02*
X87500D01*
Y15000D02*
Y16800D01*
X60150Y15000D02*
X87500D01*
X59175Y14125D02*
X60050Y15000D01*
X60150D01*
X61200Y21425D02*
Y23825D01*
X60150Y26925D02*
X61075Y26000D01*
X73500Y39500D02*
X73500Y39500D01*
D52*
X22772Y5535D02*
D03*
X23972D02*
D03*
Y4335D02*
D03*
X22772D02*
D03*
X8850Y22900D02*
D03*
X8150D02*
D03*
Y22300D02*
D03*
Y21000D02*
D03*
X8850D02*
D03*
Y22300D02*
D03*
Y21600D02*
D03*
X8150D02*
D03*
X7650Y16500D02*
D03*
Y15900D02*
D03*
Y17100D02*
D03*
X7050D02*
D03*
X6450D02*
D03*
X5850D02*
D03*
X5250D02*
D03*
X4650D02*
D03*
X4050D02*
D03*
X3450D02*
D03*
X2850D02*
D03*
X7650Y15300D02*
D03*
X7050D02*
D03*
X6450D02*
D03*
X5850D02*
D03*
X5250D02*
D03*
X4650D02*
D03*
X4050D02*
D03*
X3450D02*
D03*
X2850Y16500D02*
D03*
Y15900D02*
D03*
Y15300D02*
D03*
X5250Y16500D02*
D03*
Y15900D02*
D03*
X15025Y36850D02*
D03*
Y37550D02*
D03*
X14425D02*
D03*
X13125D02*
D03*
Y36850D02*
D03*
X14425D02*
D03*
X13725D02*
D03*
Y37550D02*
D03*
X8625Y38050D02*
D03*
X8025D02*
D03*
X9225D02*
D03*
Y38650D02*
D03*
Y39250D02*
D03*
Y39850D02*
D03*
Y40450D02*
D03*
Y41050D02*
D03*
Y41650D02*
D03*
Y42250D02*
D03*
Y42850D02*
D03*
X7425Y38050D02*
D03*
Y38650D02*
D03*
Y39250D02*
D03*
Y39850D02*
D03*
Y40450D02*
D03*
Y41050D02*
D03*
Y41650D02*
D03*
Y42250D02*
D03*
X8625Y42850D02*
D03*
X8025D02*
D03*
X7425D02*
D03*
X8625Y40450D02*
D03*
X8025D02*
D03*
X44400Y85850D02*
D03*
X6450Y102325D02*
D03*
X69325Y87100D02*
D03*
X65575Y84625D02*
D03*
Y75325D02*
D03*
X50300Y113950D02*
D03*
X65550Y114450D02*
D03*
X65200Y106200D02*
D03*
X64500Y4100D02*
D03*
X64000D02*
D03*
X59600Y6350D02*
D03*
X2200Y27725D02*
D03*
X2525Y36725D02*
D03*
X2575Y38300D02*
D03*
X8025Y37150D02*
D03*
X39875Y33575D02*
D03*
X60600Y34500D02*
D03*
X78125Y13800D02*
D03*
X4450Y110300D02*
D03*
X3650Y110688D02*
D03*
X2890Y111085D02*
D03*
X2050Y111800D02*
D03*
X1251Y112499D02*
D03*
X62000Y36000D02*
D03*
X61500Y35500D02*
D03*
X61000Y34000D02*
D03*
X59500Y33500D02*
D03*
X62000Y32000D02*
D03*
X51525Y105550D02*
D03*
X50300Y106075D02*
D03*
X49525Y106125D02*
D03*
X48725Y106100D02*
D03*
X51425Y74425D02*
D03*
X47925Y106125D02*
D03*
X47125Y107800D02*
D03*
X46325Y108250D02*
D03*
X49500Y108600D02*
D03*
X48725Y108725D02*
D03*
X47950Y110425D02*
D03*
X47125Y110925D02*
D03*
X46300Y111425D02*
D03*
X67500Y34500D02*
D03*
X67000Y36000D02*
D03*
X66525Y37475D02*
D03*
X66500Y36500D02*
D03*
X66000Y32000D02*
D03*
Y34000D02*
D03*
X65500Y33500D02*
D03*
X64475Y33375D02*
D03*
X64500Y36500D02*
D03*
Y34500D02*
D03*
X63978Y35002D02*
D03*
X25325Y20400D02*
D03*
X6800Y36725D02*
D03*
X39775Y-1775D02*
D03*
X27975Y17900D02*
D03*
X29000Y17900D02*
D03*
X1125Y13876D02*
D03*
X68000Y33000D02*
D03*
X70000Y37000D02*
D03*
X72000Y41000D02*
D03*
X32025Y32475D02*
D03*
X65000Y31000D02*
D03*
X43800Y40450D02*
D03*
X70000Y40000D02*
D03*
X68000Y42750D02*
D03*
X69000D02*
D03*
X68000Y40000D02*
D03*
X69000D02*
D03*
X75000Y43000D02*
D03*
X75000Y42000D02*
D03*
X71000Y42625D02*
D03*
X70000Y25000D02*
D03*
Y32000D02*
D03*
X80775Y84150D02*
D03*
X73500Y25500D02*
D03*
X75500Y41500D02*
D03*
X77452Y40227D02*
D03*
X77875Y39775D02*
D03*
X76675Y43400D02*
D03*
X75500Y76950D02*
D03*
X75475Y77600D02*
D03*
Y78200D02*
D03*
Y78800D02*
D03*
X74500Y38525D02*
D03*
X79875Y71425D02*
D03*
X75525Y29475D02*
D03*
X79875Y72525D02*
D03*
X76500Y26450D02*
D03*
X79850Y73425D02*
D03*
X77479Y30201D02*
D03*
X79804Y78404D02*
D03*
X79850Y74775D02*
D03*
X77700Y29525D02*
D03*
X79875Y75775D02*
D03*
X78275Y26000D02*
D03*
X80850Y75800D02*
D03*
X78800Y24975D02*
D03*
X82075Y75800D02*
D03*
X80750Y114075D02*
D03*
X80850Y105875D02*
D03*
X80675Y107750D02*
D03*
X81863Y108650D02*
D03*
X82275Y110250D02*
D03*
X79875D02*
D03*
X79075D02*
D03*
X78275D02*
D03*
X77475D02*
D03*
X76675D02*
D03*
X75875D02*
D03*
Y107750D02*
D03*
X76675D02*
D03*
X77475D02*
D03*
X78275D02*
D03*
X79075D02*
D03*
X79875D02*
D03*
X81875D02*
D03*
X82263Y106150D02*
D03*
X75775Y44675D02*
D03*
X75904Y105630D02*
D03*
X76700Y44125D02*
D03*
Y105625D02*
D03*
X77450Y41900D02*
D03*
Y105625D02*
D03*
X78050Y27225D02*
D03*
X78229Y105655D02*
D03*
X79050Y37450D02*
D03*
Y105675D02*
D03*
X80275Y105875D02*
D03*
X81469Y105881D02*
D03*
X76250Y45200D02*
D03*
X76275Y108400D02*
D03*
X77100Y40600D02*
D03*
X77069Y108406D02*
D03*
X77875Y108400D02*
D03*
X78075Y28475D02*
D03*
X78675Y108425D02*
D03*
X79450Y39000D02*
D03*
X79475Y108425D02*
D03*
X16825Y45370D02*
D03*
X19325D02*
D03*
X21825D02*
D03*
X24325D02*
D03*
X26825D02*
D03*
X24325Y51542D02*
D03*
X21825D02*
D03*
X19325D02*
D03*
X16825D02*
D03*
X67025Y6400D02*
D03*
X70029Y6322D02*
D03*
X65029D02*
D03*
X62535Y9246D02*
D03*
X60029Y150D02*
D03*
X62529D02*
D03*
X65029D02*
D03*
X67529D02*
D03*
X70029D02*
D03*
X16831Y9246D02*
D03*
X19331D02*
D03*
X21831D02*
D03*
X26831D02*
D03*
X24331D02*
D03*
X26822Y263D02*
D03*
X24325Y150D02*
D03*
X21825D02*
D03*
X19325D02*
D03*
X16825D02*
D03*
X82200Y40075D02*
D03*
X88075Y36800D02*
D03*
X57525Y6650D02*
D03*
Y2925D02*
D03*
X65250Y14275D02*
D03*
X65750D02*
D03*
X67150Y13475D02*
D03*
X67650D02*
D03*
X67250Y5025D02*
D03*
X67750D02*
D03*
X64275Y17025D02*
D03*
X63775D02*
D03*
X62075Y5025D02*
D03*
X61575D02*
D03*
X65850Y5500D02*
D03*
X65350D02*
D03*
X69532Y3050D02*
D03*
X69032D02*
D03*
X62750Y12000D02*
D03*
X62250D02*
D03*
X61025Y10800D02*
D03*
X60525D02*
D03*
X60250Y5775D02*
D03*
X60750D02*
D03*
X66750Y4250D02*
D03*
X66250D02*
D03*
X61750Y12300D02*
D03*
X61250D02*
D03*
X57000Y20000D02*
D03*
X60500Y21500D02*
D03*
X67000Y20000D02*
D03*
X66500Y23500D02*
D03*
X61500Y25500D02*
D03*
X54000Y31000D02*
D03*
X55500Y31500D02*
D03*
X56500D02*
D03*
X57500D02*
D03*
X59500D02*
D03*
Y30500D02*
D03*
X58500D02*
D03*
X56500Y29500D02*
D03*
X54000Y25000D02*
D03*
Y23000D02*
D03*
Y22000D02*
D03*
X55500Y22500D02*
D03*
X56500D02*
D03*
X57500D02*
D03*
Y23500D02*
D03*
X58500D02*
D03*
X56500Y25500D02*
D03*
X54000Y27000D02*
D03*
Y29000D02*
D03*
X57500Y32500D02*
D03*
Y27500D02*
D03*
X58500Y26500D02*
D03*
Y27500D02*
D03*
X59500Y24500D02*
D03*
X60500D02*
D03*
Y25500D02*
D03*
X61500Y24500D02*
D03*
X61500Y26500D02*
D03*
X62500D02*
D03*
X61500Y27500D02*
D03*
Y28500D02*
D03*
X62500D02*
D03*
X63500Y27500D02*
D03*
X64500Y26500D02*
D03*
Y24500D02*
D03*
X62000Y20000D02*
D03*
X65500Y21500D02*
D03*
X72000Y20000D02*
D03*
X68500Y22500D02*
D03*
X71500Y24500D02*
D03*
X73500Y27500D02*
D03*
Y24500D02*
D03*
X77000Y29000D02*
D03*
X66500Y26500D02*
D03*
X65500Y27500D02*
D03*
X67500D02*
D03*
X69500D02*
D03*
X68500Y28500D02*
D03*
X64500D02*
D03*
X65500D02*
D03*
Y29500D02*
D03*
Y30500D02*
D03*
X64500D02*
D03*
X63500D02*
D03*
X61500D02*
D03*
Y29500D02*
D03*
Y31500D02*
D03*
X62500D02*
D03*
X60500Y33500D02*
D03*
X64500Y35500D02*
D03*
X62500Y38500D02*
D03*
X59500Y37500D02*
D03*
X69500Y40500D02*
D03*
X65000Y43000D02*
D03*
X61500Y41500D02*
D03*
X58500Y40500D02*
D03*
X56500Y36500D02*
D03*
X55500Y39500D02*
D03*
X54000Y42000D02*
D03*
X77000Y39000D02*
D03*
X73500Y38500D02*
D03*
X74500Y35500D02*
D03*
X71500Y34500D02*
D03*
X70500Y37500D02*
D03*
X68500Y30500D02*
D03*
X69500D02*
D03*
Y31500D02*
D03*
X72500Y30500D02*
D03*
X69500Y29500D02*
D03*
X75500Y21500D02*
D03*
X68500Y33500D02*
D03*
X-8825Y53575D02*
D03*
X-3405Y45395D02*
D03*
X-3075Y40950D02*
D03*
Y44100D02*
D03*
X-4375Y33450D02*
D03*
X-3075Y34975D02*
D03*
X2125Y25375D02*
D03*
X4300Y27725D02*
D03*
X4050Y25375D02*
D03*
X1775Y11450D02*
D03*
X1750Y10700D02*
D03*
Y10000D02*
D03*
X4600Y10700D02*
D03*
Y11450D02*
D03*
X4625Y9850D02*
D03*
X7350Y10700D02*
D03*
X8125Y11550D02*
D03*
X2350Y12425D02*
D03*
X2850Y13675D02*
D03*
X3350Y14000D02*
D03*
X3850Y13675D02*
D03*
X4350Y12425D02*
D03*
X4850Y13675D02*
D03*
X5350Y12375D02*
D03*
X5850Y13650D02*
D03*
X6350Y12375D02*
D03*
X14550Y13125D02*
D03*
X9175Y15400D02*
D03*
X8875Y17900D02*
D03*
Y18400D02*
D03*
Y16400D02*
D03*
X13050Y23350D02*
D03*
X11250D02*
D03*
X10400Y22900D02*
D03*
Y22400D02*
D03*
Y21900D02*
D03*
Y21400D02*
D03*
Y20900D02*
D03*
X9350Y24375D02*
D03*
X8850D02*
D03*
X8350D02*
D03*
X7850D02*
D03*
X1125Y16900D02*
D03*
Y15900D02*
D03*
Y14900D02*
D03*
X3675Y31350D02*
D03*
X9600Y27200D02*
D03*
X9575Y29825D02*
D03*
X13750Y28875D02*
D03*
Y28100D02*
D03*
X9175Y14900D02*
D03*
X15025Y35125D02*
D03*
X14025D02*
D03*
X13025D02*
D03*
X16750Y36850D02*
D03*
Y37850D02*
D03*
X9025Y44575D02*
D03*
X7025D02*
D03*
X8025D02*
D03*
X6025D02*
D03*
X5950Y42850D02*
D03*
Y41850D02*
D03*
Y40850D02*
D03*
Y39850D02*
D03*
X5125Y44175D02*
D03*
X20675Y41025D02*
D03*
X19675D02*
D03*
X16925Y43000D02*
D03*
X17925D02*
D03*
X26125Y16425D02*
D03*
X29775Y16425D02*
D03*
X28750Y14850D02*
D03*
X27100Y14850D02*
D03*
X27950Y17250D02*
D03*
X26250Y22950D02*
D03*
X27975D02*
D03*
X29500D02*
D03*
X27100Y13250D02*
D03*
X28525Y5750D02*
D03*
X19375Y4300D02*
D03*
X17622Y4810D02*
D03*
X34975Y-4475D02*
D03*
X36875Y-6400D02*
D03*
X37800Y-5400D02*
D03*
X40375Y-6375D02*
D03*
X41550Y-6475D02*
D03*
X38950Y-4708D02*
D03*
Y-4058D02*
D03*
X40875Y-2400D02*
D03*
X40875Y-5066D02*
D03*
X42800Y-4708D02*
D03*
Y-4058D02*
D03*
X44150Y-5400D02*
D03*
X45925D02*
D03*
X44250Y1975D02*
D03*
X42028Y14296D02*
D03*
X46203D02*
D03*
X51203Y15120D02*
D03*
X90475Y350D02*
D03*
X91054Y5835D02*
D03*
X89174Y9646D02*
D03*
X87475Y12325D02*
D03*
X87425Y10375D02*
D03*
X77425Y10696D02*
D03*
X79325Y11050D02*
D03*
X92900Y23050D02*
D03*
Y24975D02*
D03*
X92875Y27000D02*
D03*
X92825Y29000D02*
D03*
Y30950D02*
D03*
X92800Y32975D02*
D03*
X30575Y41250D02*
D03*
X84775Y35725D02*
D03*
X91850Y39125D02*
D03*
X91850Y40608D02*
D03*
Y43742D02*
D03*
Y46875D02*
D03*
X79850Y58950D02*
D03*
X87675Y86000D02*
D03*
X85250D02*
D03*
X58416Y85823D02*
D03*
X56016Y85823D02*
D03*
X9185Y86223D02*
D03*
X11585Y86223D02*
D03*
X85460Y116623D02*
D03*
X89186D02*
D03*
X12075Y19225D02*
D03*
X13875D02*
D03*
X42742Y-3408D02*
D03*
X42200Y-1725D02*
D03*
X7525Y36775D02*
D03*
X8425Y13950D02*
D03*
X8900Y10525D02*
D03*
X60500Y27500D02*
D03*
X52300Y27400D02*
D03*
X55550Y12775D02*
D03*
X56050D02*
D03*
X58975Y12375D02*
D03*
X59475D02*
D03*
X57600Y11675D02*
D03*
X58250Y6075D02*
D03*
X58750D02*
D03*
X65500Y39500D02*
D03*
X66500Y35500D02*
D03*
X56000Y38000D02*
D03*
X81775Y10375D02*
D03*
X65500Y34500D02*
D03*
X59000Y30000D02*
D03*
X61000Y26000D02*
D03*
X82250Y8400D02*
D03*
X76775Y11500D02*
D03*
X65000Y24000D02*
D03*
X36787Y104425D02*
D03*
X63000Y33000D02*
D03*
X64000Y32000D02*
D03*
X39125Y86825D02*
D03*
X26350Y50100D02*
D03*
X35375Y39950D02*
D03*
X36575Y33525D02*
D03*
X5075Y75075D02*
D03*
X5025Y84975D02*
D03*
X54025Y31875D02*
D03*
X57100Y11675D02*
D03*
X45175Y36075D02*
D03*
X73275Y87100D02*
D03*
X80175Y37825D02*
D03*
X80550Y39050D02*
D03*
X80225Y41250D02*
D03*
X36050Y104425D02*
D03*
X76075Y43200D02*
D03*
X72404Y41502D02*
D03*
X23625Y83625D02*
D03*
X28400Y83650D02*
D03*
X34652Y35398D02*
D03*
X40725Y43400D02*
D03*
X5250Y105975D02*
D03*
X5050Y114475D02*
D03*
X20273Y106000D02*
D03*
X20100Y114500D02*
D03*
X35350Y114375D02*
D03*
X76000Y36000D02*
D03*
X20250Y75975D02*
D03*
X20250Y84800D02*
D03*
X50000Y85075D02*
D03*
X35875Y76075D02*
D03*
X35375Y85100D02*
D03*
X72500Y35500D02*
D03*
X83504Y41027D02*
D03*
X75000Y35000D02*
D03*
X81150Y35375D02*
D03*
X70500Y25500D02*
D03*
X65500Y32500D02*
D03*
X73475Y32000D02*
D03*
X68032Y3375D02*
D03*
X68553Y3375D02*
D03*
X71575Y4900D02*
D03*
X72075D02*
D03*
X67632Y17225D02*
D03*
X68132D02*
D03*
X68032Y10525D02*
D03*
X68532D02*
D03*
X63050Y4800D02*
D03*
X63550D02*
D03*
X69950Y15375D02*
D03*
X70450D02*
D03*
X53875Y116525D02*
D03*
X55600Y116500D02*
D03*
X8175Y116525D02*
D03*
X11075Y115575D02*
D03*
X23225Y116700D02*
D03*
X24950D02*
D03*
X38525D02*
D03*
X40400Y116675D02*
D03*
X69700D02*
D03*
X72950Y116625D02*
D03*
X800Y16425D02*
D03*
X850Y15400D02*
D03*
X825Y14400D02*
D03*
X6525Y44900D02*
D03*
X7525Y44875D02*
D03*
X8500D02*
D03*
X9525D02*
D03*
X2850Y41625D02*
D03*
X2150Y41675D02*
D03*
X3500Y41650D02*
D03*
X2875Y41050D02*
D03*
X3550Y41000D02*
D03*
X2150Y41025D02*
D03*
X17125Y37350D02*
D03*
X17150Y36350D02*
D03*
X14525Y34750D02*
D03*
X13575Y34725D02*
D03*
X17425Y43350D02*
D03*
X20200Y40675D02*
D03*
X6275Y42325D02*
D03*
Y41350D02*
D03*
X6250Y40350D02*
D03*
Y39350D02*
D03*
X-8400Y-7625D02*
D03*
X-7400Y-5625D02*
D03*
X-8400Y-3625D02*
D03*
X-7400Y-1625D02*
D03*
X-8400Y375D02*
D03*
X-7400Y2375D02*
D03*
X-8400Y4375D02*
D03*
X-7400Y6375D02*
D03*
X-8400Y8375D02*
D03*
X-7400Y10375D02*
D03*
X-8400Y12375D02*
D03*
X-7400Y14375D02*
D03*
X-8400Y16375D02*
D03*
X-7400Y18375D02*
D03*
X-8400Y20375D02*
D03*
X-7400Y22375D02*
D03*
X-8400Y24375D02*
D03*
Y36375D02*
D03*
Y40375D02*
D03*
Y44375D02*
D03*
Y48375D02*
D03*
Y52375D02*
D03*
X-7400Y58375D02*
D03*
X-8400Y60375D02*
D03*
X-7400Y62375D02*
D03*
X-8400Y64375D02*
D03*
X-7400Y66375D02*
D03*
X-8400Y68375D02*
D03*
X-7400Y70375D02*
D03*
X-8400Y72375D02*
D03*
X-7400Y74375D02*
D03*
X-8400Y76375D02*
D03*
X-7400Y78375D02*
D03*
X-8400Y80375D02*
D03*
X-7400Y82375D02*
D03*
X-8400Y84375D02*
D03*
X-7400Y86375D02*
D03*
X-8400Y88375D02*
D03*
X-7400Y90375D02*
D03*
X-8400Y92375D02*
D03*
X-7400Y94375D02*
D03*
X-8400Y96375D02*
D03*
X-7400Y98375D02*
D03*
X-8400Y100375D02*
D03*
X-7400Y102375D02*
D03*
X-8400Y104375D02*
D03*
X-7400Y106375D02*
D03*
X-8400Y108375D02*
D03*
X-7400Y110375D02*
D03*
X-8400Y112375D02*
D03*
X-7400Y114375D02*
D03*
X-8400Y116375D02*
D03*
X-7400Y118375D02*
D03*
X-6400Y-7625D02*
D03*
X-5400Y-5625D02*
D03*
X-6400Y-3625D02*
D03*
X-5400Y-1625D02*
D03*
X-6400Y375D02*
D03*
X-5400Y2375D02*
D03*
X-6400Y4375D02*
D03*
X-5400Y6375D02*
D03*
X-6400Y8375D02*
D03*
X-5400Y10375D02*
D03*
X-6400Y12375D02*
D03*
X-5400Y14375D02*
D03*
X-6400Y16375D02*
D03*
X-5400Y18375D02*
D03*
X-6400Y20375D02*
D03*
Y24375D02*
D03*
Y32375D02*
D03*
X-5400Y34375D02*
D03*
X-6400Y36375D02*
D03*
X-5400Y38375D02*
D03*
X-6400Y40375D02*
D03*
X-5400Y46375D02*
D03*
X-6400Y48375D02*
D03*
X-5400Y50375D02*
D03*
X-6400Y52375D02*
D03*
Y56375D02*
D03*
X-5400Y58375D02*
D03*
X-6400Y60375D02*
D03*
X-5400Y62375D02*
D03*
X-6400Y64375D02*
D03*
X-5400Y66375D02*
D03*
X-6400Y68375D02*
D03*
X-5400Y70375D02*
D03*
X-6400Y72375D02*
D03*
X-5400Y74375D02*
D03*
X-6400Y76375D02*
D03*
X-5400Y78375D02*
D03*
X-6400Y80375D02*
D03*
X-5400Y82375D02*
D03*
X-6400Y84375D02*
D03*
X-5400Y86375D02*
D03*
X-6400Y88375D02*
D03*
X-5400Y90375D02*
D03*
X-6400Y92375D02*
D03*
X-5400Y94375D02*
D03*
X-6400Y96375D02*
D03*
X-5400Y98375D02*
D03*
X-6400Y100375D02*
D03*
X-5400Y102375D02*
D03*
X-6400Y104375D02*
D03*
X-5400Y106375D02*
D03*
X-6400Y108375D02*
D03*
X-5400Y110375D02*
D03*
X-6400Y112375D02*
D03*
X-5400Y114375D02*
D03*
X-6400Y116375D02*
D03*
X-5400Y118375D02*
D03*
X-4400Y-7625D02*
D03*
X-3400Y-5625D02*
D03*
X-4400Y-3625D02*
D03*
X-3400Y-1625D02*
D03*
X-4400Y375D02*
D03*
X-3400Y2375D02*
D03*
X-4400Y4375D02*
D03*
X-3400Y6375D02*
D03*
X-4400Y8375D02*
D03*
X-3400Y10375D02*
D03*
X-4400Y12375D02*
D03*
X-3400Y14375D02*
D03*
X-4400Y16375D02*
D03*
X-3400Y18375D02*
D03*
X-4400Y20375D02*
D03*
X-3400Y22375D02*
D03*
X-4400Y24375D02*
D03*
Y32375D02*
D03*
Y36375D02*
D03*
X-3400Y38375D02*
D03*
X-4400Y40375D02*
D03*
Y44375D02*
D03*
X-3400Y46375D02*
D03*
X-4400Y48375D02*
D03*
X-3400Y50375D02*
D03*
X-4400Y52375D02*
D03*
Y56375D02*
D03*
X-3400Y58375D02*
D03*
X-4400Y60375D02*
D03*
X-3400Y62375D02*
D03*
X-4400Y64375D02*
D03*
X-3400Y66375D02*
D03*
X-4400Y68375D02*
D03*
X-3400Y70375D02*
D03*
X-4400Y72375D02*
D03*
X-3400Y74375D02*
D03*
X-4400Y76375D02*
D03*
X-3400Y78375D02*
D03*
X-4400Y80375D02*
D03*
X-3400Y82375D02*
D03*
X-4400Y84375D02*
D03*
X-3400Y86375D02*
D03*
X-4400Y88375D02*
D03*
X-3400Y90375D02*
D03*
X-4400Y92375D02*
D03*
X-3400Y94375D02*
D03*
X-4400Y96375D02*
D03*
X-3400Y98375D02*
D03*
X-4400Y100375D02*
D03*
X-3400Y102375D02*
D03*
X-4400Y104375D02*
D03*
X-3400Y106375D02*
D03*
X-4400Y108375D02*
D03*
X-3400Y110375D02*
D03*
X-4400Y112375D02*
D03*
X-3400Y114375D02*
D03*
X-4400Y116375D02*
D03*
X-3400Y118375D02*
D03*
X-2400Y-7625D02*
D03*
X-1400Y-5625D02*
D03*
X-2400Y-3625D02*
D03*
X-1400Y-1625D02*
D03*
X-2400Y375D02*
D03*
X-1400Y2375D02*
D03*
X-2400Y4375D02*
D03*
X-1400Y6375D02*
D03*
X-2400Y8375D02*
D03*
X-1400Y10375D02*
D03*
X-2400Y12375D02*
D03*
X-1400Y14375D02*
D03*
X-2400Y16375D02*
D03*
X-1400Y18375D02*
D03*
X-2400Y20375D02*
D03*
X-1400Y22375D02*
D03*
X-2400Y24375D02*
D03*
Y36375D02*
D03*
Y40375D02*
D03*
X-1400Y42375D02*
D03*
X-2400Y44375D02*
D03*
X-1400Y46375D02*
D03*
X-2400Y48375D02*
D03*
X-1400Y50375D02*
D03*
X-2400Y52375D02*
D03*
X-1400Y54375D02*
D03*
Y58375D02*
D03*
X-2400Y60375D02*
D03*
X-1400Y62375D02*
D03*
X-2400Y64375D02*
D03*
X-1400Y66375D02*
D03*
X-2400Y68375D02*
D03*
X-1400Y70375D02*
D03*
X-2400Y72375D02*
D03*
X-1400Y74375D02*
D03*
X-2400Y76375D02*
D03*
X-1400Y78375D02*
D03*
Y90375D02*
D03*
X-2400Y92375D02*
D03*
X-1400Y94375D02*
D03*
X-2400Y96375D02*
D03*
X-1400Y98375D02*
D03*
X-2400Y100375D02*
D03*
X-1400Y102375D02*
D03*
X-2400Y104375D02*
D03*
X-1400Y106375D02*
D03*
X-2400Y108375D02*
D03*
X-1400Y110375D02*
D03*
X-2400Y112375D02*
D03*
X-1400Y114375D02*
D03*
X-2400Y116375D02*
D03*
X-1400Y118375D02*
D03*
X-400Y-7625D02*
D03*
X600Y-5625D02*
D03*
X-400Y-3625D02*
D03*
X600Y-1625D02*
D03*
X-400Y375D02*
D03*
Y4375D02*
D03*
Y8375D02*
D03*
Y48375D02*
D03*
Y52375D02*
D03*
Y56375D02*
D03*
X600Y58375D02*
D03*
X-400Y60375D02*
D03*
X600Y62375D02*
D03*
X-400Y64375D02*
D03*
X600Y66375D02*
D03*
X-400Y68375D02*
D03*
X600Y70375D02*
D03*
X-400Y72375D02*
D03*
X600Y74375D02*
D03*
X-400Y76375D02*
D03*
Y92375D02*
D03*
X600Y94375D02*
D03*
X-400Y96375D02*
D03*
X600Y98375D02*
D03*
X-400Y100375D02*
D03*
X600Y102375D02*
D03*
X-400Y104375D02*
D03*
Y108375D02*
D03*
X600Y110375D02*
D03*
X-400Y112375D02*
D03*
X600Y114375D02*
D03*
X-400Y116375D02*
D03*
X600Y118375D02*
D03*
X1600Y-7625D02*
D03*
X2600Y-5625D02*
D03*
X1600Y-3625D02*
D03*
X2600Y-1625D02*
D03*
X1600Y8375D02*
D03*
Y56375D02*
D03*
X2600Y58375D02*
D03*
X1600Y60375D02*
D03*
X2600Y62375D02*
D03*
X1600Y84375D02*
D03*
X2600Y86375D02*
D03*
X1600Y92375D02*
D03*
Y96375D02*
D03*
Y100375D02*
D03*
Y104375D02*
D03*
Y108375D02*
D03*
X2600Y114375D02*
D03*
X1600Y116375D02*
D03*
X2600Y118375D02*
D03*
X3600Y-7625D02*
D03*
X4600Y-5625D02*
D03*
X3600Y-3625D02*
D03*
X4600Y-1625D02*
D03*
X3600Y8375D02*
D03*
Y56375D02*
D03*
X4600Y58375D02*
D03*
X3600Y60375D02*
D03*
Y84375D02*
D03*
Y88375D02*
D03*
Y108375D02*
D03*
Y116375D02*
D03*
X4600Y118375D02*
D03*
X5600Y-7625D02*
D03*
X6600Y-5625D02*
D03*
X5600Y-3625D02*
D03*
X6600Y-1625D02*
D03*
X5600Y8375D02*
D03*
Y56375D02*
D03*
X6600Y58375D02*
D03*
X5600Y68375D02*
D03*
X6600Y78375D02*
D03*
X5600Y84375D02*
D03*
Y88375D02*
D03*
X6600Y90375D02*
D03*
X5600Y92375D02*
D03*
X6600Y94375D02*
D03*
X5600Y96375D02*
D03*
X6600Y98375D02*
D03*
X5600Y100375D02*
D03*
Y104375D02*
D03*
Y116375D02*
D03*
X6600Y118375D02*
D03*
X7600Y-7625D02*
D03*
X8600Y-5625D02*
D03*
X7600Y-3625D02*
D03*
X8600Y-1625D02*
D03*
X7600Y375D02*
D03*
X8600Y2375D02*
D03*
X7600Y4375D02*
D03*
X8600Y6375D02*
D03*
X7600Y8375D02*
D03*
Y48375D02*
D03*
X8600Y50375D02*
D03*
X7600Y52375D02*
D03*
X8600Y54375D02*
D03*
X7600Y56375D02*
D03*
X8600Y66375D02*
D03*
Y78375D02*
D03*
Y90375D02*
D03*
Y94375D02*
D03*
Y98375D02*
D03*
Y102375D02*
D03*
X7600Y104375D02*
D03*
X8600Y106375D02*
D03*
X7600Y108375D02*
D03*
X8600Y118375D02*
D03*
X9600Y-7625D02*
D03*
X10600Y-5625D02*
D03*
X9600Y-3625D02*
D03*
X10600Y-1625D02*
D03*
X9600Y375D02*
D03*
X10600Y2375D02*
D03*
X9600Y4375D02*
D03*
X10600Y6375D02*
D03*
X9600Y8375D02*
D03*
Y48375D02*
D03*
X10600Y50375D02*
D03*
X9600Y52375D02*
D03*
X10600Y54375D02*
D03*
X9600Y56375D02*
D03*
Y64375D02*
D03*
X10600Y66375D02*
D03*
Y74375D02*
D03*
X9600Y76375D02*
D03*
X10600Y78375D02*
D03*
X9600Y80375D02*
D03*
X10600Y86375D02*
D03*
X9600Y88375D02*
D03*
X10600Y90375D02*
D03*
X9600Y92375D02*
D03*
X10600Y94375D02*
D03*
X9600Y96375D02*
D03*
X10600Y98375D02*
D03*
X9600Y100375D02*
D03*
X10600Y102375D02*
D03*
X9600Y104375D02*
D03*
X10600Y106375D02*
D03*
X9600Y108375D02*
D03*
X10600Y110375D02*
D03*
Y118375D02*
D03*
X11600Y-7625D02*
D03*
X12600Y-5625D02*
D03*
X11600Y-3625D02*
D03*
X12600Y-1625D02*
D03*
X11600Y375D02*
D03*
Y4375D02*
D03*
X12600Y6375D02*
D03*
X11600Y8375D02*
D03*
X12600Y46375D02*
D03*
Y50375D02*
D03*
X11600Y52375D02*
D03*
X12600Y54375D02*
D03*
X11600Y64375D02*
D03*
Y72375D02*
D03*
X12600Y74375D02*
D03*
X11600Y76375D02*
D03*
X12600Y78375D02*
D03*
X11600Y88375D02*
D03*
X12600Y90375D02*
D03*
X11600Y92375D02*
D03*
X12600Y94375D02*
D03*
X11600Y96375D02*
D03*
X12600Y98375D02*
D03*
X11600Y100375D02*
D03*
X12600Y102375D02*
D03*
X11600Y104375D02*
D03*
X12600Y114375D02*
D03*
X11600Y116375D02*
D03*
X12600Y118375D02*
D03*
X13600Y-7625D02*
D03*
X14600Y-5625D02*
D03*
X13600Y-3625D02*
D03*
X14600Y-1625D02*
D03*
X13600Y375D02*
D03*
Y4375D02*
D03*
X14600Y6375D02*
D03*
X13600Y8375D02*
D03*
Y48375D02*
D03*
X14600Y50375D02*
D03*
X13600Y52375D02*
D03*
Y56375D02*
D03*
X14600Y62375D02*
D03*
Y70375D02*
D03*
X13600Y72375D02*
D03*
X14600Y74375D02*
D03*
X13600Y76375D02*
D03*
X14600Y82375D02*
D03*
X13600Y84375D02*
D03*
X14600Y86375D02*
D03*
X13600Y88375D02*
D03*
X14600Y90375D02*
D03*
X13600Y92375D02*
D03*
X14600Y94375D02*
D03*
X13600Y96375D02*
D03*
X14600Y98375D02*
D03*
X13600Y100375D02*
D03*
X14600Y102375D02*
D03*
X13600Y104375D02*
D03*
X14600Y106375D02*
D03*
Y110375D02*
D03*
X13600Y112375D02*
D03*
X14600Y114375D02*
D03*
X13600Y116375D02*
D03*
X14600Y118375D02*
D03*
X15600Y-7625D02*
D03*
X16600Y-5625D02*
D03*
X15600Y-3625D02*
D03*
X16600Y-1625D02*
D03*
X15600Y375D02*
D03*
Y4375D02*
D03*
X16600Y6375D02*
D03*
Y26375D02*
D03*
X15600Y28375D02*
D03*
Y32375D02*
D03*
X16600Y34375D02*
D03*
X15600Y44375D02*
D03*
Y48375D02*
D03*
X16600Y50375D02*
D03*
Y54375D02*
D03*
X15600Y56375D02*
D03*
Y68375D02*
D03*
X16600Y70375D02*
D03*
X15600Y72375D02*
D03*
Y80375D02*
D03*
Y84375D02*
D03*
X16600Y86375D02*
D03*
X15600Y88375D02*
D03*
X16600Y90375D02*
D03*
X15600Y92375D02*
D03*
X16600Y94375D02*
D03*
X15600Y96375D02*
D03*
Y100375D02*
D03*
X16600Y110375D02*
D03*
X15600Y112375D02*
D03*
X16600Y114375D02*
D03*
X15600Y116375D02*
D03*
X16600Y118375D02*
D03*
X17600Y-7625D02*
D03*
X18600Y-5625D02*
D03*
X17600Y-3625D02*
D03*
X18600Y-1625D02*
D03*
X17600Y375D02*
D03*
X18600Y6375D02*
D03*
Y26375D02*
D03*
Y30375D02*
D03*
X17600Y32375D02*
D03*
X18600Y34375D02*
D03*
X17600Y44375D02*
D03*
Y48375D02*
D03*
X18600Y54375D02*
D03*
X17600Y56375D02*
D03*
X18600Y66375D02*
D03*
X17600Y68375D02*
D03*
X18600Y70375D02*
D03*
X17600Y72375D02*
D03*
X18600Y78375D02*
D03*
X17600Y84375D02*
D03*
X18600Y86375D02*
D03*
X17600Y88375D02*
D03*
X18600Y90375D02*
D03*
X17600Y92375D02*
D03*
X18600Y94375D02*
D03*
X17600Y108375D02*
D03*
X18600Y114375D02*
D03*
X17600Y116375D02*
D03*
X18600Y118375D02*
D03*
X19600Y-7625D02*
D03*
X20600Y-5625D02*
D03*
X19600Y-3625D02*
D03*
X20600Y-1625D02*
D03*
Y26375D02*
D03*
Y30375D02*
D03*
X19600Y32375D02*
D03*
X20600Y34375D02*
D03*
X19600Y36375D02*
D03*
Y40375D02*
D03*
Y44375D02*
D03*
Y48375D02*
D03*
X20600Y50375D02*
D03*
Y54375D02*
D03*
X19600Y56375D02*
D03*
Y64375D02*
D03*
X20600Y66375D02*
D03*
X19600Y68375D02*
D03*
X20600Y70375D02*
D03*
X19600Y84375D02*
D03*
Y88375D02*
D03*
X20600Y90375D02*
D03*
X19600Y92375D02*
D03*
X20600Y114375D02*
D03*
Y118375D02*
D03*
X21600Y-7625D02*
D03*
X22600Y-5625D02*
D03*
X21600Y-3625D02*
D03*
X22600Y-1625D02*
D03*
Y26375D02*
D03*
Y30375D02*
D03*
X21600Y32375D02*
D03*
X22600Y34375D02*
D03*
X21600Y36375D02*
D03*
X22600Y38375D02*
D03*
X21600Y40375D02*
D03*
X22600Y42375D02*
D03*
X21600Y44375D02*
D03*
Y48375D02*
D03*
X22600Y50375D02*
D03*
Y54375D02*
D03*
Y62375D02*
D03*
X21600Y64375D02*
D03*
X22600Y66375D02*
D03*
X21600Y68375D02*
D03*
X22600Y78375D02*
D03*
X21600Y84375D02*
D03*
Y88375D02*
D03*
X22600Y98375D02*
D03*
Y102375D02*
D03*
Y118375D02*
D03*
X23600Y-7625D02*
D03*
X24600Y-5625D02*
D03*
X23600Y-3625D02*
D03*
X24600Y-1625D02*
D03*
X23600Y375D02*
D03*
X24600Y26375D02*
D03*
Y30375D02*
D03*
X23600Y32375D02*
D03*
X24600Y34375D02*
D03*
X23600Y36375D02*
D03*
X24600Y38375D02*
D03*
X23600Y40375D02*
D03*
X24600Y42375D02*
D03*
X23600Y44375D02*
D03*
Y48375D02*
D03*
X24600Y50375D02*
D03*
Y62375D02*
D03*
X23600Y64375D02*
D03*
X24600Y66375D02*
D03*
X23600Y76375D02*
D03*
Y88375D02*
D03*
X24600Y102375D02*
D03*
X23600Y104375D02*
D03*
X24600Y106375D02*
D03*
X23600Y108375D02*
D03*
X24600Y118375D02*
D03*
X25600Y-7625D02*
D03*
X26600Y-5625D02*
D03*
X25600Y-3625D02*
D03*
X26600Y-1625D02*
D03*
X25600Y375D02*
D03*
X26600Y26375D02*
D03*
Y30375D02*
D03*
X25600Y32375D02*
D03*
X26600Y34375D02*
D03*
X25600Y36375D02*
D03*
X26600Y38375D02*
D03*
X25600Y40375D02*
D03*
Y44375D02*
D03*
Y48375D02*
D03*
X26600Y98375D02*
D03*
X25600Y100375D02*
D03*
Y104375D02*
D03*
X26600Y106375D02*
D03*
X25600Y108375D02*
D03*
X26600Y114375D02*
D03*
X25600Y116375D02*
D03*
X26600Y118375D02*
D03*
X27600Y-7625D02*
D03*
X28600Y-5625D02*
D03*
X27600Y-3625D02*
D03*
X28600Y-1625D02*
D03*
X27600Y375D02*
D03*
X28600Y6375D02*
D03*
Y26375D02*
D03*
Y30375D02*
D03*
X27600Y32375D02*
D03*
X28600Y34375D02*
D03*
Y38375D02*
D03*
X27600Y40375D02*
D03*
Y44375D02*
D03*
Y48375D02*
D03*
Y56375D02*
D03*
X28600Y62375D02*
D03*
X27600Y100375D02*
D03*
Y104375D02*
D03*
X28600Y114375D02*
D03*
X27600Y116375D02*
D03*
X28600Y118375D02*
D03*
X29600Y-7625D02*
D03*
X30600Y26375D02*
D03*
Y30375D02*
D03*
X29600Y32375D02*
D03*
X30600Y34375D02*
D03*
X29600Y40375D02*
D03*
Y44375D02*
D03*
X30600Y54375D02*
D03*
Y110375D02*
D03*
X29600Y112375D02*
D03*
X30600Y114375D02*
D03*
X29600Y116375D02*
D03*
X30600Y118375D02*
D03*
X31600Y-7625D02*
D03*
X32600Y26375D02*
D03*
Y30375D02*
D03*
X31600Y44375D02*
D03*
Y48375D02*
D03*
Y52375D02*
D03*
X32600Y78375D02*
D03*
Y86375D02*
D03*
X31600Y88375D02*
D03*
X32600Y90375D02*
D03*
X31600Y92375D02*
D03*
X32600Y94375D02*
D03*
X31600Y96375D02*
D03*
X32600Y98375D02*
D03*
X31600Y100375D02*
D03*
Y108375D02*
D03*
X32600Y114375D02*
D03*
X31600Y116375D02*
D03*
X32600Y118375D02*
D03*
X33600Y-7625D02*
D03*
X34600Y2375D02*
D03*
Y6375D02*
D03*
Y14375D02*
D03*
Y18375D02*
D03*
Y22375D02*
D03*
Y26375D02*
D03*
X33600Y32375D02*
D03*
X34600Y38375D02*
D03*
X33600Y40375D02*
D03*
X34600Y42375D02*
D03*
Y50375D02*
D03*
Y78375D02*
D03*
X33600Y88375D02*
D03*
X34600Y90375D02*
D03*
X33600Y92375D02*
D03*
X34600Y94375D02*
D03*
X33600Y96375D02*
D03*
X34600Y98375D02*
D03*
X33600Y100375D02*
D03*
Y108375D02*
D03*
X34600Y114375D02*
D03*
X33600Y116375D02*
D03*
X34600Y118375D02*
D03*
X35600Y-7625D02*
D03*
Y375D02*
D03*
X36600Y2375D02*
D03*
X35600Y4375D02*
D03*
X36600Y6375D02*
D03*
X35600Y8375D02*
D03*
X36600Y10375D02*
D03*
X35600Y12375D02*
D03*
X36600Y14375D02*
D03*
X35600Y16375D02*
D03*
X36600Y18375D02*
D03*
X35600Y20375D02*
D03*
X36600Y22375D02*
D03*
X35600Y24375D02*
D03*
X36600Y26375D02*
D03*
Y30375D02*
D03*
X35600Y32375D02*
D03*
X36600Y38375D02*
D03*
X35600Y48375D02*
D03*
Y88375D02*
D03*
X36600Y90375D02*
D03*
X35600Y92375D02*
D03*
X36600Y94375D02*
D03*
X35600Y96375D02*
D03*
X36600Y118375D02*
D03*
X37600Y-7625D02*
D03*
Y375D02*
D03*
X38600Y2375D02*
D03*
X37600Y4375D02*
D03*
Y8375D02*
D03*
X38600Y10375D02*
D03*
X37600Y12375D02*
D03*
X38600Y14375D02*
D03*
X37600Y16375D02*
D03*
X38600Y18375D02*
D03*
X37600Y20375D02*
D03*
X38600Y22375D02*
D03*
X37600Y24375D02*
D03*
X38600Y26375D02*
D03*
Y30375D02*
D03*
Y34375D02*
D03*
X37600Y36375D02*
D03*
X38600Y38375D02*
D03*
Y46375D02*
D03*
Y74375D02*
D03*
Y78375D02*
D03*
X37600Y80375D02*
D03*
Y88375D02*
D03*
X38600Y90375D02*
D03*
X37600Y92375D02*
D03*
Y96375D02*
D03*
X38600Y102375D02*
D03*
X37600Y104375D02*
D03*
X38600Y106375D02*
D03*
X37600Y108375D02*
D03*
Y116375D02*
D03*
X38600Y118375D02*
D03*
X39600Y-7625D02*
D03*
X40600Y2375D02*
D03*
Y6375D02*
D03*
X39600Y8375D02*
D03*
X40600Y10375D02*
D03*
X39600Y12375D02*
D03*
X40600Y14375D02*
D03*
X39600Y16375D02*
D03*
X40600Y18375D02*
D03*
X39600Y20375D02*
D03*
X40600Y22375D02*
D03*
X39600Y24375D02*
D03*
Y36375D02*
D03*
Y88375D02*
D03*
X40600Y102375D02*
D03*
X39600Y104375D02*
D03*
X40600Y106375D02*
D03*
X39600Y108375D02*
D03*
Y116375D02*
D03*
X40600Y118375D02*
D03*
X41600Y-7625D02*
D03*
X42600Y-5625D02*
D03*
Y2375D02*
D03*
X41600Y4375D02*
D03*
X42600Y6375D02*
D03*
X41600Y8375D02*
D03*
X42600Y10375D02*
D03*
X41600Y12375D02*
D03*
Y16375D02*
D03*
X42600Y18375D02*
D03*
X41600Y20375D02*
D03*
X42600Y22375D02*
D03*
X41600Y24375D02*
D03*
X42600Y30375D02*
D03*
Y34375D02*
D03*
Y98375D02*
D03*
X41600Y100375D02*
D03*
X42600Y102375D02*
D03*
X41600Y104375D02*
D03*
X42600Y106375D02*
D03*
X41600Y108375D02*
D03*
X42600Y114375D02*
D03*
X41600Y116375D02*
D03*
X42600Y118375D02*
D03*
X43600Y-7625D02*
D03*
X44600Y-1625D02*
D03*
Y2375D02*
D03*
X43600Y4375D02*
D03*
X44600Y6375D02*
D03*
X43600Y8375D02*
D03*
X44600Y10375D02*
D03*
X43600Y16375D02*
D03*
X44600Y18375D02*
D03*
X43600Y20375D02*
D03*
X44600Y22375D02*
D03*
X43600Y24375D02*
D03*
X44600Y30375D02*
D03*
Y74375D02*
D03*
Y110375D02*
D03*
X43600Y112375D02*
D03*
X44600Y114375D02*
D03*
X43600Y116375D02*
D03*
X44600Y118375D02*
D03*
X45600Y-7625D02*
D03*
X46600Y-5625D02*
D03*
X45600Y-3625D02*
D03*
X46600Y-1625D02*
D03*
X45600Y375D02*
D03*
X46600Y2375D02*
D03*
X45600Y4375D02*
D03*
X46600Y6375D02*
D03*
X45600Y8375D02*
D03*
X46600Y10375D02*
D03*
X45600Y12375D02*
D03*
Y16375D02*
D03*
X46600Y18375D02*
D03*
X45600Y20375D02*
D03*
X46600Y22375D02*
D03*
X45600Y24375D02*
D03*
X46600Y30375D02*
D03*
Y78375D02*
D03*
Y82375D02*
D03*
Y86375D02*
D03*
Y90375D02*
D03*
Y94375D02*
D03*
Y98375D02*
D03*
Y102375D02*
D03*
X45600Y112375D02*
D03*
X46600Y114375D02*
D03*
X45600Y116375D02*
D03*
X46600Y118375D02*
D03*
X47600Y-7625D02*
D03*
X48600Y-5625D02*
D03*
X47600Y-3625D02*
D03*
X48600Y-1625D02*
D03*
X47600Y375D02*
D03*
X48600Y2375D02*
D03*
X47600Y4375D02*
D03*
X48600Y6375D02*
D03*
X47600Y8375D02*
D03*
X48600Y10375D02*
D03*
X47600Y16375D02*
D03*
Y20375D02*
D03*
X48600Y22375D02*
D03*
X47600Y24375D02*
D03*
X48600Y82375D02*
D03*
X47600Y84375D02*
D03*
X48600Y86375D02*
D03*
X47600Y88375D02*
D03*
X48600Y90375D02*
D03*
X47600Y92375D02*
D03*
X48600Y94375D02*
D03*
X47600Y96375D02*
D03*
X48600Y98375D02*
D03*
X47600Y100375D02*
D03*
X48600Y102375D02*
D03*
X47600Y104375D02*
D03*
X48600Y110375D02*
D03*
X47600Y112375D02*
D03*
X48600Y114375D02*
D03*
X47600Y116375D02*
D03*
X48600Y118375D02*
D03*
X49600Y-7625D02*
D03*
X50600Y-5625D02*
D03*
X49600Y-3625D02*
D03*
X50600Y-1625D02*
D03*
X49600Y375D02*
D03*
X50600Y2375D02*
D03*
X49600Y4375D02*
D03*
X50600Y6375D02*
D03*
X49600Y8375D02*
D03*
X50600Y10375D02*
D03*
X49600Y20375D02*
D03*
Y24375D02*
D03*
X50600Y26375D02*
D03*
Y74375D02*
D03*
Y82375D02*
D03*
X49600Y84375D02*
D03*
Y88375D02*
D03*
X50600Y90375D02*
D03*
X49600Y92375D02*
D03*
X50600Y94375D02*
D03*
X49600Y96375D02*
D03*
X50600Y98375D02*
D03*
X49600Y100375D02*
D03*
X50600Y102375D02*
D03*
X49600Y104375D02*
D03*
Y112375D02*
D03*
Y116375D02*
D03*
X50600Y118375D02*
D03*
X51600Y-7625D02*
D03*
X52600Y-5625D02*
D03*
X51600Y-3625D02*
D03*
X52600Y-1625D02*
D03*
X51600Y375D02*
D03*
X52600Y2375D02*
D03*
X51600Y4375D02*
D03*
X52600Y6375D02*
D03*
X51600Y8375D02*
D03*
X52600Y10375D02*
D03*
Y14375D02*
D03*
X51600Y16375D02*
D03*
X52600Y18375D02*
D03*
X51600Y20375D02*
D03*
X52600Y66375D02*
D03*
Y78375D02*
D03*
Y82375D02*
D03*
X51600Y84375D02*
D03*
Y88375D02*
D03*
X52600Y90375D02*
D03*
X51600Y92375D02*
D03*
X52600Y94375D02*
D03*
X51600Y96375D02*
D03*
X52600Y98375D02*
D03*
X51600Y100375D02*
D03*
X52600Y102375D02*
D03*
X51600Y104375D02*
D03*
X52600Y110375D02*
D03*
X51600Y112375D02*
D03*
X52600Y114375D02*
D03*
Y118375D02*
D03*
X53600Y-7625D02*
D03*
X54600Y-5625D02*
D03*
X53600Y-3625D02*
D03*
X54600Y-1625D02*
D03*
X53600Y375D02*
D03*
X54600Y2375D02*
D03*
X53600Y4375D02*
D03*
X54600Y6375D02*
D03*
X53600Y8375D02*
D03*
X54600Y10375D02*
D03*
X53600Y12375D02*
D03*
X54600Y14375D02*
D03*
X53600Y16375D02*
D03*
X54600Y18375D02*
D03*
X53600Y72375D02*
D03*
Y76375D02*
D03*
X54600Y78375D02*
D03*
Y82375D02*
D03*
X53600Y84375D02*
D03*
Y88375D02*
D03*
X54600Y90375D02*
D03*
X53600Y92375D02*
D03*
X54600Y94375D02*
D03*
X53600Y96375D02*
D03*
X54600Y98375D02*
D03*
X53600Y100375D02*
D03*
X54600Y106375D02*
D03*
Y110375D02*
D03*
X53600Y112375D02*
D03*
X54600Y118375D02*
D03*
X55600Y-7625D02*
D03*
X56600Y-5625D02*
D03*
X55600Y-3625D02*
D03*
X56600Y-1625D02*
D03*
X55600Y375D02*
D03*
X56600Y2375D02*
D03*
X55600Y4375D02*
D03*
X56600Y62375D02*
D03*
X55600Y72375D02*
D03*
Y76375D02*
D03*
Y88375D02*
D03*
Y92375D02*
D03*
Y96375D02*
D03*
Y100375D02*
D03*
Y104375D02*
D03*
Y108375D02*
D03*
Y112375D02*
D03*
X56600Y114375D02*
D03*
Y118375D02*
D03*
X57600Y-7625D02*
D03*
X58600Y-5625D02*
D03*
X57600Y-3625D02*
D03*
X58600Y-1625D02*
D03*
X57600Y375D02*
D03*
Y16375D02*
D03*
Y80375D02*
D03*
Y88375D02*
D03*
Y92375D02*
D03*
Y96375D02*
D03*
Y100375D02*
D03*
X58600Y102375D02*
D03*
Y106375D02*
D03*
X57600Y112375D02*
D03*
X58600Y114375D02*
D03*
X57600Y116375D02*
D03*
X58600Y118375D02*
D03*
X59600Y-7625D02*
D03*
X60600Y-5625D02*
D03*
X59600Y-3625D02*
D03*
X60600Y-1625D02*
D03*
Y58375D02*
D03*
X59600Y104375D02*
D03*
X60600Y110375D02*
D03*
X59600Y112375D02*
D03*
X60600Y114375D02*
D03*
X59600Y116375D02*
D03*
X60600Y118375D02*
D03*
X61600Y-7625D02*
D03*
X62600Y-5625D02*
D03*
X61600Y-3625D02*
D03*
X62600Y-1625D02*
D03*
X61600Y375D02*
D03*
X62600Y114375D02*
D03*
X61600Y116375D02*
D03*
X62600Y118375D02*
D03*
X63600Y-7625D02*
D03*
X64600Y-5625D02*
D03*
X63600Y-3625D02*
D03*
X64600Y-1625D02*
D03*
X63600Y375D02*
D03*
X64600Y70375D02*
D03*
Y82375D02*
D03*
Y86375D02*
D03*
Y90375D02*
D03*
Y94375D02*
D03*
Y98375D02*
D03*
Y114375D02*
D03*
X63600Y116375D02*
D03*
X64600Y118375D02*
D03*
X65600Y-7625D02*
D03*
X66600Y-5625D02*
D03*
X65600Y-3625D02*
D03*
X66600Y-1625D02*
D03*
X65600Y375D02*
D03*
X66600Y82375D02*
D03*
X65600Y88375D02*
D03*
X66600Y90375D02*
D03*
X65600Y92375D02*
D03*
X66600Y94375D02*
D03*
X65600Y96375D02*
D03*
X66600Y98375D02*
D03*
X65600Y100375D02*
D03*
X66600Y114375D02*
D03*
Y118375D02*
D03*
X67600Y-7625D02*
D03*
X68600Y-5625D02*
D03*
X67600Y-3625D02*
D03*
X68600Y-1625D02*
D03*
X67600Y80375D02*
D03*
X68600Y82375D02*
D03*
X67600Y84375D02*
D03*
Y88375D02*
D03*
X68600Y90375D02*
D03*
X67600Y92375D02*
D03*
X68600Y94375D02*
D03*
X67600Y96375D02*
D03*
Y112375D02*
D03*
X68600Y114375D02*
D03*
Y118375D02*
D03*
X69600Y-7625D02*
D03*
X70600Y-5625D02*
D03*
X69600Y-3625D02*
D03*
X70600Y-1625D02*
D03*
Y6375D02*
D03*
X69600Y76375D02*
D03*
Y88375D02*
D03*
Y92375D02*
D03*
Y96375D02*
D03*
X70600Y110375D02*
D03*
X69600Y112375D02*
D03*
X70600Y114375D02*
D03*
Y118375D02*
D03*
X71600Y-7625D02*
D03*
X72600Y-5625D02*
D03*
X71600Y-3625D02*
D03*
X72600Y-1625D02*
D03*
X71600Y375D02*
D03*
X72600Y2375D02*
D03*
Y6375D02*
D03*
Y10375D02*
D03*
Y14375D02*
D03*
Y18375D02*
D03*
X71600Y108375D02*
D03*
X72600Y110375D02*
D03*
X71600Y112375D02*
D03*
Y116375D02*
D03*
X72600Y118375D02*
D03*
X73600Y-7625D02*
D03*
X74600Y-5625D02*
D03*
X73600Y-3625D02*
D03*
X74600Y-1625D02*
D03*
X73600Y375D02*
D03*
Y4375D02*
D03*
X74600Y6375D02*
D03*
X73600Y8375D02*
D03*
X74600Y10375D02*
D03*
X73600Y12375D02*
D03*
X74600Y14375D02*
D03*
Y46375D02*
D03*
Y50375D02*
D03*
Y54375D02*
D03*
Y58375D02*
D03*
Y62375D02*
D03*
Y66375D02*
D03*
Y70375D02*
D03*
Y82375D02*
D03*
Y86375D02*
D03*
Y90375D02*
D03*
Y98375D02*
D03*
Y102375D02*
D03*
Y106375D02*
D03*
X73600Y108375D02*
D03*
X74600Y110375D02*
D03*
X73600Y112375D02*
D03*
X74600Y114375D02*
D03*
Y118375D02*
D03*
X75600Y-7625D02*
D03*
X76600Y-5625D02*
D03*
X75600Y-3625D02*
D03*
X76600Y-1625D02*
D03*
X75600Y375D02*
D03*
X76600Y2375D02*
D03*
X75600Y4375D02*
D03*
X76600Y6375D02*
D03*
X75600Y8375D02*
D03*
X76600Y10375D02*
D03*
Y14375D02*
D03*
X75600Y108375D02*
D03*
Y112375D02*
D03*
X76600Y114375D02*
D03*
X75600Y116375D02*
D03*
X76600Y118375D02*
D03*
X77600Y-7625D02*
D03*
X78600Y-5625D02*
D03*
X77600Y-3625D02*
D03*
X78600Y-1625D02*
D03*
X77600Y375D02*
D03*
X78600Y2375D02*
D03*
X77600Y4375D02*
D03*
X78600Y6375D02*
D03*
X77600Y8375D02*
D03*
Y16375D02*
D03*
X78600Y18375D02*
D03*
X77600Y20375D02*
D03*
Y112375D02*
D03*
X78600Y114375D02*
D03*
X77600Y116375D02*
D03*
X78600Y118375D02*
D03*
X79600Y-7625D02*
D03*
X80600Y-5625D02*
D03*
X79600Y-3625D02*
D03*
X80600Y-1625D02*
D03*
X79600Y375D02*
D03*
Y4375D02*
D03*
Y16375D02*
D03*
X80600Y18375D02*
D03*
X79600Y20375D02*
D03*
X80600Y22375D02*
D03*
X79600Y24375D02*
D03*
X80600Y26375D02*
D03*
Y30375D02*
D03*
Y34375D02*
D03*
Y46375D02*
D03*
X79600Y112375D02*
D03*
Y116375D02*
D03*
X80600Y118375D02*
D03*
X81600Y-7625D02*
D03*
X82600Y-5625D02*
D03*
X81600Y-3625D02*
D03*
X82600Y-1625D02*
D03*
Y10375D02*
D03*
X81600Y16375D02*
D03*
Y20375D02*
D03*
X82600Y34375D02*
D03*
X81600Y44375D02*
D03*
Y56375D02*
D03*
X82600Y58375D02*
D03*
Y78375D02*
D03*
Y82375D02*
D03*
X81600Y84375D02*
D03*
Y88375D02*
D03*
X82600Y90375D02*
D03*
X81600Y92375D02*
D03*
X82600Y94375D02*
D03*
X81600Y96375D02*
D03*
X82600Y98375D02*
D03*
X81600Y100375D02*
D03*
X82600Y102375D02*
D03*
X81600Y112375D02*
D03*
Y116375D02*
D03*
X82600Y118375D02*
D03*
X83600Y-7625D02*
D03*
X84600Y-5625D02*
D03*
X83600Y-3625D02*
D03*
X84600Y-1625D02*
D03*
X83600Y8375D02*
D03*
X84600Y10375D02*
D03*
X83600Y12375D02*
D03*
X84600Y14375D02*
D03*
X83600Y16375D02*
D03*
X84600Y18375D02*
D03*
X83600Y20375D02*
D03*
X84600Y22375D02*
D03*
Y26375D02*
D03*
Y30375D02*
D03*
X83600Y32375D02*
D03*
X84600Y34375D02*
D03*
X83600Y56375D02*
D03*
X84600Y62375D02*
D03*
X83600Y64375D02*
D03*
X84600Y66375D02*
D03*
X83600Y68375D02*
D03*
X84600Y70375D02*
D03*
X83600Y72375D02*
D03*
X84600Y74375D02*
D03*
X83600Y76375D02*
D03*
X84600Y78375D02*
D03*
X83600Y80375D02*
D03*
X84600Y82375D02*
D03*
X83600Y84375D02*
D03*
Y88375D02*
D03*
X84600Y90375D02*
D03*
X83600Y92375D02*
D03*
X84600Y94375D02*
D03*
X83600Y96375D02*
D03*
X84600Y98375D02*
D03*
X83600Y100375D02*
D03*
X84600Y102375D02*
D03*
X83600Y104375D02*
D03*
X84600Y106375D02*
D03*
X83600Y108375D02*
D03*
X84600Y110375D02*
D03*
X83600Y112375D02*
D03*
X84600Y114375D02*
D03*
X83600Y116375D02*
D03*
X84600Y118375D02*
D03*
X85600Y-7625D02*
D03*
X86600Y-5625D02*
D03*
X85600Y-3625D02*
D03*
X86600Y-1625D02*
D03*
Y14375D02*
D03*
X85600Y16375D02*
D03*
X86600Y18375D02*
D03*
Y34375D02*
D03*
X85600Y36375D02*
D03*
X86600Y38375D02*
D03*
X85600Y44375D02*
D03*
X86600Y58375D02*
D03*
X85600Y60375D02*
D03*
X86600Y62375D02*
D03*
X85600Y64375D02*
D03*
X86600Y66375D02*
D03*
X85600Y68375D02*
D03*
X86600Y70375D02*
D03*
X85600Y72375D02*
D03*
X86600Y74375D02*
D03*
X85600Y76375D02*
D03*
X86600Y78375D02*
D03*
X85600Y80375D02*
D03*
X86600Y82375D02*
D03*
Y86375D02*
D03*
X85600Y88375D02*
D03*
X86600Y90375D02*
D03*
X85600Y92375D02*
D03*
X86600Y94375D02*
D03*
X85600Y96375D02*
D03*
X86600Y98375D02*
D03*
X85600Y100375D02*
D03*
X86600Y102375D02*
D03*
X85600Y104375D02*
D03*
X86600Y106375D02*
D03*
X85600Y108375D02*
D03*
X86600Y110375D02*
D03*
X85600Y112375D02*
D03*
X86600Y114375D02*
D03*
Y118375D02*
D03*
X87600Y-7625D02*
D03*
X88600Y-5625D02*
D03*
X87600Y-3625D02*
D03*
X88600Y-1625D02*
D03*
Y6375D02*
D03*
X87600Y8375D02*
D03*
X88600Y14375D02*
D03*
Y26375D02*
D03*
Y30375D02*
D03*
Y34375D02*
D03*
X87600Y36375D02*
D03*
Y44375D02*
D03*
X88600Y46375D02*
D03*
X87600Y48375D02*
D03*
X88600Y50375D02*
D03*
X87600Y52375D02*
D03*
X88600Y54375D02*
D03*
X87600Y56375D02*
D03*
X88600Y58375D02*
D03*
X87600Y60375D02*
D03*
X88600Y62375D02*
D03*
X87600Y64375D02*
D03*
X88600Y66375D02*
D03*
X87600Y68375D02*
D03*
X88600Y70375D02*
D03*
X87600Y72375D02*
D03*
X88600Y74375D02*
D03*
X87600Y76375D02*
D03*
X88600Y78375D02*
D03*
X87600Y80375D02*
D03*
X88600Y82375D02*
D03*
X87600Y88375D02*
D03*
X88600Y90375D02*
D03*
X87600Y92375D02*
D03*
X88600Y94375D02*
D03*
X87600Y96375D02*
D03*
X88600Y98375D02*
D03*
X87600Y100375D02*
D03*
X88600Y102375D02*
D03*
X87600Y104375D02*
D03*
X88600Y106375D02*
D03*
X87600Y108375D02*
D03*
X88600Y110375D02*
D03*
X87600Y112375D02*
D03*
Y116375D02*
D03*
X88600Y118375D02*
D03*
X89600Y-7625D02*
D03*
X90600Y-5625D02*
D03*
X89600Y-3625D02*
D03*
X90600Y-1625D02*
D03*
X89600Y4375D02*
D03*
X90600Y6375D02*
D03*
X89600Y8375D02*
D03*
X90600Y10375D02*
D03*
X89600Y12375D02*
D03*
X90600Y14375D02*
D03*
Y18375D02*
D03*
Y34375D02*
D03*
X89600Y36375D02*
D03*
Y40375D02*
D03*
X90600Y42375D02*
D03*
Y46375D02*
D03*
X89600Y48375D02*
D03*
X90600Y50375D02*
D03*
X89600Y52375D02*
D03*
X90600Y54375D02*
D03*
X89600Y56375D02*
D03*
X90600Y58375D02*
D03*
X89600Y60375D02*
D03*
X90600Y62375D02*
D03*
X89600Y64375D02*
D03*
X90600Y66375D02*
D03*
X89600Y68375D02*
D03*
X90600Y70375D02*
D03*
X89600Y72375D02*
D03*
X90600Y74375D02*
D03*
X89600Y76375D02*
D03*
X90600Y78375D02*
D03*
X89600Y80375D02*
D03*
X90600Y82375D02*
D03*
X89600Y84375D02*
D03*
X90600Y86375D02*
D03*
X89600Y88375D02*
D03*
X90600Y90375D02*
D03*
X89600Y92375D02*
D03*
X90600Y94375D02*
D03*
X89600Y96375D02*
D03*
X90600Y98375D02*
D03*
X89600Y100375D02*
D03*
X90600Y102375D02*
D03*
X89600Y104375D02*
D03*
X90600Y106375D02*
D03*
X89600Y108375D02*
D03*
X90600Y110375D02*
D03*
X89600Y112375D02*
D03*
X90600Y114375D02*
D03*
Y118375D02*
D03*
X91600Y-7625D02*
D03*
X92600Y-5625D02*
D03*
X91600Y-3625D02*
D03*
X92600Y-1625D02*
D03*
X91600Y375D02*
D03*
X92600Y2375D02*
D03*
Y6375D02*
D03*
X91600Y8375D02*
D03*
X92600Y10375D02*
D03*
X91600Y12375D02*
D03*
X92600Y14375D02*
D03*
X91600Y16375D02*
D03*
X92600Y18375D02*
D03*
Y34375D02*
D03*
X91600Y36375D02*
D03*
X92600Y38375D02*
D03*
Y42375D02*
D03*
Y46375D02*
D03*
Y50375D02*
D03*
X91600Y52375D02*
D03*
X92600Y54375D02*
D03*
X91600Y56375D02*
D03*
X92600Y58375D02*
D03*
X91600Y60375D02*
D03*
X92600Y62375D02*
D03*
X91600Y64375D02*
D03*
X92600Y66375D02*
D03*
X91600Y68375D02*
D03*
X92600Y70375D02*
D03*
X91600Y72375D02*
D03*
X92600Y74375D02*
D03*
X91600Y76375D02*
D03*
X92600Y78375D02*
D03*
X91600Y80375D02*
D03*
X92600Y82375D02*
D03*
X91600Y84375D02*
D03*
X92600Y86375D02*
D03*
X91600Y88375D02*
D03*
X92600Y90375D02*
D03*
X91600Y92375D02*
D03*
X92600Y94375D02*
D03*
X91600Y96375D02*
D03*
X92600Y98375D02*
D03*
X91600Y100375D02*
D03*
X92600Y102375D02*
D03*
X91600Y104375D02*
D03*
X92600Y106375D02*
D03*
X91600Y108375D02*
D03*
X92600Y110375D02*
D03*
X91600Y112375D02*
D03*
X92600Y114375D02*
D03*
X91600Y116375D02*
D03*
X92600Y118375D02*
D03*
X18400Y10250D02*
D03*
X22200Y10225D02*
D03*
X20925Y10200D02*
D03*
X19675Y19200D02*
D03*
X20925Y19175D02*
D03*
X18395Y14905D02*
D03*
X16750Y10250D02*
D03*
X19675Y10225D02*
D03*
X63500Y22500D02*
D03*
X68500Y21475D02*
D03*
X17525Y14025D02*
D03*
X18400D02*
D03*
X19500Y13875D02*
D03*
D53*
X-10000Y-10000D02*
Y120000D01*
X95000D01*
Y-10000D02*
Y120000D01*
X-10000Y-10000D02*
X95000D01*
D54*
X88975Y22000D02*
D03*
Y32000D02*
D03*
D55*
X-5425Y22994D02*
D03*
Y26956D02*
D03*
D56*
X55544Y2666D02*
D03*
X74020D02*
D03*
X12340D02*
D03*
X30816D02*
D03*
X55544Y47886D02*
D03*
X74020D02*
D03*
X12340D02*
D03*
X30816D02*
D03*
D57*
X83185Y3175D02*
D03*
Y51435D02*
D03*
X3175D02*
D03*
Y3175D02*
D03*
D60*
X61200Y23825D02*
X61225D01*
X63275Y25875D01*
M02*
