G04 Layer_Color=128*
%FSLAX43Y43*%
%MOMM*%
G71*
G01*
G75*
%ADD10C,0.100*%
%ADD36R,1.000X0.950*%
%ADD37R,0.950X1.000*%
%ADD47C,0.300*%
%ADD63R,1.800X1.150*%
%ADD64R,1.450X1.150*%
%ADD65R,0.305X1.448*%
%ADD66R,1.150X1.450*%
%ADD67R,1.150X1.800*%
D10*
X95000Y-10000D02*
Y120000D01*
X-10000D02*
X95000D01*
X-10000Y-10000D02*
Y120000D01*
Y-10000D02*
X95000D01*
D36*
X67350Y34250D02*
D03*
Y35850D02*
D03*
X73525Y22500D02*
D03*
Y20900D02*
D03*
X72525Y25425D02*
D03*
Y23825D02*
D03*
X69500Y35775D02*
D03*
Y37375D02*
D03*
X60000Y42950D02*
D03*
Y44550D02*
D03*
X70000Y43025D02*
D03*
Y41425D02*
D03*
X62100Y21475D02*
D03*
Y19875D02*
D03*
X63650Y22350D02*
D03*
Y20750D02*
D03*
X68500Y21475D02*
D03*
Y19875D02*
D03*
X67025Y19975D02*
D03*
Y18375D02*
D03*
X66575Y23350D02*
D03*
Y21750D02*
D03*
X60525Y21500D02*
D03*
Y19900D02*
D03*
X70525Y21500D02*
D03*
Y19900D02*
D03*
X68500Y38525D02*
D03*
Y40125D02*
D03*
X59550Y33750D02*
D03*
Y35350D02*
D03*
X58275Y35325D02*
D03*
Y36925D02*
D03*
X56475Y41500D02*
D03*
Y43100D02*
D03*
X65525Y37750D02*
D03*
Y39350D02*
D03*
X59300Y26300D02*
D03*
Y24700D02*
D03*
X59275Y28675D02*
D03*
Y30275D02*
D03*
X56500Y30700D02*
D03*
Y32300D02*
D03*
X56500Y23300D02*
D03*
Y21700D02*
D03*
X55175Y30700D02*
D03*
Y32300D02*
D03*
X67300Y31350D02*
D03*
Y32950D02*
D03*
X65800Y31700D02*
D03*
Y33300D02*
D03*
X70500Y31700D02*
D03*
Y33300D02*
D03*
X60525Y29600D02*
D03*
Y31200D02*
D03*
X66550Y28450D02*
D03*
Y30050D02*
D03*
X64375Y31950D02*
D03*
Y30350D02*
D03*
X62500Y29700D02*
D03*
Y31300D02*
D03*
X62425Y24275D02*
D03*
Y22675D02*
D03*
X68675Y25600D02*
D03*
Y24000D02*
D03*
X65050Y25675D02*
D03*
Y24075D02*
D03*
X68550Y26925D02*
D03*
Y28525D02*
D03*
X60475Y26700D02*
D03*
Y28300D02*
D03*
X70525Y24350D02*
D03*
Y22750D02*
D03*
X72000Y22300D02*
D03*
Y20700D02*
D03*
X64350Y33250D02*
D03*
Y34850D02*
D03*
X67300Y26375D02*
D03*
Y24775D02*
D03*
X70500Y27350D02*
D03*
Y25750D02*
D03*
X64575Y27425D02*
D03*
Y29025D02*
D03*
X63700Y25650D02*
D03*
Y24050D02*
D03*
X62500Y27300D02*
D03*
Y25700D02*
D03*
X65575Y34875D02*
D03*
Y36475D02*
D03*
X68500Y29700D02*
D03*
Y31300D02*
D03*
X68575Y32675D02*
D03*
Y34275D02*
D03*
X61575Y32500D02*
D03*
Y34100D02*
D03*
X63100Y32700D02*
D03*
Y34300D02*
D03*
D37*
X77025Y24000D02*
D03*
X78625D02*
D03*
X73350Y33825D02*
D03*
X74950D02*
D03*
X75475Y27525D02*
D03*
X77075D02*
D03*
X72500Y36525D02*
D03*
X74100D02*
D03*
X75000Y30400D02*
D03*
X76600D02*
D03*
X60500Y39500D02*
D03*
X58900D02*
D03*
X57475Y38500D02*
D03*
X55875D02*
D03*
X67500Y41500D02*
D03*
X65900D02*
D03*
X71750Y32550D02*
D03*
X73350D02*
D03*
X54000Y37000D02*
D03*
X55600D02*
D03*
X54875Y40850D02*
D03*
X53275D02*
D03*
X55500Y34500D02*
D03*
X53900D02*
D03*
X75500Y37525D02*
D03*
X77100D02*
D03*
X77100Y34000D02*
D03*
X78700D02*
D03*
X61500Y36525D02*
D03*
X59900D02*
D03*
X57300Y29500D02*
D03*
X55700D02*
D03*
X56525Y26575D02*
D03*
X58125D02*
D03*
X57300Y25325D02*
D03*
X55700D02*
D03*
X55100Y23950D02*
D03*
X53500D02*
D03*
X54800Y27000D02*
D03*
X53200D02*
D03*
X54825Y28300D02*
D03*
X53225D02*
D03*
X53900Y30025D02*
D03*
X52300D02*
D03*
X70650Y29875D02*
D03*
X72250D02*
D03*
X69775Y28525D02*
D03*
X71375D02*
D03*
X72675Y28500D02*
D03*
X74275D02*
D03*
X63300Y28500D02*
D03*
X61700D02*
D03*
X71725Y31325D02*
D03*
X73325D02*
D03*
X72050Y26650D02*
D03*
X73650D02*
D03*
X60300Y32500D02*
D03*
X58700D02*
D03*
X69900Y34525D02*
D03*
X71500D02*
D03*
D47*
X73500Y39500D02*
X73500Y39500D01*
D63*
X43825Y28975D02*
D03*
Y25975D02*
D03*
X77550Y22425D02*
D03*
Y19425D02*
D03*
X58725Y22000D02*
D03*
Y19000D02*
D03*
X50500Y33000D02*
D03*
Y30000D02*
D03*
X75225Y23050D02*
D03*
Y20050D02*
D03*
X48400Y29900D02*
D03*
Y26900D02*
D03*
X46100Y29000D02*
D03*
Y26000D02*
D03*
D64*
X71000Y37675D02*
D03*
Y35875D02*
D03*
X51700Y34550D02*
D03*
Y36350D02*
D03*
X56650Y18200D02*
D03*
Y20000D02*
D03*
X41450Y25375D02*
D03*
Y27175D02*
D03*
X51200Y23000D02*
D03*
Y24800D02*
D03*
D65*
X58532Y1612D02*
D03*
Y7784D02*
D03*
X57532Y1612D02*
D03*
Y7784D02*
D03*
X58032Y1612D02*
D03*
Y7784D02*
D03*
X59032Y1612D02*
D03*
Y7784D02*
D03*
X59532Y1612D02*
D03*
Y7784D02*
D03*
X60032Y1612D02*
D03*
Y7784D02*
D03*
X60532Y1612D02*
D03*
Y7784D02*
D03*
X61032Y1612D02*
D03*
Y7784D02*
D03*
X61532Y1612D02*
D03*
Y7784D02*
D03*
X62032Y1612D02*
D03*
Y7784D02*
D03*
X62532Y1612D02*
D03*
Y7784D02*
D03*
X63032Y1612D02*
D03*
Y7784D02*
D03*
X63532Y1612D02*
D03*
Y7784D02*
D03*
X64032Y1612D02*
D03*
Y7784D02*
D03*
X64532Y1612D02*
D03*
Y7784D02*
D03*
X65032Y1612D02*
D03*
Y7784D02*
D03*
X65532D02*
D03*
X66032D02*
D03*
X66532Y1612D02*
D03*
Y7784D02*
D03*
X67032Y1612D02*
D03*
Y7784D02*
D03*
X67532Y1612D02*
D03*
Y7784D02*
D03*
X68032Y1612D02*
D03*
Y7784D02*
D03*
X68532Y1612D02*
D03*
Y7784D02*
D03*
X69032Y1612D02*
D03*
Y7784D02*
D03*
X69532Y1612D02*
D03*
Y7784D02*
D03*
X70032Y1612D02*
D03*
Y7784D02*
D03*
X70532D02*
D03*
X71032D02*
D03*
X71532D02*
D03*
X72032D02*
D03*
X71032Y1612D02*
D03*
X70532D02*
D03*
X66032D02*
D03*
X65532D02*
D03*
X72032D02*
D03*
X71532D02*
D03*
X15328D02*
D03*
Y7784D02*
D03*
X14328Y1612D02*
D03*
Y7784D02*
D03*
X14828Y1612D02*
D03*
Y7784D02*
D03*
X15828Y1612D02*
D03*
Y7784D02*
D03*
X16328Y1612D02*
D03*
Y7784D02*
D03*
X16828Y1612D02*
D03*
Y7784D02*
D03*
X17328Y1612D02*
D03*
Y7784D02*
D03*
X17828Y1612D02*
D03*
Y7784D02*
D03*
X18328Y1612D02*
D03*
Y7784D02*
D03*
X18828Y1612D02*
D03*
Y7784D02*
D03*
X19328Y1612D02*
D03*
Y7784D02*
D03*
X19828Y1612D02*
D03*
Y7784D02*
D03*
X20328Y1612D02*
D03*
Y7784D02*
D03*
X20828Y1612D02*
D03*
Y7784D02*
D03*
X21328Y1612D02*
D03*
Y7784D02*
D03*
X21828Y1612D02*
D03*
Y7784D02*
D03*
X22328D02*
D03*
X22828D02*
D03*
X23328Y1612D02*
D03*
Y7784D02*
D03*
X23828Y1612D02*
D03*
Y7784D02*
D03*
X24328Y1612D02*
D03*
Y7784D02*
D03*
X24828Y1612D02*
D03*
Y7784D02*
D03*
X25328Y1612D02*
D03*
Y7784D02*
D03*
X25828Y1612D02*
D03*
Y7784D02*
D03*
X26328Y1612D02*
D03*
Y7784D02*
D03*
X26828Y1612D02*
D03*
Y7784D02*
D03*
X27328D02*
D03*
X27828D02*
D03*
X28328D02*
D03*
X28828D02*
D03*
X27828Y1612D02*
D03*
X27328D02*
D03*
X22828D02*
D03*
X22328D02*
D03*
X28828D02*
D03*
X28328D02*
D03*
X58532Y46832D02*
D03*
Y53004D02*
D03*
X57532Y46832D02*
D03*
Y53004D02*
D03*
X58032Y46832D02*
D03*
Y53004D02*
D03*
X59032Y46832D02*
D03*
Y53004D02*
D03*
X59532Y46832D02*
D03*
Y53004D02*
D03*
X60032Y46832D02*
D03*
Y53004D02*
D03*
X60532Y46832D02*
D03*
Y53004D02*
D03*
X61032Y46832D02*
D03*
Y53004D02*
D03*
X61532Y46832D02*
D03*
Y53004D02*
D03*
X62032Y46832D02*
D03*
Y53004D02*
D03*
X62532Y46832D02*
D03*
Y53004D02*
D03*
X63032Y46832D02*
D03*
Y53004D02*
D03*
X63532Y46832D02*
D03*
Y53004D02*
D03*
X64032Y46832D02*
D03*
Y53004D02*
D03*
X64532Y46832D02*
D03*
Y53004D02*
D03*
X65032Y46832D02*
D03*
Y53004D02*
D03*
X65532D02*
D03*
X66032D02*
D03*
X66532Y46832D02*
D03*
Y53004D02*
D03*
X67032Y46832D02*
D03*
Y53004D02*
D03*
X67532Y46832D02*
D03*
Y53004D02*
D03*
X68032Y46832D02*
D03*
Y53004D02*
D03*
X68532Y46832D02*
D03*
Y53004D02*
D03*
X69032Y46832D02*
D03*
Y53004D02*
D03*
X69532Y46832D02*
D03*
Y53004D02*
D03*
X70032Y46832D02*
D03*
Y53004D02*
D03*
X70532D02*
D03*
X71032D02*
D03*
X71532D02*
D03*
X72032D02*
D03*
X71032Y46832D02*
D03*
X70532D02*
D03*
X66032D02*
D03*
X65532D02*
D03*
X72032D02*
D03*
X71532D02*
D03*
X15328D02*
D03*
Y53004D02*
D03*
X14328Y46832D02*
D03*
Y53004D02*
D03*
X14828Y46832D02*
D03*
Y53004D02*
D03*
X15828Y46832D02*
D03*
Y53004D02*
D03*
X16328Y46832D02*
D03*
Y53004D02*
D03*
X16828Y46832D02*
D03*
Y53004D02*
D03*
X17328Y46832D02*
D03*
Y53004D02*
D03*
X17828Y46832D02*
D03*
Y53004D02*
D03*
X18328Y46832D02*
D03*
Y53004D02*
D03*
X18828Y46832D02*
D03*
Y53004D02*
D03*
X19328Y46832D02*
D03*
Y53004D02*
D03*
X19828Y46832D02*
D03*
Y53004D02*
D03*
X20328Y46832D02*
D03*
Y53004D02*
D03*
X20828Y46832D02*
D03*
Y53004D02*
D03*
X21328Y46832D02*
D03*
Y53004D02*
D03*
X21828Y46832D02*
D03*
Y53004D02*
D03*
X22328D02*
D03*
X22828D02*
D03*
X23328Y46832D02*
D03*
Y53004D02*
D03*
X23828Y46832D02*
D03*
Y53004D02*
D03*
X24328Y46832D02*
D03*
Y53004D02*
D03*
X24828Y46832D02*
D03*
Y53004D02*
D03*
X25328Y46832D02*
D03*
Y53004D02*
D03*
X25828Y46832D02*
D03*
Y53004D02*
D03*
X26328Y46832D02*
D03*
Y53004D02*
D03*
X26828Y46832D02*
D03*
Y53004D02*
D03*
X27328D02*
D03*
X27828D02*
D03*
X28328D02*
D03*
X28828D02*
D03*
X27828Y46832D02*
D03*
X27328D02*
D03*
X22828D02*
D03*
X22328D02*
D03*
X28828D02*
D03*
X28328D02*
D03*
D66*
X77375Y25900D02*
D03*
X75575D02*
D03*
X52575Y38950D02*
D03*
X54375D02*
D03*
X77425Y35650D02*
D03*
X75625D02*
D03*
D67*
X75075Y32150D02*
D03*
X78075D02*
D03*
M02*
