G04 Layer_Color=32896*
%FSLAX43Y43*%
%MOMM*%
G71*
G01*
G75*
%ADD10C,0.100*%
%ADD45C,0.200*%
%ADD47C,0.300*%
%ADD60C,0.254*%
D10*
X42675Y25150D02*
X44975D01*
Y29800D01*
X42675D02*
X44975D01*
X42675Y25150D02*
Y29800D01*
X70000Y38525D02*
X72000D01*
X70000Y35025D02*
Y38525D01*
Y35025D02*
X72000D01*
Y38525D01*
X66600Y36600D02*
X68100D01*
X66600Y33500D02*
X68100D01*
X66600D02*
Y36600D01*
X68100Y33500D02*
Y36600D01*
X72775Y20150D02*
X74275D01*
X72775Y23250D02*
X74275D01*
Y20150D02*
Y23250D01*
X72775Y20150D02*
Y23250D01*
X79375Y23250D02*
Y24750D01*
X76275Y23250D02*
Y24750D01*
X79375D01*
X76275Y23250D02*
X79375D01*
X78225Y24900D02*
Y26900D01*
X74725D02*
X78225D01*
X74725Y24900D02*
Y26900D01*
Y24900D02*
X78225D01*
X75700Y33075D02*
Y34575D01*
X72600Y33075D02*
Y34575D01*
X75700D01*
X72600Y33075D02*
X75700D01*
X71775Y23075D02*
X73275D01*
X71775Y26175D02*
X73275D01*
Y23075D02*
Y26175D01*
X71775Y23075D02*
Y26175D01*
X77825Y26775D02*
Y28275D01*
X74725Y26775D02*
Y28275D01*
X77825D01*
X74725Y26775D02*
X77825D01*
X68750Y38125D02*
X70250D01*
X68750Y35025D02*
X70250D01*
X68750D02*
Y38125D01*
X70250Y35025D02*
Y38125D01*
X74850Y35775D02*
Y37275D01*
X71750Y35775D02*
Y37275D01*
X74850D01*
X71750Y35775D02*
X74850D01*
X77350Y29650D02*
Y31150D01*
X74250Y29650D02*
Y31150D01*
X77350D01*
X74250Y29650D02*
X77350D01*
X50700Y33700D02*
X52700D01*
Y37200D01*
X50700D02*
X52700D01*
X50700Y33700D02*
Y37200D01*
X58150Y38750D02*
Y40250D01*
X61250Y38750D02*
Y40250D01*
X58150Y38750D02*
X61250D01*
X58150Y40250D02*
X61250D01*
X59250Y45300D02*
X60750D01*
X59250Y42200D02*
X60750D01*
X59250D02*
Y45300D01*
X60750Y42200D02*
Y45300D01*
X55125Y37750D02*
Y39250D01*
X58225Y37750D02*
Y39250D01*
X55125Y37750D02*
X58225D01*
X55125Y39250D02*
X58225D01*
X65150Y40750D02*
Y42250D01*
X68250Y40750D02*
Y42250D01*
X65150Y40750D02*
X68250D01*
X65150Y42250D02*
X68250D01*
X69250Y40675D02*
X70750D01*
X69250Y43775D02*
X70750D01*
Y40675D02*
Y43775D01*
X69250Y40675D02*
Y43775D01*
X74100Y31800D02*
Y33300D01*
X71000Y31800D02*
Y33300D01*
X74100D01*
X71000Y31800D02*
X74100D01*
X55650Y17350D02*
X57650D01*
Y20850D01*
X55650D02*
X57650D01*
X55650Y17350D02*
Y20850D01*
X61350Y19125D02*
X62850D01*
X61350Y22225D02*
X62850D01*
Y19125D02*
Y22225D01*
X61350Y19125D02*
Y22225D01*
X62900Y20000D02*
X64400D01*
X62900Y23100D02*
X64400D01*
Y20000D02*
Y23100D01*
X62900Y20000D02*
Y23100D01*
X67750Y19125D02*
X69250D01*
X67750Y22225D02*
X69250D01*
Y19125D02*
Y22225D01*
X67750Y19125D02*
Y22225D01*
X66275Y17625D02*
X67775D01*
X66275Y20725D02*
X67775D01*
Y17625D02*
Y20725D01*
X66275Y17625D02*
Y20725D01*
X65825Y21000D02*
X67325D01*
X65825Y24100D02*
X67325D01*
Y21000D02*
Y24100D01*
X65825Y21000D02*
Y24100D01*
X59775Y19150D02*
X61275D01*
X59775Y22250D02*
X61275D01*
Y19150D02*
Y22250D01*
X59775Y19150D02*
Y22250D01*
X51725Y37950D02*
Y39950D01*
Y37950D02*
X55225D01*
Y39950D01*
X51725D02*
X55225D01*
X56350Y36250D02*
Y37750D01*
X53250Y36250D02*
Y37750D01*
X56350D01*
X53250Y36250D02*
X56350D01*
X52525Y40100D02*
Y41600D01*
X55625Y40100D02*
Y41600D01*
X52525Y40100D02*
X55625D01*
X52525Y41600D02*
X55625D01*
X53150Y33750D02*
Y35250D01*
X56250Y33750D02*
Y35250D01*
X53150Y33750D02*
X56250D01*
X53150Y35250D02*
X56250D01*
X69775Y19150D02*
X71275D01*
X69775Y22250D02*
X71275D01*
Y19150D02*
Y22250D01*
X69775Y19150D02*
Y22250D01*
X77850Y36775D02*
Y38275D01*
X74750Y36775D02*
Y38275D01*
X77850D01*
X74750Y36775D02*
X77850D01*
X67750Y40875D02*
X69250D01*
X67750Y37775D02*
X69250D01*
X67750D02*
Y40875D01*
X69250Y37775D02*
Y40875D01*
X78275Y34650D02*
Y36650D01*
X74775D02*
X78275D01*
X74775Y34650D02*
Y36650D01*
Y34650D02*
X78275D01*
X79450Y33250D02*
Y34750D01*
X76350Y33250D02*
Y34750D01*
X79450D01*
X76350Y33250D02*
X79450D01*
X58800Y36100D02*
X60300D01*
X58800Y33000D02*
X60300D01*
X58800D02*
Y36100D01*
X60300Y33000D02*
Y36100D01*
X59150Y35775D02*
Y37275D01*
X62250Y35775D02*
Y37275D01*
X59150Y35775D02*
X62250D01*
X59150Y37275D02*
X62250D01*
X57525Y37675D02*
X59025D01*
X57525Y34575D02*
X59025D01*
X57525D02*
Y37675D01*
X59025Y34575D02*
Y37675D01*
X55725Y43850D02*
X57225D01*
X55725Y40750D02*
X57225D01*
X55725D02*
Y43850D01*
X57225Y40750D02*
Y43850D01*
X64775Y40100D02*
X66275D01*
X64775Y37000D02*
X66275D01*
X64775D02*
Y40100D01*
X66275Y37000D02*
Y40100D01*
X40450Y24525D02*
X42450D01*
Y28025D01*
X40450D02*
X42450D01*
X40450Y24525D02*
Y28025D01*
X54950Y28750D02*
Y30250D01*
X58050Y28750D02*
Y30250D01*
X54950Y28750D02*
X58050D01*
X54950Y30250D02*
X58050D01*
X58550Y23950D02*
X60050D01*
X58550Y27050D02*
X60050D01*
Y23950D02*
Y27050D01*
X58550Y23950D02*
Y27050D01*
X58875Y25825D02*
Y27325D01*
X55775Y25825D02*
Y27325D01*
X58875D01*
X55775Y25825D02*
X58875D01*
X58525Y31025D02*
X60025D01*
X58525Y27925D02*
X60025D01*
X58525D02*
Y31025D01*
X60025Y27925D02*
Y31025D01*
X54950Y24575D02*
Y26075D01*
X58050Y24575D02*
Y26075D01*
X54950Y24575D02*
X58050D01*
X54950Y26075D02*
X58050D01*
X55750Y33050D02*
X57250D01*
X55750Y29950D02*
X57250D01*
X55750D02*
Y33050D01*
X57250Y29950D02*
Y33050D01*
X50200Y22150D02*
X52200D01*
Y25650D01*
X50200D02*
X52200D01*
X50200Y22150D02*
Y25650D01*
X55750Y20950D02*
X57250D01*
X55750Y24050D02*
X57250D01*
Y20950D02*
Y24050D01*
X55750Y20950D02*
Y24050D01*
X52750Y23200D02*
Y24700D01*
X55850Y23200D02*
Y24700D01*
X52750Y23200D02*
X55850D01*
X52750Y24700D02*
X55850D01*
X52450Y26250D02*
Y27750D01*
X55550Y26250D02*
Y27750D01*
X52450Y26250D02*
X55550D01*
X52450Y27750D02*
X55550D01*
X52475Y27550D02*
Y29050D01*
X55575Y27550D02*
Y29050D01*
X52475Y27550D02*
X55575D01*
X52475Y29050D02*
X55575D01*
X51550Y29275D02*
Y30775D01*
X54650Y29275D02*
Y30775D01*
X51550Y29275D02*
X54650D01*
X51550Y30775D02*
X54650D01*
X54425Y33050D02*
X55925D01*
X54425Y29950D02*
X55925D01*
X54425D02*
Y33050D01*
X55925Y29950D02*
Y33050D01*
X66550Y33700D02*
X68050D01*
X66550Y30600D02*
X68050D01*
X66550D02*
Y33700D01*
X68050Y30600D02*
Y33700D01*
X65050Y34050D02*
X66550D01*
X65050Y30950D02*
X66550D01*
X65050D02*
Y34050D01*
X66550Y30950D02*
Y34050D01*
X69750Y34050D02*
X71250D01*
X69750Y30950D02*
X71250D01*
X69750D02*
Y34050D01*
X71250Y30950D02*
Y34050D01*
X59775Y31950D02*
X61275D01*
X59775Y28850D02*
X61275D01*
X59775D02*
Y31950D01*
X61275Y28850D02*
Y31950D01*
X65800Y30800D02*
X67300D01*
X65800Y27700D02*
X67300D01*
X65800D02*
Y30800D01*
X67300Y27700D02*
Y30800D01*
X73000Y29125D02*
Y30625D01*
X69900Y29125D02*
Y30625D01*
X73000D01*
X69900Y29125D02*
X73000D01*
X63625Y29600D02*
X65125D01*
X63625Y32700D02*
X65125D01*
Y29600D02*
Y32700D01*
X63625Y29600D02*
Y32700D01*
X72125Y27775D02*
Y29275D01*
X69025Y27775D02*
Y29275D01*
X72125D01*
X69025Y27775D02*
X72125D01*
X61750Y32050D02*
X63250D01*
X61750Y28950D02*
X63250D01*
X61750D02*
Y32050D01*
X63250Y28950D02*
Y32050D01*
X61675Y21925D02*
X63175D01*
X61675Y25025D02*
X63175D01*
Y21925D02*
Y25025D01*
X61675Y21925D02*
Y25025D01*
X75025Y27750D02*
Y29250D01*
X71925Y27750D02*
Y29250D01*
X75025D01*
X71925Y27750D02*
X75025D01*
X67925Y23250D02*
X69425D01*
X67925Y26350D02*
X69425D01*
Y23250D02*
Y26350D01*
X67925Y23250D02*
Y26350D01*
X64300Y23325D02*
X65800D01*
X64300Y26425D02*
X65800D01*
Y23325D02*
Y26425D01*
X64300Y23325D02*
Y26425D01*
X67800Y29275D02*
X69300D01*
X67800Y26175D02*
X69300D01*
X67800D02*
Y29275D01*
X69300Y26175D02*
Y29275D01*
X59725Y29050D02*
X61225D01*
X59725Y25950D02*
X61225D01*
X59725D02*
Y29050D01*
X61225Y25950D02*
Y29050D01*
X60950Y27750D02*
Y29250D01*
X64050Y27750D02*
Y29250D01*
X60950Y27750D02*
X64050D01*
X60950Y29250D02*
X64050D01*
X76400Y18600D02*
X78700D01*
Y23250D01*
X76400D02*
X78700D01*
X76400Y18600D02*
Y23250D01*
X69775Y22000D02*
X71275D01*
X69775Y25100D02*
X71275D01*
Y22000D02*
Y25100D01*
X69775Y22000D02*
Y25100D01*
X71250Y19950D02*
X72750D01*
X71250Y23050D02*
X72750D01*
Y19950D02*
Y23050D01*
X71250Y19950D02*
Y23050D01*
X63600Y35600D02*
X65100D01*
X63600Y32500D02*
X65100D01*
X63600D02*
Y35600D01*
X65100Y32500D02*
Y35600D01*
X66550Y24025D02*
X68050D01*
X66550Y27125D02*
X68050D01*
Y24025D02*
Y27125D01*
X66550Y24025D02*
Y27125D01*
X74075Y30575D02*
Y32075D01*
X70975Y30575D02*
Y32075D01*
X74075D01*
X70975Y30575D02*
X74075D01*
X69750Y25000D02*
X71250D01*
X69750Y28100D02*
X71250D01*
Y25000D02*
Y28100D01*
X69750Y25000D02*
Y28100D01*
X63825Y29775D02*
X65325D01*
X63825Y26675D02*
X65325D01*
X63825D02*
Y29775D01*
X65325Y26675D02*
Y29775D01*
X62950Y23300D02*
X64450D01*
X62950Y26400D02*
X64450D01*
Y23300D02*
Y26400D01*
X62950Y23300D02*
Y26400D01*
X61750Y24950D02*
X63250D01*
X61750Y28050D02*
X63250D01*
Y24950D02*
Y28050D01*
X61750Y24950D02*
Y28050D01*
X74400Y25900D02*
Y27400D01*
X71300Y25900D02*
Y27400D01*
X74400D01*
X71300Y25900D02*
X74400D01*
X64825Y37225D02*
X66325D01*
X64825Y34125D02*
X66325D01*
X64825D02*
Y37225D01*
X66325Y34125D02*
Y37225D01*
X67750Y32050D02*
X69250D01*
X67750Y28950D02*
X69250D01*
X67750D02*
Y32050D01*
X69250Y28950D02*
Y32050D01*
X67825Y35025D02*
X69325D01*
X67825Y31925D02*
X69325D01*
X67825D02*
Y35025D01*
X69325Y31925D02*
Y35025D01*
X57950Y31750D02*
Y33250D01*
X61050Y31750D02*
Y33250D01*
X57950Y31750D02*
X61050D01*
X57950Y33250D02*
X61050D01*
X60825Y34850D02*
X62325D01*
X60825Y31750D02*
X62325D01*
X60825D02*
Y34850D01*
X62325Y31750D02*
Y34850D01*
X62350Y35050D02*
X63850D01*
X62350Y31950D02*
X63850D01*
X62350D02*
Y35050D01*
X63850Y31950D02*
Y35050D01*
X72250Y33775D02*
Y35275D01*
X69150Y33775D02*
Y35275D01*
X72250D01*
X69150Y33775D02*
X72250D01*
X57575Y18175D02*
X59875D01*
Y22825D01*
X57575D02*
X59875D01*
X57575Y18175D02*
Y22825D01*
X49350Y29175D02*
X51650D01*
Y33825D01*
X49350D02*
X51650D01*
X49350Y29175D02*
Y33825D01*
X74075Y19225D02*
X76375D01*
Y23875D01*
X74075D02*
X76375D01*
X74075Y19225D02*
Y23875D01*
X78900Y31000D02*
Y33300D01*
X74250D02*
X78900D01*
X74250Y31000D02*
Y33300D01*
Y31000D02*
X78900D01*
X47250Y26075D02*
X49550D01*
Y30725D01*
X47250D02*
X49550D01*
X47250Y26075D02*
Y30725D01*
X44950Y25175D02*
X47250D01*
Y29825D01*
X44950D02*
X47250D01*
X44950Y25175D02*
Y29825D01*
X43425Y25800D02*
X43525Y25700D01*
Y25500D01*
X43425Y25400D01*
X43025D01*
X42925Y25500D01*
Y25700D01*
X43025Y25800D01*
X42925Y26000D02*
Y26200D01*
Y26100D01*
X43525D01*
X43425Y26000D01*
X42925Y26800D02*
X43525D01*
X43225Y26500D01*
Y26900D01*
X43425Y27099D02*
X43525Y27199D01*
Y27399D01*
X43425Y27499D01*
X43025D01*
X42925Y27399D01*
Y27199D01*
X43025Y27099D01*
X43425D01*
X71100Y36050D02*
X71200Y35950D01*
Y35750D01*
X71100Y35650D01*
X70700D01*
X70600Y35750D01*
Y35950D01*
X70700Y36050D01*
X70600Y36250D02*
Y36450D01*
Y36350D01*
X71200D01*
X71100Y36250D01*
X70600Y37150D02*
Y36750D01*
X71000Y37150D01*
X71100D01*
X71200Y37050D01*
Y36850D01*
X71100Y36750D01*
X71200Y37349D02*
Y37749D01*
X71100D01*
X70700Y37349D01*
X70600D01*
X67425Y34300D02*
X67525Y34200D01*
Y34000D01*
X67425Y33900D01*
X67025D01*
X66925Y34000D01*
Y34200D01*
X67025Y34300D01*
X66925Y34500D02*
Y34700D01*
Y34600D01*
X67525D01*
X67425Y34500D01*
Y35000D02*
X67525Y35100D01*
Y35300D01*
X67425Y35400D01*
X67325D01*
X67225Y35300D01*
Y35200D01*
Y35300D01*
X67125Y35400D01*
X67025D01*
X66925Y35300D01*
Y35100D01*
X67025Y35000D01*
X67425Y35599D02*
X67525Y35699D01*
Y35899D01*
X67425Y35999D01*
X67325D01*
X67225Y35899D01*
Y35799D01*
Y35899D01*
X67125Y35999D01*
X67025D01*
X66925Y35899D01*
Y35699D01*
X67025Y35599D01*
X73375Y20675D02*
X73475Y20575D01*
Y20375D01*
X73375Y20275D01*
X72975D01*
X72875Y20375D01*
Y20575D01*
X72975Y20675D01*
X72875Y21175D02*
X73475D01*
X73175Y20875D01*
Y21275D01*
X73475Y21475D02*
Y21874D01*
X73375D01*
X72975Y21475D01*
X72875D01*
X78350Y24200D02*
X78450Y24300D01*
X78650D01*
X78750Y24200D01*
Y23800D01*
X78650Y23700D01*
X78450D01*
X78350Y23800D01*
X77850Y23700D02*
Y24300D01*
X78150Y24000D01*
X77750D01*
X77550Y24200D02*
X77450Y24300D01*
X77250D01*
X77151Y24200D01*
Y24100D01*
X77250Y24000D01*
X77151Y23900D01*
Y23800D01*
X77250Y23700D01*
X77450D01*
X77550Y23800D01*
Y23900D01*
X77450Y24000D01*
X77550Y24100D01*
Y24200D01*
X77450Y24000D02*
X77250D01*
X77150Y26000D02*
X77250Y26100D01*
X77450D01*
X77550Y26000D01*
Y25600D01*
X77450Y25500D01*
X77250D01*
X77150Y25600D01*
X76650Y25500D02*
Y26100D01*
X76950Y25800D01*
X76550D01*
X76350Y25600D02*
X76250Y25500D01*
X76050D01*
X75951Y25600D01*
Y26000D01*
X76050Y26100D01*
X76250D01*
X76350Y26000D01*
Y25900D01*
X76250Y25800D01*
X75951D01*
X74600Y34100D02*
X74700Y34200D01*
X74900D01*
X75000Y34100D01*
Y33700D01*
X74900Y33600D01*
X74700D01*
X74600Y33700D01*
X74000Y34200D02*
X74400D01*
Y33900D01*
X74200Y34000D01*
X74100D01*
X74000Y33900D01*
Y33700D01*
X74100Y33600D01*
X74300D01*
X74400Y33700D01*
X73800Y34100D02*
X73700Y34200D01*
X73500D01*
X73401Y34100D01*
Y33700D01*
X73500Y33600D01*
X73700D01*
X73800Y33700D01*
Y34100D01*
X72675Y24275D02*
X72775Y24175D01*
Y23975D01*
X72675Y23875D01*
X72275D01*
X72175Y23975D01*
Y24175D01*
X72275Y24275D01*
X72775Y24875D02*
Y24475D01*
X72475D01*
X72575Y24675D01*
Y24775D01*
X72475Y24875D01*
X72275D01*
X72175Y24775D01*
Y24575D01*
X72275Y24475D01*
X72175Y25075D02*
Y25275D01*
Y25175D01*
X72775D01*
X72675Y25075D01*
X76850Y27750D02*
X76950Y27850D01*
X77150D01*
X77250Y27750D01*
Y27350D01*
X77150Y27250D01*
X76950D01*
X76850Y27350D01*
X76250Y27850D02*
X76650D01*
Y27550D01*
X76450Y27650D01*
X76350D01*
X76250Y27550D01*
Y27350D01*
X76350Y27250D01*
X76550D01*
X76650Y27350D01*
X75651Y27250D02*
X76050D01*
X75651Y27650D01*
Y27750D01*
X75750Y27850D01*
X75950D01*
X76050Y27750D01*
X69525Y36000D02*
X69625Y35900D01*
Y35700D01*
X69525Y35600D01*
X69125D01*
X69025Y35700D01*
Y35900D01*
X69125Y36000D01*
X69625Y36600D02*
Y36200D01*
X69325D01*
X69425Y36400D01*
Y36500D01*
X69325Y36600D01*
X69125D01*
X69025Y36500D01*
Y36300D01*
X69125Y36200D01*
X69525Y36800D02*
X69625Y36900D01*
Y37100D01*
X69525Y37199D01*
X69425D01*
X69325Y37100D01*
Y37000D01*
Y37100D01*
X69225Y37199D01*
X69125D01*
X69025Y37100D01*
Y36900D01*
X69125Y36800D01*
X73725Y36700D02*
X73825Y36800D01*
X74025D01*
X74125Y36700D01*
Y36300D01*
X74025Y36200D01*
X73825D01*
X73725Y36300D01*
X73125Y36800D02*
X73525D01*
Y36500D01*
X73325Y36600D01*
X73225D01*
X73125Y36500D01*
Y36300D01*
X73225Y36200D01*
X73425D01*
X73525Y36300D01*
X72625Y36200D02*
Y36800D01*
X72925Y36500D01*
X72526D01*
X76375Y30525D02*
X76475Y30625D01*
X76675D01*
X76775Y30525D01*
Y30125D01*
X76675Y30025D01*
X76475D01*
X76375Y30125D01*
X75775Y30625D02*
X76175D01*
Y30325D01*
X75975Y30425D01*
X75875D01*
X75775Y30325D01*
Y30125D01*
X75875Y30025D01*
X76075D01*
X76175Y30125D01*
X75176Y30625D02*
X75575D01*
Y30325D01*
X75375Y30425D01*
X75275D01*
X75176Y30325D01*
Y30125D01*
X75275Y30025D01*
X75475D01*
X75575Y30125D01*
X51775Y34900D02*
X51875Y34800D01*
Y34600D01*
X51775Y34500D01*
X51375D01*
X51275Y34600D01*
Y34800D01*
X51375Y34900D01*
X51875Y35500D02*
Y35100D01*
X51575D01*
X51675Y35300D01*
Y35400D01*
X51575Y35500D01*
X51375D01*
X51275Y35400D01*
Y35200D01*
X51375Y35100D01*
X51875Y36099D02*
X51775Y35900D01*
X51575Y35700D01*
X51375D01*
X51275Y35800D01*
Y36000D01*
X51375Y36099D01*
X51475D01*
X51575Y36000D01*
Y35700D01*
X60601Y39539D02*
X60701Y39639D01*
X60901D01*
X61001Y39539D01*
Y39139D01*
X60901Y39039D01*
X60701D01*
X60601Y39139D01*
X60001Y39639D02*
X60401D01*
Y39339D01*
X60201Y39439D01*
X60101D01*
X60001Y39339D01*
Y39139D01*
X60101Y39039D01*
X60301D01*
X60401Y39139D01*
X59801Y39639D02*
X59402D01*
Y39539D01*
X59801Y39139D01*
Y39039D01*
X60014Y42824D02*
X60114Y42724D01*
Y42524D01*
X60014Y42424D01*
X59614D01*
X59514Y42524D01*
Y42724D01*
X59614Y42824D01*
X60114Y43424D02*
Y43024D01*
X59814D01*
X59914Y43224D01*
Y43324D01*
X59814Y43424D01*
X59614D01*
X59514Y43324D01*
Y43124D01*
X59614Y43024D01*
X60014Y43624D02*
X60114Y43724D01*
Y43924D01*
X60014Y44023D01*
X59914D01*
X59814Y43924D01*
X59714Y44023D01*
X59614D01*
X59514Y43924D01*
Y43724D01*
X59614Y43624D01*
X59714D01*
X59814Y43724D01*
X59914Y43624D01*
X60014D01*
X59814Y43724D02*
Y43924D01*
X57576Y38539D02*
X57676Y38639D01*
X57876D01*
X57976Y38539D01*
Y38139D01*
X57876Y38039D01*
X57676D01*
X57576Y38139D01*
X56976Y38639D02*
X57376D01*
Y38339D01*
X57176Y38439D01*
X57076D01*
X56976Y38339D01*
Y38139D01*
X57076Y38039D01*
X57276D01*
X57376Y38139D01*
X56776D02*
X56676Y38039D01*
X56476D01*
X56376Y38139D01*
Y38539D01*
X56476Y38639D01*
X56676D01*
X56776Y38539D01*
Y38439D01*
X56676Y38339D01*
X56376D01*
X67601Y41539D02*
X67701Y41639D01*
X67901D01*
X68001Y41539D01*
Y41139D01*
X67901Y41039D01*
X67701D01*
X67601Y41139D01*
X67001Y41639D02*
X67201Y41539D01*
X67401Y41339D01*
Y41139D01*
X67301Y41039D01*
X67101D01*
X67001Y41139D01*
Y41239D01*
X67101Y41339D01*
X67401D01*
X66801Y41539D02*
X66701Y41639D01*
X66501D01*
X66402Y41539D01*
Y41139D01*
X66501Y41039D01*
X66701D01*
X66801Y41139D01*
Y41539D01*
X69711Y41201D02*
X69811Y41101D01*
Y40901D01*
X69711Y40801D01*
X69311D01*
X69211Y40901D01*
Y41101D01*
X69311Y41201D01*
X69811Y41801D02*
X69711Y41601D01*
X69511Y41401D01*
X69311D01*
X69211Y41501D01*
Y41701D01*
X69311Y41801D01*
X69411D01*
X69511Y41701D01*
Y41401D01*
X69211Y42001D02*
Y42201D01*
Y42101D01*
X69811D01*
X69711Y42001D01*
X73450Y32650D02*
X73550Y32750D01*
X73750D01*
X73850Y32650D01*
Y32250D01*
X73750Y32150D01*
X73550D01*
X73450Y32250D01*
X72850Y32750D02*
X73050Y32650D01*
X73250Y32450D01*
Y32250D01*
X73150Y32150D01*
X72950D01*
X72850Y32250D01*
Y32350D01*
X72950Y32450D01*
X73250D01*
X72251Y32150D02*
X72650D01*
X72251Y32550D01*
Y32650D01*
X72350Y32750D01*
X72550D01*
X72650Y32650D01*
X56600Y19950D02*
X56500Y20050D01*
Y20250D01*
X56600Y20350D01*
X57000D01*
X57100Y20250D01*
Y20050D01*
X57000Y19950D01*
X56500Y19350D02*
X56600Y19550D01*
X56800Y19750D01*
X57000D01*
X57100Y19650D01*
Y19450D01*
X57000Y19350D01*
X56900D01*
X56800Y19450D01*
Y19750D01*
X56600Y19150D02*
X56500Y19050D01*
Y18851D01*
X56600Y18751D01*
X56700D01*
X56800Y18851D01*
Y18950D01*
Y18851D01*
X56900Y18751D01*
X57000D01*
X57100Y18851D01*
Y19050D01*
X57000Y19150D01*
X62086Y21601D02*
X61986Y21701D01*
Y21901D01*
X62086Y22001D01*
X62486D01*
X62586Y21901D01*
Y21701D01*
X62486Y21601D01*
X61986Y21001D02*
X62086Y21201D01*
X62286Y21401D01*
X62486D01*
X62586Y21301D01*
Y21101D01*
X62486Y21001D01*
X62386D01*
X62286Y21101D01*
Y21401D01*
X62586Y20501D02*
X61986D01*
X62286Y20801D01*
Y20402D01*
X63636Y22476D02*
X63536Y22576D01*
Y22776D01*
X63636Y22876D01*
X64036D01*
X64136Y22776D01*
Y22576D01*
X64036Y22476D01*
X63536Y21876D02*
X63636Y22076D01*
X63836Y22276D01*
X64036D01*
X64136Y22176D01*
Y21976D01*
X64036Y21876D01*
X63936D01*
X63836Y21976D01*
Y22276D01*
X63536Y21277D02*
Y21676D01*
X63836D01*
X63736Y21476D01*
Y21376D01*
X63836Y21277D01*
X64036D01*
X64136Y21376D01*
Y21576D01*
X64036Y21676D01*
X68211Y19651D02*
X68311Y19551D01*
Y19351D01*
X68211Y19251D01*
X67811D01*
X67711Y19351D01*
Y19551D01*
X67811Y19651D01*
X68311Y20251D02*
X68211Y20051D01*
X68011Y19851D01*
X67811D01*
X67711Y19951D01*
Y20151D01*
X67811Y20251D01*
X67911D01*
X68011Y20151D01*
Y19851D01*
X68311Y20850D02*
X68211Y20651D01*
X68011Y20451D01*
X67811D01*
X67711Y20551D01*
Y20751D01*
X67811Y20850D01*
X67911D01*
X68011Y20751D01*
Y20451D01*
X67250Y18800D02*
X67350Y18700D01*
Y18500D01*
X67250Y18400D01*
X66850D01*
X66750Y18500D01*
Y18700D01*
X66850Y18800D01*
X67350Y19400D02*
X67250Y19200D01*
X67050Y19000D01*
X66850D01*
X66750Y19100D01*
Y19300D01*
X66850Y19400D01*
X66950D01*
X67050Y19300D01*
Y19000D01*
X67350Y19600D02*
Y19999D01*
X67250D01*
X66850Y19600D01*
X66750D01*
X66700Y22025D02*
X66800Y21925D01*
Y21725D01*
X66700Y21625D01*
X66300D01*
X66200Y21725D01*
Y21925D01*
X66300Y22025D01*
X66800Y22625D02*
X66700Y22425D01*
X66500Y22225D01*
X66300D01*
X66200Y22325D01*
Y22525D01*
X66300Y22625D01*
X66400D01*
X66500Y22525D01*
Y22225D01*
X66700Y22825D02*
X66800Y22925D01*
Y23125D01*
X66700Y23224D01*
X66600D01*
X66500Y23125D01*
X66400Y23224D01*
X66300D01*
X66200Y23125D01*
Y22925D01*
X66300Y22825D01*
X66400D01*
X66500Y22925D01*
X66600Y22825D01*
X66700D01*
X66500Y22925D02*
Y23125D01*
X60700Y20175D02*
X60800Y20075D01*
Y19875D01*
X60700Y19775D01*
X60300D01*
X60200Y19875D01*
Y20075D01*
X60300Y20175D01*
X60800Y20775D02*
X60700Y20575D01*
X60500Y20375D01*
X60300D01*
X60200Y20475D01*
Y20675D01*
X60300Y20775D01*
X60400D01*
X60500Y20675D01*
Y20375D01*
X60300Y20975D02*
X60200Y21075D01*
Y21275D01*
X60300Y21374D01*
X60700D01*
X60800Y21275D01*
Y21075D01*
X60700Y20975D01*
X60600D01*
X60500Y21075D01*
Y21374D01*
X54376Y38862D02*
X54476Y38962D01*
X54676D01*
X54776Y38862D01*
Y38462D01*
X54676Y38362D01*
X54476D01*
X54376Y38462D01*
X54176Y38962D02*
X53776D01*
Y38862D01*
X54176Y38462D01*
Y38362D01*
X53576Y38862D02*
X53476Y38962D01*
X53276D01*
X53177Y38862D01*
Y38462D01*
X53276Y38362D01*
X53476D01*
X53576Y38462D01*
Y38862D01*
X55550Y37075D02*
X55650Y37175D01*
X55850D01*
X55950Y37075D01*
Y36675D01*
X55850Y36575D01*
X55650D01*
X55550Y36675D01*
X55350Y37175D02*
X54950D01*
Y37075D01*
X55350Y36675D01*
Y36575D01*
X54750D02*
X54550D01*
X54650D01*
Y37175D01*
X54750Y37075D01*
X54976Y40889D02*
X55076Y40989D01*
X55276D01*
X55376Y40889D01*
Y40489D01*
X55276Y40389D01*
X55076D01*
X54976Y40489D01*
X54776Y40989D02*
X54376D01*
Y40889D01*
X54776Y40489D01*
Y40389D01*
X53777D02*
X54176D01*
X53777Y40789D01*
Y40889D01*
X53876Y40989D01*
X54076D01*
X54176Y40889D01*
X53975Y34500D02*
X53875Y34400D01*
X53675D01*
X53575Y34500D01*
Y34900D01*
X53675Y35000D01*
X53875D01*
X53975Y34900D01*
X54175Y34400D02*
X54575D01*
Y34500D01*
X54175Y34900D01*
Y35000D01*
X54775Y34500D02*
X54875Y34400D01*
X55075D01*
X55174Y34500D01*
Y34600D01*
X55075Y34700D01*
X54975D01*
X55075D01*
X55174Y34800D01*
Y34900D01*
X55075Y35000D01*
X54875D01*
X54775Y34900D01*
X70525Y19675D02*
X70625Y19575D01*
Y19375D01*
X70525Y19275D01*
X70125D01*
X70025Y19375D01*
Y19575D01*
X70125Y19675D01*
X70625Y19875D02*
Y20275D01*
X70525D01*
X70125Y19875D01*
X70025D01*
Y20775D02*
X70625D01*
X70325Y20475D01*
Y20874D01*
X77225Y37525D02*
X77325Y37625D01*
X77525D01*
X77625Y37525D01*
Y37125D01*
X77525Y37025D01*
X77325D01*
X77225Y37125D01*
X77025Y37625D02*
X76625D01*
Y37525D01*
X77025Y37125D01*
Y37025D01*
X76026Y37625D02*
X76425D01*
Y37325D01*
X76225Y37425D01*
X76125D01*
X76026Y37325D01*
Y37125D01*
X76125Y37025D01*
X76325D01*
X76425Y37125D01*
X68375Y40050D02*
X68275Y40150D01*
Y40350D01*
X68375Y40450D01*
X68775D01*
X68875Y40350D01*
Y40150D01*
X68775Y40050D01*
X68275Y39850D02*
Y39450D01*
X68375D01*
X68775Y39850D01*
X68875D01*
X68275Y38851D02*
X68375Y39050D01*
X68575Y39250D01*
X68775D01*
X68875Y39150D01*
Y38950D01*
X68775Y38851D01*
X68675D01*
X68575Y38950D01*
Y39250D01*
X77175Y35750D02*
X77275Y35850D01*
X77475D01*
X77575Y35750D01*
Y35350D01*
X77475Y35250D01*
X77275D01*
X77175Y35350D01*
X76975Y35850D02*
X76575D01*
Y35750D01*
X76975Y35350D01*
Y35250D01*
X76375Y35850D02*
X75976D01*
Y35750D01*
X76375Y35350D01*
Y35250D01*
X78625Y34125D02*
X78725Y34225D01*
X78925D01*
X79025Y34125D01*
Y33725D01*
X78925Y33625D01*
X78725D01*
X78625Y33725D01*
X78425Y34225D02*
X78025D01*
Y34125D01*
X78425Y33725D01*
Y33625D01*
X77825Y34125D02*
X77725Y34225D01*
X77525D01*
X77426Y34125D01*
Y34025D01*
X77525Y33925D01*
X77426Y33825D01*
Y33725D01*
X77525Y33625D01*
X77725D01*
X77825Y33725D01*
Y33825D01*
X77725Y33925D01*
X77825Y34025D01*
Y34125D01*
X77725Y33925D02*
X77525D01*
X59775Y34000D02*
X59875Y33900D01*
Y33700D01*
X59775Y33600D01*
X59375D01*
X59275Y33700D01*
Y33900D01*
X59375Y34000D01*
X59875Y34200D02*
Y34600D01*
X59775D01*
X59375Y34200D01*
X59275D01*
X59375Y34800D02*
X59275Y34900D01*
Y35100D01*
X59375Y35199D01*
X59775D01*
X59875Y35100D01*
Y34900D01*
X59775Y34800D01*
X59675D01*
X59575Y34900D01*
Y35199D01*
X61601Y36564D02*
X61701Y36664D01*
X61901D01*
X62001Y36564D01*
Y36164D01*
X61901Y36064D01*
X61701D01*
X61601Y36164D01*
X61401Y36564D02*
X61301Y36664D01*
X61101D01*
X61001Y36564D01*
Y36464D01*
X61101Y36364D01*
X61001Y36264D01*
Y36164D01*
X61101Y36064D01*
X61301D01*
X61401Y36164D01*
Y36264D01*
X61301Y36364D01*
X61401Y36464D01*
Y36564D01*
X61301Y36364D02*
X61101D01*
X60801Y36564D02*
X60701Y36664D01*
X60501D01*
X60402Y36564D01*
Y36164D01*
X60501Y36064D01*
X60701D01*
X60801Y36164D01*
Y36564D01*
X58289Y35199D02*
X58389Y35099D01*
Y34899D01*
X58289Y34799D01*
X57889D01*
X57789Y34899D01*
Y35099D01*
X57889Y35199D01*
X58289Y35399D02*
X58389Y35499D01*
Y35699D01*
X58289Y35799D01*
X58189D01*
X58089Y35699D01*
X57989Y35799D01*
X57889D01*
X57789Y35699D01*
Y35499D01*
X57889Y35399D01*
X57989D01*
X58089Y35499D01*
X58189Y35399D01*
X58289D01*
X58089Y35499D02*
Y35699D01*
X57789Y35999D02*
Y36199D01*
Y36099D01*
X58389D01*
X58289Y35999D01*
X56489Y41374D02*
X56589Y41274D01*
Y41074D01*
X56489Y40974D01*
X56089D01*
X55989Y41074D01*
Y41274D01*
X56089Y41374D01*
X56489Y41574D02*
X56589Y41674D01*
Y41874D01*
X56489Y41974D01*
X56389D01*
X56289Y41874D01*
X56189Y41974D01*
X56089D01*
X55989Y41874D01*
Y41674D01*
X56089Y41574D01*
X56189D01*
X56289Y41674D01*
X56389Y41574D01*
X56489D01*
X56289Y41674D02*
Y41874D01*
X55989Y42573D02*
Y42174D01*
X56389Y42573D01*
X56489D01*
X56589Y42474D01*
Y42274D01*
X56489Y42174D01*
X65775Y38150D02*
X65875Y38050D01*
Y37850D01*
X65775Y37750D01*
X65375D01*
X65275Y37850D01*
Y38050D01*
X65375Y38150D01*
X65775Y38350D02*
X65875Y38450D01*
Y38650D01*
X65775Y38750D01*
X65675D01*
X65575Y38650D01*
X65475Y38750D01*
X65375D01*
X65275Y38650D01*
Y38450D01*
X65375Y38350D01*
X65475D01*
X65575Y38450D01*
X65675Y38350D01*
X65775D01*
X65575Y38450D02*
Y38650D01*
X65775Y38950D02*
X65875Y39050D01*
Y39250D01*
X65775Y39349D01*
X65675D01*
X65575Y39250D01*
Y39150D01*
Y39250D01*
X65475Y39349D01*
X65375D01*
X65275Y39250D01*
Y39050D01*
X65375Y38950D01*
X41288Y25251D02*
X41388Y25151D01*
Y24951D01*
X41288Y24851D01*
X40888D01*
X40788Y24951D01*
Y25151D01*
X40888Y25251D01*
X41288Y25451D02*
X41388Y25551D01*
Y25751D01*
X41288Y25851D01*
X41188D01*
X41088Y25751D01*
X40988Y25851D01*
X40888D01*
X40788Y25751D01*
Y25551D01*
X40888Y25451D01*
X40988D01*
X41088Y25551D01*
X41188Y25451D01*
X41288D01*
X41088Y25551D02*
Y25751D01*
X40788Y26351D02*
X41388D01*
X41088Y26051D01*
Y26450D01*
X57401Y29539D02*
X57501Y29639D01*
X57701D01*
X57801Y29539D01*
Y29139D01*
X57701Y29039D01*
X57501D01*
X57401Y29139D01*
X57201Y29539D02*
X57101Y29639D01*
X56901D01*
X56801Y29539D01*
Y29439D01*
X56901Y29339D01*
X56801Y29239D01*
Y29139D01*
X56901Y29039D01*
X57101D01*
X57201Y29139D01*
Y29239D01*
X57101Y29339D01*
X57201Y29439D01*
Y29539D01*
X57101Y29339D02*
X56901D01*
X56201Y29639D02*
X56601D01*
Y29339D01*
X56401Y29439D01*
X56301D01*
X56201Y29339D01*
Y29139D01*
X56301Y29039D01*
X56501D01*
X56601Y29139D01*
X59525Y24600D02*
X59625Y24500D01*
Y24300D01*
X59525Y24200D01*
X59125D01*
X59025Y24300D01*
Y24500D01*
X59125Y24600D01*
X59525Y24800D02*
X59625Y24900D01*
Y25100D01*
X59525Y25200D01*
X59425D01*
X59325Y25100D01*
X59225Y25200D01*
X59125D01*
X59025Y25100D01*
Y24900D01*
X59125Y24800D01*
X59225D01*
X59325Y24900D01*
X59425Y24800D01*
X59525D01*
X59325Y24900D02*
Y25100D01*
X59625Y25799D02*
X59525Y25600D01*
X59325Y25400D01*
X59125D01*
X59025Y25500D01*
Y25700D01*
X59125Y25799D01*
X59225D01*
X59325Y25700D01*
Y25400D01*
X57775Y26800D02*
X57875Y26900D01*
X58075D01*
X58175Y26800D01*
Y26400D01*
X58075Y26300D01*
X57875D01*
X57775Y26400D01*
X57575Y26800D02*
X57475Y26900D01*
X57275D01*
X57175Y26800D01*
Y26700D01*
X57275Y26600D01*
X57175Y26500D01*
Y26400D01*
X57275Y26300D01*
X57475D01*
X57575Y26400D01*
Y26500D01*
X57475Y26600D01*
X57575Y26700D01*
Y26800D01*
X57475Y26600D02*
X57275D01*
X56975Y26900D02*
X56576D01*
Y26800D01*
X56975Y26400D01*
Y26300D01*
X59289Y28549D02*
X59389Y28449D01*
Y28249D01*
X59289Y28149D01*
X58889D01*
X58789Y28249D01*
Y28449D01*
X58889Y28549D01*
X59289Y28749D02*
X59389Y28849D01*
Y29049D01*
X59289Y29149D01*
X59189D01*
X59089Y29049D01*
X58989Y29149D01*
X58889D01*
X58789Y29049D01*
Y28849D01*
X58889Y28749D01*
X58989D01*
X59089Y28849D01*
X59189Y28749D01*
X59289D01*
X59089Y28849D02*
Y29049D01*
X59289Y29349D02*
X59389Y29449D01*
Y29649D01*
X59289Y29748D01*
X59189D01*
X59089Y29649D01*
X58989Y29748D01*
X58889D01*
X58789Y29649D01*
Y29449D01*
X58889Y29349D01*
X58989D01*
X59089Y29449D01*
X59189Y29349D01*
X59289D01*
X59089Y29449D02*
Y29649D01*
X57401Y25364D02*
X57501Y25464D01*
X57701D01*
X57801Y25364D01*
Y24964D01*
X57701Y24864D01*
X57501D01*
X57401Y24964D01*
X57201Y25364D02*
X57101Y25464D01*
X56901D01*
X56801Y25364D01*
Y25264D01*
X56901Y25164D01*
X56801Y25064D01*
Y24964D01*
X56901Y24864D01*
X57101D01*
X57201Y24964D01*
Y25064D01*
X57101Y25164D01*
X57201Y25264D01*
Y25364D01*
X57101Y25164D02*
X56901D01*
X56601Y24964D02*
X56501Y24864D01*
X56301D01*
X56201Y24964D01*
Y25364D01*
X56301Y25464D01*
X56501D01*
X56601Y25364D01*
Y25264D01*
X56501Y25164D01*
X56201D01*
X56725Y31150D02*
X56825Y31050D01*
Y30850D01*
X56725Y30750D01*
X56325D01*
X56225Y30850D01*
Y31050D01*
X56325Y31150D01*
Y31350D02*
X56225Y31450D01*
Y31650D01*
X56325Y31750D01*
X56725D01*
X56825Y31650D01*
Y31450D01*
X56725Y31350D01*
X56625D01*
X56525Y31450D01*
Y31750D01*
X56725Y31950D02*
X56825Y32050D01*
Y32250D01*
X56725Y32349D01*
X56325D01*
X56225Y32250D01*
Y32050D01*
X56325Y31950D01*
X56725D01*
X51038Y22876D02*
X51138Y22776D01*
Y22576D01*
X51038Y22476D01*
X50638D01*
X50538Y22576D01*
Y22776D01*
X50638Y22876D01*
Y23076D02*
X50538Y23176D01*
Y23376D01*
X50638Y23476D01*
X51038D01*
X51138Y23376D01*
Y23176D01*
X51038Y23076D01*
X50938D01*
X50838Y23176D01*
Y23476D01*
X50538Y23676D02*
Y23876D01*
Y23776D01*
X51138D01*
X51038Y23676D01*
X56550Y21650D02*
X56650Y21550D01*
Y21350D01*
X56550Y21250D01*
X56150D01*
X56050Y21350D01*
Y21550D01*
X56150Y21650D01*
Y21850D02*
X56050Y21950D01*
Y22150D01*
X56150Y22250D01*
X56550D01*
X56650Y22150D01*
Y21950D01*
X56550Y21850D01*
X56450D01*
X56350Y21950D01*
Y22250D01*
X56050Y22849D02*
Y22450D01*
X56450Y22849D01*
X56550D01*
X56650Y22750D01*
Y22550D01*
X56550Y22450D01*
X55075Y24000D02*
X55175Y24100D01*
X55375D01*
X55475Y24000D01*
Y23600D01*
X55375Y23500D01*
X55175D01*
X55075Y23600D01*
X54875D02*
X54775Y23500D01*
X54575D01*
X54475Y23600D01*
Y24000D01*
X54575Y24100D01*
X54775D01*
X54875Y24000D01*
Y23900D01*
X54775Y23800D01*
X54475D01*
X54275Y24000D02*
X54175Y24100D01*
X53975D01*
X53876Y24000D01*
Y23900D01*
X53975Y23800D01*
X54075D01*
X53975D01*
X53876Y23700D01*
Y23600D01*
X53975Y23500D01*
X54175D01*
X54275Y23600D01*
X54350Y27075D02*
X54450Y27175D01*
X54650D01*
X54750Y27075D01*
Y26675D01*
X54650Y26575D01*
X54450D01*
X54350Y26675D01*
X54150D02*
X54050Y26575D01*
X53850D01*
X53750Y26675D01*
Y27075D01*
X53850Y27175D01*
X54050D01*
X54150Y27075D01*
Y26975D01*
X54050Y26875D01*
X53750D01*
X53250Y26575D02*
Y27175D01*
X53550Y26875D01*
X53151D01*
X54350Y28500D02*
X54450Y28600D01*
X54650D01*
X54750Y28500D01*
Y28100D01*
X54650Y28000D01*
X54450D01*
X54350Y28100D01*
X54150D02*
X54050Y28000D01*
X53850D01*
X53750Y28100D01*
Y28500D01*
X53850Y28600D01*
X54050D01*
X54150Y28500D01*
Y28400D01*
X54050Y28300D01*
X53750D01*
X53151Y28600D02*
X53550D01*
Y28300D01*
X53350Y28400D01*
X53250D01*
X53151Y28300D01*
Y28100D01*
X53250Y28000D01*
X53450D01*
X53550Y28100D01*
X53550Y30150D02*
X53650Y30250D01*
X53850D01*
X53950Y30150D01*
Y29750D01*
X53850Y29650D01*
X53650D01*
X53550Y29750D01*
X53350D02*
X53250Y29650D01*
X53050D01*
X52950Y29750D01*
Y30150D01*
X53050Y30250D01*
X53250D01*
X53350Y30150D01*
Y30050D01*
X53250Y29950D01*
X52950D01*
X52351Y30250D02*
X52550Y30150D01*
X52750Y29950D01*
Y29750D01*
X52650Y29650D01*
X52450D01*
X52351Y29750D01*
Y29850D01*
X52450Y29950D01*
X52750D01*
X55325Y31150D02*
X55425Y31050D01*
Y30850D01*
X55325Y30750D01*
X54925D01*
X54825Y30850D01*
Y31050D01*
X54925Y31150D01*
Y31350D02*
X54825Y31450D01*
Y31650D01*
X54925Y31750D01*
X55325D01*
X55425Y31650D01*
Y31450D01*
X55325Y31350D01*
X55225D01*
X55125Y31450D01*
Y31750D01*
X55425Y31950D02*
Y32349D01*
X55325D01*
X54925Y31950D01*
X54825D01*
X67375Y31675D02*
X67475Y31575D01*
Y31375D01*
X67375Y31275D01*
X66975D01*
X66875Y31375D01*
Y31575D01*
X66975Y31675D01*
Y31875D02*
X66875Y31975D01*
Y32175D01*
X66975Y32275D01*
X67375D01*
X67475Y32175D01*
Y31975D01*
X67375Y31875D01*
X67275D01*
X67175Y31975D01*
Y32275D01*
X67375Y32475D02*
X67475Y32575D01*
Y32775D01*
X67375Y32874D01*
X67275D01*
X67175Y32775D01*
X67075Y32874D01*
X66975D01*
X66875Y32775D01*
Y32575D01*
X66975Y32475D01*
X67075D01*
X67175Y32575D01*
X67275Y32475D01*
X67375D01*
X67175Y32575D02*
Y32775D01*
X65814Y31574D02*
X65914Y31474D01*
Y31274D01*
X65814Y31174D01*
X65414D01*
X65314Y31274D01*
Y31474D01*
X65414Y31574D01*
Y31774D02*
X65314Y31874D01*
Y32074D01*
X65414Y32174D01*
X65814D01*
X65914Y32074D01*
Y31874D01*
X65814Y31774D01*
X65714D01*
X65614Y31874D01*
Y32174D01*
X65414Y32374D02*
X65314Y32474D01*
Y32674D01*
X65414Y32773D01*
X65814D01*
X65914Y32674D01*
Y32474D01*
X65814Y32374D01*
X65714D01*
X65614Y32474D01*
Y32773D01*
X70514Y31574D02*
X70614Y31474D01*
Y31274D01*
X70514Y31174D01*
X70114D01*
X70014Y31274D01*
Y31474D01*
X70114Y31574D01*
X70014Y31774D02*
Y31974D01*
Y31874D01*
X70614D01*
X70514Y31774D01*
Y32274D02*
X70614Y32374D01*
Y32574D01*
X70514Y32674D01*
X70114D01*
X70014Y32574D01*
Y32374D01*
X70114Y32274D01*
X70514D01*
Y32873D02*
X70614Y32973D01*
Y33173D01*
X70514Y33273D01*
X70114D01*
X70014Y33173D01*
Y32973D01*
X70114Y32873D01*
X70514D01*
X60800Y30000D02*
X60900Y29900D01*
Y29700D01*
X60800Y29600D01*
X60400D01*
X60300Y29700D01*
Y29900D01*
X60400Y30000D01*
X60300Y30200D02*
Y30400D01*
Y30300D01*
X60900D01*
X60800Y30200D01*
Y30700D02*
X60900Y30800D01*
Y31000D01*
X60800Y31100D01*
X60400D01*
X60300Y31000D01*
Y30800D01*
X60400Y30700D01*
X60800D01*
X60300Y31299D02*
Y31499D01*
Y31399D01*
X60900D01*
X60800Y31299D01*
X66564Y28324D02*
X66664Y28224D01*
Y28024D01*
X66564Y27924D01*
X66164D01*
X66064Y28024D01*
Y28224D01*
X66164Y28324D01*
X66064Y28524D02*
Y28724D01*
Y28624D01*
X66664D01*
X66564Y28524D01*
Y29024D02*
X66664Y29124D01*
Y29324D01*
X66564Y29424D01*
X66164D01*
X66064Y29324D01*
Y29124D01*
X66164Y29024D01*
X66564D01*
X66064Y30023D02*
Y29623D01*
X66464Y30023D01*
X66564D01*
X66664Y29923D01*
Y29723D01*
X66564Y29623D01*
X72200Y29950D02*
X72300Y30050D01*
X72500D01*
X72600Y29950D01*
Y29550D01*
X72500Y29450D01*
X72300D01*
X72200Y29550D01*
X72000Y29450D02*
X71800D01*
X71900D01*
Y30050D01*
X72000Y29950D01*
X71500D02*
X71400Y30050D01*
X71200D01*
X71100Y29950D01*
Y29550D01*
X71200Y29450D01*
X71400D01*
X71500Y29550D01*
Y29950D01*
X70901D02*
X70801Y30050D01*
X70601D01*
X70501Y29950D01*
Y29850D01*
X70601Y29750D01*
X70701D01*
X70601D01*
X70501Y29650D01*
Y29550D01*
X70601Y29450D01*
X70801D01*
X70901Y29550D01*
X64525Y30425D02*
X64625Y30325D01*
Y30125D01*
X64525Y30025D01*
X64125D01*
X64025Y30125D01*
Y30325D01*
X64125Y30425D01*
X64025Y30625D02*
Y30825D01*
Y30725D01*
X64625D01*
X64525Y30625D01*
Y31125D02*
X64625Y31225D01*
Y31425D01*
X64525Y31525D01*
X64125D01*
X64025Y31425D01*
Y31225D01*
X64125Y31125D01*
X64525D01*
X64025Y32024D02*
X64625D01*
X64325Y31724D01*
Y32124D01*
X71250Y28750D02*
X71350Y28850D01*
X71550D01*
X71650Y28750D01*
Y28350D01*
X71550Y28250D01*
X71350D01*
X71250Y28350D01*
X71050Y28250D02*
X70850D01*
X70950D01*
Y28850D01*
X71050Y28750D01*
X70550D02*
X70450Y28850D01*
X70250D01*
X70150Y28750D01*
Y28350D01*
X70250Y28250D01*
X70450D01*
X70550Y28350D01*
Y28750D01*
X69551Y28850D02*
X69951D01*
Y28550D01*
X69751Y28650D01*
X69651D01*
X69551Y28550D01*
Y28350D01*
X69651Y28250D01*
X69851D01*
X69951Y28350D01*
X62700Y29825D02*
X62800Y29725D01*
Y29525D01*
X62700Y29425D01*
X62300D01*
X62200Y29525D01*
Y29725D01*
X62300Y29825D01*
X62200Y30025D02*
Y30225D01*
Y30125D01*
X62800D01*
X62700Y30025D01*
Y30525D02*
X62800Y30625D01*
Y30825D01*
X62700Y30925D01*
X62300D01*
X62200Y30825D01*
Y30625D01*
X62300Y30525D01*
X62700D01*
X62800Y31524D02*
X62700Y31324D01*
X62500Y31124D01*
X62300D01*
X62200Y31224D01*
Y31424D01*
X62300Y31524D01*
X62400D01*
X62500Y31424D01*
Y31124D01*
X62525Y22725D02*
X62625Y22625D01*
Y22425D01*
X62525Y22325D01*
X62125D01*
X62025Y22425D01*
Y22625D01*
X62125Y22725D01*
X62025Y22925D02*
Y23125D01*
Y23025D01*
X62625D01*
X62525Y22925D01*
Y23425D02*
X62625Y23525D01*
Y23725D01*
X62525Y23825D01*
X62125D01*
X62025Y23725D01*
Y23525D01*
X62125Y23425D01*
X62525D01*
X62625Y24024D02*
Y24424D01*
X62525D01*
X62125Y24024D01*
X62025D01*
X74325Y28500D02*
X74425Y28600D01*
X74625D01*
X74725Y28500D01*
Y28100D01*
X74625Y28000D01*
X74425D01*
X74325Y28100D01*
X74125Y28000D02*
X73925D01*
X74025D01*
Y28600D01*
X74125Y28500D01*
X73625D02*
X73525Y28600D01*
X73325D01*
X73225Y28500D01*
Y28100D01*
X73325Y28000D01*
X73525D01*
X73625Y28100D01*
Y28500D01*
X73026D02*
X72926Y28600D01*
X72726D01*
X72626Y28500D01*
Y28400D01*
X72726Y28300D01*
X72626Y28200D01*
Y28100D01*
X72726Y28000D01*
X72926D01*
X73026Y28100D01*
Y28200D01*
X72926Y28300D01*
X73026Y28400D01*
Y28500D01*
X72926Y28300D02*
X72726D01*
X68925Y23850D02*
X69025Y23750D01*
Y23550D01*
X68925Y23450D01*
X68525D01*
X68425Y23550D01*
Y23750D01*
X68525Y23850D01*
X68425Y24050D02*
Y24250D01*
Y24150D01*
X69025D01*
X68925Y24050D01*
Y24550D02*
X69025Y24650D01*
Y24850D01*
X68925Y24950D01*
X68525D01*
X68425Y24850D01*
Y24650D01*
X68525Y24550D01*
X68925D01*
X68525Y25149D02*
X68425Y25249D01*
Y25449D01*
X68525Y25549D01*
X68925D01*
X69025Y25449D01*
Y25249D01*
X68925Y25149D01*
X68825D01*
X68725Y25249D01*
Y25549D01*
X65250Y24200D02*
X65350Y24100D01*
Y23900D01*
X65250Y23800D01*
X64850D01*
X64750Y23900D01*
Y24100D01*
X64850Y24200D01*
X64750Y24400D02*
Y24600D01*
Y24500D01*
X65350D01*
X65250Y24400D01*
X64750Y24900D02*
Y25100D01*
Y25000D01*
X65350D01*
X65250Y24900D01*
Y25399D02*
X65350Y25499D01*
Y25699D01*
X65250Y25799D01*
X64850D01*
X64750Y25699D01*
Y25499D01*
X64850Y25399D01*
X65250D01*
X68700Y27075D02*
X68800Y26975D01*
Y26775D01*
X68700Y26675D01*
X68300D01*
X68200Y26775D01*
Y26975D01*
X68300Y27075D01*
X68200Y27275D02*
Y27475D01*
Y27375D01*
X68800D01*
X68700Y27275D01*
X68200Y27775D02*
Y27975D01*
Y27875D01*
X68800D01*
X68700Y27775D01*
X68200Y28274D02*
Y28474D01*
Y28374D01*
X68800D01*
X68700Y28274D01*
X60650Y26475D02*
X60750Y26375D01*
Y26175D01*
X60650Y26075D01*
X60250D01*
X60150Y26175D01*
Y26375D01*
X60250Y26475D01*
X60150Y26675D02*
Y26875D01*
Y26775D01*
X60750D01*
X60650Y26675D01*
X60150Y27175D02*
Y27375D01*
Y27275D01*
X60750D01*
X60650Y27175D01*
X60150Y28074D02*
Y27674D01*
X60550Y28074D01*
X60650D01*
X60750Y27974D01*
Y27774D01*
X60650Y27674D01*
X63125Y28700D02*
X63225Y28800D01*
X63425D01*
X63525Y28700D01*
Y28300D01*
X63425Y28200D01*
X63225D01*
X63125Y28300D01*
X62925Y28200D02*
X62725D01*
X62825D01*
Y28800D01*
X62925Y28700D01*
X62425Y28200D02*
X62225D01*
X62325D01*
Y28800D01*
X62425Y28700D01*
X61926D02*
X61826Y28800D01*
X61626D01*
X61526Y28700D01*
Y28600D01*
X61626Y28500D01*
X61726D01*
X61626D01*
X61526Y28400D01*
Y28300D01*
X61626Y28200D01*
X61826D01*
X61926Y28300D01*
X77425Y19650D02*
X77525Y19550D01*
Y19350D01*
X77425Y19250D01*
X77025D01*
X76925Y19350D01*
Y19550D01*
X77025Y19650D01*
X76925Y19850D02*
Y20050D01*
Y19950D01*
X77525D01*
X77425Y19850D01*
X76925Y20350D02*
Y20550D01*
Y20450D01*
X77525D01*
X77425Y20350D01*
X76925Y21149D02*
X77525D01*
X77225Y20849D01*
Y21249D01*
X70650Y22575D02*
X70750Y22475D01*
Y22275D01*
X70650Y22175D01*
X70250D01*
X70150Y22275D01*
Y22475D01*
X70250Y22575D01*
X70150Y22775D02*
Y22975D01*
Y22875D01*
X70750D01*
X70650Y22775D01*
X70150Y23275D02*
Y23475D01*
Y23375D01*
X70750D01*
X70650Y23275D01*
X70750Y24174D02*
Y23774D01*
X70450D01*
X70550Y23974D01*
Y24074D01*
X70450Y24174D01*
X70250D01*
X70150Y24074D01*
Y23874D01*
X70250Y23774D01*
X72000Y20475D02*
X72100Y20375D01*
Y20175D01*
X72000Y20075D01*
X71600D01*
X71500Y20175D01*
Y20375D01*
X71600Y20475D01*
X71500Y20675D02*
Y20875D01*
Y20775D01*
X72100D01*
X72000Y20675D01*
X71500Y21175D02*
Y21375D01*
Y21275D01*
X72100D01*
X72000Y21175D01*
X72100Y22074D02*
X72000Y21874D01*
X71800Y21674D01*
X71600D01*
X71500Y21774D01*
Y21974D01*
X71600Y22074D01*
X71700D01*
X71800Y21974D01*
Y21674D01*
X64475Y33275D02*
X64575Y33175D01*
Y32975D01*
X64475Y32875D01*
X64075D01*
X63975Y32975D01*
Y33175D01*
X64075Y33275D01*
X63975Y33475D02*
Y33675D01*
Y33575D01*
X64575D01*
X64475Y33475D01*
X63975Y33975D02*
Y34175D01*
Y34075D01*
X64575D01*
X64475Y33975D01*
X64575Y34474D02*
Y34874D01*
X64475D01*
X64075Y34474D01*
X63975D01*
X67375Y24900D02*
X67475Y24800D01*
Y24600D01*
X67375Y24500D01*
X66975D01*
X66875Y24600D01*
Y24800D01*
X66975Y24900D01*
X66875Y25100D02*
Y25300D01*
Y25200D01*
X67475D01*
X67375Y25100D01*
X66875Y25600D02*
Y25800D01*
Y25700D01*
X67475D01*
X67375Y25600D01*
Y26099D02*
X67475Y26199D01*
Y26399D01*
X67375Y26499D01*
X67275D01*
X67175Y26399D01*
X67075Y26499D01*
X66975D01*
X66875Y26399D01*
Y26199D01*
X66975Y26099D01*
X67075D01*
X67175Y26199D01*
X67275Y26099D01*
X67375D01*
X67175Y26199D02*
Y26399D01*
X73500Y31325D02*
X73600Y31425D01*
X73800D01*
X73900Y31325D01*
Y30925D01*
X73800Y30825D01*
X73600D01*
X73500Y30925D01*
X73300Y30825D02*
X73100D01*
X73200D01*
Y31425D01*
X73300Y31325D01*
X72800Y30825D02*
X72600D01*
X72700D01*
Y31425D01*
X72800Y31325D01*
X72301Y30925D02*
X72201Y30825D01*
X72001D01*
X71901Y30925D01*
Y31325D01*
X72001Y31425D01*
X72201D01*
X72301Y31325D01*
Y31225D01*
X72201Y31125D01*
X71901D01*
X70650Y25825D02*
X70750Y25725D01*
Y25525D01*
X70650Y25425D01*
X70250D01*
X70150Y25525D01*
Y25725D01*
X70250Y25825D01*
X70150Y26025D02*
Y26225D01*
Y26125D01*
X70750D01*
X70650Y26025D01*
X70150Y26925D02*
Y26525D01*
X70550Y26925D01*
X70650D01*
X70750Y26825D01*
Y26625D01*
X70650Y26525D01*
Y27124D02*
X70750Y27224D01*
Y27424D01*
X70650Y27524D01*
X70250D01*
X70150Y27424D01*
Y27224D01*
X70250Y27124D01*
X70650D01*
X64775Y27600D02*
X64875Y27500D01*
Y27300D01*
X64775Y27200D01*
X64375D01*
X64275Y27300D01*
Y27500D01*
X64375Y27600D01*
X64275Y27800D02*
Y28000D01*
Y27900D01*
X64875D01*
X64775Y27800D01*
X64275Y28700D02*
Y28300D01*
X64675Y28700D01*
X64775D01*
X64875Y28600D01*
Y28400D01*
X64775Y28300D01*
X64275Y28899D02*
Y29099D01*
Y28999D01*
X64875D01*
X64775Y28899D01*
X63925Y24150D02*
X64025Y24050D01*
Y23850D01*
X63925Y23750D01*
X63525D01*
X63425Y23850D01*
Y24050D01*
X63525Y24150D01*
X63425Y24350D02*
Y24550D01*
Y24450D01*
X64025D01*
X63925Y24350D01*
X63425Y25250D02*
Y24850D01*
X63825Y25250D01*
X63925D01*
X64025Y25150D01*
Y24950D01*
X63925Y24850D01*
X63425Y25849D02*
Y25449D01*
X63825Y25849D01*
X63925D01*
X64025Y25749D01*
Y25549D01*
X63925Y25449D01*
X62500Y25750D02*
X62600Y25650D01*
Y25450D01*
X62500Y25350D01*
X62100D01*
X62000Y25450D01*
Y25650D01*
X62100Y25750D01*
X62000Y25950D02*
Y26150D01*
Y26050D01*
X62600D01*
X62500Y25950D01*
X62000Y26850D02*
Y26450D01*
X62400Y26850D01*
X62500D01*
X62600Y26750D01*
Y26550D01*
X62500Y26450D01*
Y27049D02*
X62600Y27149D01*
Y27349D01*
X62500Y27449D01*
X62400D01*
X62300Y27349D01*
Y27249D01*
Y27349D01*
X62200Y27449D01*
X62100D01*
X62000Y27349D01*
Y27149D01*
X62100Y27049D01*
X73500Y26925D02*
X73600Y27025D01*
X73800D01*
X73900Y26925D01*
Y26525D01*
X73800Y26425D01*
X73600D01*
X73500Y26525D01*
X73300Y26425D02*
X73100D01*
X73200D01*
Y27025D01*
X73300Y26925D01*
X72400Y26425D02*
X72800D01*
X72400Y26825D01*
Y26925D01*
X72500Y27025D01*
X72700D01*
X72800Y26925D01*
X71901Y26425D02*
Y27025D01*
X72201Y26725D01*
X71801D01*
X65800Y34900D02*
X65900Y34800D01*
Y34600D01*
X65800Y34500D01*
X65400D01*
X65300Y34600D01*
Y34800D01*
X65400Y34900D01*
X65300Y35100D02*
Y35300D01*
Y35200D01*
X65900D01*
X65800Y35100D01*
X65300Y36000D02*
Y35600D01*
X65700Y36000D01*
X65800D01*
X65900Y35900D01*
Y35700D01*
X65800Y35600D01*
X65900Y36599D02*
Y36199D01*
X65600D01*
X65700Y36399D01*
Y36499D01*
X65600Y36599D01*
X65400D01*
X65300Y36499D01*
Y36299D01*
X65400Y36199D01*
X68750Y29700D02*
X68850Y29600D01*
Y29400D01*
X68750Y29300D01*
X68350D01*
X68250Y29400D01*
Y29600D01*
X68350Y29700D01*
X68250Y29900D02*
Y30100D01*
Y30000D01*
X68850D01*
X68750Y29900D01*
X68250Y30800D02*
Y30400D01*
X68650Y30800D01*
X68750D01*
X68850Y30700D01*
Y30500D01*
X68750Y30400D01*
X68850Y31399D02*
X68750Y31199D01*
X68550Y30999D01*
X68350D01*
X68250Y31099D01*
Y31299D01*
X68350Y31399D01*
X68450D01*
X68550Y31299D01*
Y30999D01*
X68725Y32625D02*
X68825Y32525D01*
Y32325D01*
X68725Y32225D01*
X68325D01*
X68225Y32325D01*
Y32525D01*
X68325Y32625D01*
X68225Y32825D02*
Y33025D01*
Y32925D01*
X68825D01*
X68725Y32825D01*
X68225Y33725D02*
Y33325D01*
X68625Y33725D01*
X68725D01*
X68825Y33625D01*
Y33425D01*
X68725Y33325D01*
Y33924D02*
X68825Y34024D01*
Y34224D01*
X68725Y34324D01*
X68625D01*
X68525Y34224D01*
X68425Y34324D01*
X68325D01*
X68225Y34224D01*
Y34024D01*
X68325Y33924D01*
X68425D01*
X68525Y34024D01*
X68625Y33924D01*
X68725D01*
X68525Y34024D02*
Y34224D01*
X60125Y32675D02*
X60225Y32775D01*
X60425D01*
X60525Y32675D01*
Y32275D01*
X60425Y32175D01*
X60225D01*
X60125Y32275D01*
X59925Y32175D02*
X59725D01*
X59825D01*
Y32775D01*
X59925Y32675D01*
X59025Y32175D02*
X59425D01*
X59025Y32575D01*
Y32675D01*
X59125Y32775D01*
X59325D01*
X59425Y32675D01*
X58826Y32275D02*
X58726Y32175D01*
X58526D01*
X58426Y32275D01*
Y32675D01*
X58526Y32775D01*
X58726D01*
X58826Y32675D01*
Y32575D01*
X58726Y32475D01*
X58426D01*
X61775Y32825D02*
X61875Y32725D01*
Y32525D01*
X61775Y32425D01*
X61375D01*
X61275Y32525D01*
Y32725D01*
X61375Y32825D01*
X61275Y33025D02*
Y33225D01*
Y33125D01*
X61875D01*
X61775Y33025D01*
Y33525D02*
X61875Y33625D01*
Y33825D01*
X61775Y33925D01*
X61675D01*
X61575Y33825D01*
Y33725D01*
Y33825D01*
X61475Y33925D01*
X61375D01*
X61275Y33825D01*
Y33625D01*
X61375Y33525D01*
X61775Y34124D02*
X61875Y34224D01*
Y34424D01*
X61775Y34524D01*
X61375D01*
X61275Y34424D01*
Y34224D01*
X61375Y34124D01*
X61775D01*
X63125Y32950D02*
X63225Y32850D01*
Y32650D01*
X63125Y32550D01*
X62725D01*
X62625Y32650D01*
Y32850D01*
X62725Y32950D01*
X62625Y33150D02*
Y33350D01*
Y33250D01*
X63225D01*
X63125Y33150D01*
Y33650D02*
X63225Y33750D01*
Y33950D01*
X63125Y34050D01*
X63025D01*
X62925Y33950D01*
Y33850D01*
Y33950D01*
X62825Y34050D01*
X62725D01*
X62625Y33950D01*
Y33750D01*
X62725Y33650D01*
X62625Y34249D02*
Y34449D01*
Y34349D01*
X63225D01*
X63125Y34249D01*
X71575Y34725D02*
X71675Y34825D01*
X71875D01*
X71975Y34725D01*
Y34325D01*
X71875Y34225D01*
X71675D01*
X71575Y34325D01*
X71375Y34225D02*
X71175D01*
X71275D01*
Y34825D01*
X71375Y34725D01*
X70875D02*
X70775Y34825D01*
X70575D01*
X70475Y34725D01*
Y34625D01*
X70575Y34525D01*
X70675D01*
X70575D01*
X70475Y34425D01*
Y34325D01*
X70575Y34225D01*
X70775D01*
X70875Y34325D01*
X69876Y34225D02*
X70276D01*
X69876Y34625D01*
Y34725D01*
X69976Y34825D01*
X70176D01*
X70276Y34725D01*
X58775Y19675D02*
X58875Y19575D01*
Y19375D01*
X58775Y19275D01*
X58375D01*
X58275Y19375D01*
Y19575D01*
X58375Y19675D01*
X58275Y19875D02*
Y20075D01*
Y19975D01*
X58875D01*
X58775Y19875D01*
Y20375D02*
X58875Y20475D01*
Y20675D01*
X58775Y20775D01*
X58675D01*
X58575Y20675D01*
Y20575D01*
Y20675D01*
X58475Y20775D01*
X58375D01*
X58275Y20675D01*
Y20475D01*
X58375Y20375D01*
X58275Y21274D02*
X58875D01*
X58575Y20974D01*
Y21374D01*
X50400Y30075D02*
X50500Y29975D01*
Y29775D01*
X50400Y29675D01*
X50000D01*
X49900Y29775D01*
Y29975D01*
X50000Y30075D01*
X49900Y30275D02*
Y30475D01*
Y30375D01*
X50500D01*
X50400Y30275D01*
Y30775D02*
X50500Y30875D01*
Y31075D01*
X50400Y31175D01*
X50300D01*
X50200Y31075D01*
Y30975D01*
Y31075D01*
X50100Y31175D01*
X50000D01*
X49900Y31075D01*
Y30875D01*
X50000Y30775D01*
X50500Y31774D02*
Y31374D01*
X50200D01*
X50300Y31574D01*
Y31674D01*
X50200Y31774D01*
X50000D01*
X49900Y31674D01*
Y31474D01*
X50000Y31374D01*
X75225Y20100D02*
X75325Y20000D01*
Y19800D01*
X75225Y19700D01*
X74825D01*
X74725Y19800D01*
Y20000D01*
X74825Y20100D01*
X74725Y20300D02*
Y20500D01*
Y20400D01*
X75325D01*
X75225Y20300D01*
Y20800D02*
X75325Y20900D01*
Y21100D01*
X75225Y21200D01*
X75125D01*
X75025Y21100D01*
Y21000D01*
Y21100D01*
X74925Y21200D01*
X74825D01*
X74725Y21100D01*
Y20900D01*
X74825Y20800D01*
X75325Y21799D02*
X75225Y21599D01*
X75025Y21399D01*
X74825D01*
X74725Y21499D01*
Y21699D01*
X74825Y21799D01*
X74925D01*
X75025Y21699D01*
Y21399D01*
X77425Y32275D02*
X77525Y32375D01*
X77725D01*
X77825Y32275D01*
Y31875D01*
X77725Y31775D01*
X77525D01*
X77425Y31875D01*
X77225Y31775D02*
X77025D01*
X77125D01*
Y32375D01*
X77225Y32275D01*
X76725D02*
X76625Y32375D01*
X76425D01*
X76325Y32275D01*
Y32175D01*
X76425Y32075D01*
X76525D01*
X76425D01*
X76325Y31975D01*
Y31875D01*
X76425Y31775D01*
X76625D01*
X76725Y31875D01*
X76126Y32375D02*
X75726D01*
Y32275D01*
X76126Y31875D01*
Y31775D01*
X48000Y26725D02*
X48100Y26625D01*
Y26425D01*
X48000Y26325D01*
X47600D01*
X47500Y26425D01*
Y26625D01*
X47600Y26725D01*
X47500Y26925D02*
Y27125D01*
Y27025D01*
X48100D01*
X48000Y26925D01*
Y27425D02*
X48100Y27525D01*
Y27725D01*
X48000Y27825D01*
X47900D01*
X47800Y27725D01*
Y27625D01*
Y27725D01*
X47700Y27825D01*
X47600D01*
X47500Y27725D01*
Y27525D01*
X47600Y27425D01*
X48000Y28024D02*
X48100Y28124D01*
Y28324D01*
X48000Y28424D01*
X47900D01*
X47800Y28324D01*
X47700Y28424D01*
X47600D01*
X47500Y28324D01*
Y28124D01*
X47600Y28024D01*
X47700D01*
X47800Y28124D01*
X47900Y28024D01*
X48000D01*
X47800Y28124D02*
Y28324D01*
X45700Y25825D02*
X45800Y25725D01*
Y25525D01*
X45700Y25425D01*
X45300D01*
X45200Y25525D01*
Y25725D01*
X45300Y25825D01*
X45200Y26025D02*
Y26225D01*
Y26125D01*
X45800D01*
X45700Y26025D01*
Y26525D02*
X45800Y26625D01*
Y26825D01*
X45700Y26925D01*
X45600D01*
X45500Y26825D01*
Y26725D01*
Y26825D01*
X45400Y26925D01*
X45300D01*
X45200Y26825D01*
Y26625D01*
X45300Y26525D01*
Y27124D02*
X45200Y27224D01*
Y27424D01*
X45300Y27524D01*
X45700D01*
X45800Y27424D01*
Y27224D01*
X45700Y27124D01*
X45600D01*
X45500Y27224D01*
Y27524D01*
X95000Y-10000D02*
Y120000D01*
X-10000D02*
X95000D01*
X-10000Y-10000D02*
Y120000D01*
Y-10000D02*
X95000D01*
D45*
X67707Y3248D02*
Y5247D01*
X66707D01*
X66374Y4914D01*
Y4248D01*
X66707Y3914D01*
X67707D01*
X65708Y3248D02*
X65041D01*
X65374D01*
Y5247D01*
X65708Y4914D01*
X24503Y3248D02*
Y5247D01*
X23503D01*
X23170Y4914D01*
Y4248D01*
X23503Y3914D01*
X24503D01*
X21504Y3248D02*
Y5247D01*
X22504Y4248D01*
X21171D01*
X67707Y48468D02*
Y50467D01*
X66707D01*
X66374Y50134D01*
Y49468D01*
X66707Y49134D01*
X67707D01*
X65708Y50134D02*
X65374Y50467D01*
X64708D01*
X64375Y50134D01*
Y49801D01*
X64708Y49468D01*
X65041D01*
X64708D01*
X64375Y49134D01*
Y48801D01*
X64708Y48468D01*
X65374D01*
X65708Y48801D01*
X24503Y48468D02*
Y50467D01*
X23503D01*
X23170Y50134D01*
Y49468D01*
X23503Y49134D01*
X24503D01*
X21171Y48468D02*
X22504D01*
X21171Y49801D01*
Y50134D01*
X21504Y50467D01*
X22170D01*
X22504Y50134D01*
D47*
X73500Y39500D02*
X73500Y39500D01*
D60*
X54782Y1714D02*
X74782D01*
Y6483D01*
X73582Y7683D02*
X74782Y6483D01*
X55982Y7683D02*
X73582D01*
X54782Y6483D02*
X55982Y7683D01*
X54782Y1714D02*
Y6483D01*
X56338Y2730D02*
X73226D01*
Y6667D01*
X56338D02*
X73226D01*
X56338Y2730D02*
Y6667D01*
X11578Y1714D02*
X31578D01*
Y6483D01*
X30378Y7683D02*
X31578Y6483D01*
X12778Y7683D02*
X30378D01*
X11578Y6483D02*
X12778Y7683D01*
X11578Y1714D02*
Y6483D01*
X13134Y2730D02*
X30022D01*
Y6667D01*
X13134D02*
X30022D01*
X13134Y2730D02*
Y6667D01*
X54782Y46934D02*
X74782D01*
Y51703D01*
X73582Y52903D02*
X74782Y51703D01*
X55982Y52903D02*
X73582D01*
X54782Y51703D02*
X55982Y52903D01*
X54782Y46934D02*
Y51703D01*
X56338Y47950D02*
X73226D01*
Y51887D01*
X56338D02*
X73226D01*
X56338Y47950D02*
Y51887D01*
X11578Y46934D02*
X31578D01*
Y51703D01*
X30378Y52903D02*
X31578Y51703D01*
X12778Y52903D02*
X30378D01*
X11578Y51703D02*
X12778Y52903D01*
X11578Y46934D02*
Y51703D01*
X13134Y47950D02*
X30022D01*
Y51887D01*
X13134D02*
X30022D01*
X13134Y47950D02*
Y51887D01*
M02*
