G04 Layer_Color=128*
%FSLAX43Y43*%
%MOMM*%
G71*
G01*
G75*
%ADD10C,0.100*%
%ADD47C,0.300*%
%ADD114C,0.030*%
D10*
X95000Y-10000D02*
Y120000D01*
X-10000D02*
X95000D01*
X-10000Y-10000D02*
Y120000D01*
Y-10000D02*
X95000D01*
D47*
X73500Y39500D02*
X73500Y39500D01*
D114*
X5150Y102325D02*
X5350D01*
X5250Y102225D02*
Y102425D01*
X4350Y102325D02*
X4550D01*
X4450Y102225D02*
Y102425D01*
X3550Y102325D02*
X3750D01*
X3650Y102225D02*
Y102425D01*
X2750Y102350D02*
X2950D01*
X2850Y102250D02*
Y102450D01*
X1950Y102375D02*
X2150D01*
X2050Y102275D02*
Y102475D01*
X1150Y102350D02*
X1350D01*
X1250Y102250D02*
Y102450D01*
X48850Y78475D02*
X49050D01*
X48950Y78375D02*
Y78575D01*
X-7675Y37775D02*
X-7475D01*
X-7575Y37675D02*
Y37875D01*
X61100Y108175D02*
X61300D01*
X61200Y108075D02*
Y108275D01*
X63500Y111325D02*
X63700D01*
X63600Y111225D02*
Y111425D01*
X70900Y37000D02*
X71100D01*
X71000Y36900D02*
Y37100D01*
X71900Y37000D02*
X72100D01*
X72000Y36900D02*
Y37100D01*
X71900Y38000D02*
X72100D01*
X72000Y37900D02*
Y38100D01*
X71900Y39000D02*
X72100D01*
X72000Y38900D02*
Y39100D01*
X70900Y38000D02*
X71100D01*
X71000Y37900D02*
Y38100D01*
X69900Y38000D02*
X70100D01*
X70000Y37900D02*
Y38100D01*
X33600Y110975D02*
X33800D01*
X33700Y110875D02*
Y111075D01*
X32775Y111450D02*
X32975D01*
X32875Y111350D02*
Y111550D01*
X32025Y111875D02*
X32225D01*
X32125Y111775D02*
Y111975D01*
X31175Y112450D02*
X31375D01*
X31275Y112350D02*
Y112550D01*
X17775Y111250D02*
X17975D01*
X17875Y111150D02*
Y111350D01*
X19375Y110225D02*
X19575D01*
X19475Y110125D02*
Y110325D01*
X16975Y111725D02*
X17175D01*
X17075Y111625D02*
Y111825D01*
X16150Y112350D02*
X16350D01*
X16250Y112250D02*
Y112450D01*
X60900Y35000D02*
X61100D01*
X61000Y34900D02*
Y35100D01*
X57900Y34000D02*
X58100D01*
X58000Y33900D02*
Y34100D01*
X58900Y34000D02*
X59100D01*
X59000Y33900D02*
Y34100D01*
X60900Y33000D02*
X61100D01*
X61000Y32900D02*
Y33100D01*
X59900Y33000D02*
X60100D01*
X60000Y32900D02*
Y33100D01*
X58900Y33000D02*
X59100D01*
X59000Y32900D02*
Y33100D01*
X60900Y36000D02*
X61100D01*
X61000Y35900D02*
Y36100D01*
X61900Y35000D02*
X62100D01*
X62000Y34900D02*
Y35100D01*
X61900Y34000D02*
X62100D01*
X62000Y33900D02*
Y34100D01*
X59900Y34000D02*
X60100D01*
X60000Y33900D02*
Y34100D01*
X61900Y33000D02*
X62100D01*
X62000Y32900D02*
Y33100D01*
X57900Y35000D02*
X58100D01*
X58000Y34900D02*
Y35100D01*
X4200Y80975D02*
X4400D01*
X4300Y80875D02*
Y81075D01*
X59900Y36000D02*
X60100D01*
X60000Y35900D02*
Y36100D01*
X58900Y36000D02*
X59100D01*
X59000Y35900D02*
Y36100D01*
X57900Y36000D02*
X58100D01*
X58000Y35900D02*
Y36100D01*
X59900Y35000D02*
X60100D01*
X60000Y34900D02*
Y35100D01*
X19350Y80900D02*
X19550D01*
X19450Y80800D02*
Y81000D01*
X60900Y37000D02*
X61100D01*
X61000Y36900D02*
Y37100D01*
X59900Y38000D02*
X60100D01*
X60000Y37900D02*
Y38100D01*
X57900Y37000D02*
X58100D01*
X58000Y36900D02*
Y37100D01*
X58900Y37000D02*
X59100D01*
X59000Y36900D02*
Y37100D01*
X58900Y38000D02*
X59100D01*
X59000Y37900D02*
Y38100D01*
X49650Y77825D02*
X49850D01*
X49750Y77725D02*
Y77925D01*
X48050Y78625D02*
X48250D01*
X48150Y78525D02*
Y78725D01*
X47275Y80275D02*
X47475D01*
X47375Y80175D02*
Y80375D01*
X46425Y80650D02*
X46625D01*
X46525Y80550D02*
Y80750D01*
X66900Y38000D02*
X67100D01*
X67000Y37900D02*
Y38100D01*
X67900Y35000D02*
X68100D01*
X68000Y34900D02*
Y35100D01*
X65900Y38000D02*
X66100D01*
X66000Y37900D02*
Y38100D01*
X64900Y39000D02*
X65100D01*
X65000Y38900D02*
Y39100D01*
X65900Y36000D02*
X66100D01*
X66000Y35900D02*
Y36100D01*
X64900Y38000D02*
X65100D01*
X65000Y37900D02*
Y38100D01*
X63900Y39000D02*
X64100D01*
X64000Y38900D02*
Y39100D01*
X52504Y75304D02*
X52704D01*
X52604Y75204D02*
Y75404D01*
X66900Y34000D02*
X67100D01*
X67000Y33900D02*
Y34100D01*
X66900Y35000D02*
X67100D01*
X67000Y34900D02*
Y35100D01*
X66900Y37000D02*
X67100D01*
X67000Y36900D02*
Y37100D01*
X65900Y37000D02*
X66100D01*
X66000Y36900D02*
Y37100D01*
X65900Y33000D02*
X66100D01*
X66000Y32900D02*
Y33100D01*
X65900Y35000D02*
X66100D01*
X66000Y34900D02*
Y35100D01*
X64900Y33000D02*
X65100D01*
X65000Y32900D02*
Y33100D01*
X64900Y34000D02*
X65100D01*
X65000Y33900D02*
Y34100D01*
X64900Y36000D02*
X65100D01*
X65000Y35900D02*
Y36100D01*
X64900Y35000D02*
X65100D01*
X65000Y34900D02*
Y35100D01*
X63900Y34000D02*
X64100D01*
X64000Y33900D02*
Y34100D01*
X-7825Y54775D02*
X-7625D01*
X-7725Y54675D02*
Y54875D01*
X66900Y39000D02*
X67100D01*
X67000Y38900D02*
Y39100D01*
X61475Y80600D02*
X61675D01*
X61575Y80500D02*
Y80700D01*
X62275Y80200D02*
X62475D01*
X62375Y80100D02*
Y80300D01*
X61650Y77725D02*
X61850D01*
X61750Y77625D02*
Y77825D01*
X63075Y78375D02*
X63275D01*
X63175Y78275D02*
Y78475D01*
X63875Y78350D02*
X64075D01*
X63975Y78250D02*
Y78450D01*
X64675Y78650D02*
X64875D01*
X64775Y78550D02*
Y78750D01*
X67900Y37000D02*
X68100D01*
X68000Y36900D02*
Y37100D01*
X67900Y34000D02*
X68100D01*
X68000Y33900D02*
Y34100D01*
X68900Y34000D02*
X69100D01*
X69000Y33900D02*
Y34100D01*
X68900Y36000D02*
X69100D01*
X69000Y35900D02*
Y36100D01*
X68900Y39000D02*
X69100D01*
X69000Y38900D02*
Y39100D01*
X68900Y38000D02*
X69100D01*
X69000Y37900D02*
Y38100D01*
X60900Y31000D02*
X61100D01*
X61000Y30900D02*
Y31100D01*
X66900Y33000D02*
X67100D01*
X67000Y32900D02*
Y33100D01*
X66900Y32000D02*
X67100D01*
X67000Y31900D02*
Y32100D01*
X63900Y36000D02*
X64100D01*
X64000Y35900D02*
Y36100D01*
X63900Y38000D02*
X64100D01*
X64000Y37900D02*
Y38100D01*
X67900Y36000D02*
X68100D01*
X68000Y35900D02*
Y36100D01*
X71900Y42000D02*
X72100D01*
X72000Y41900D02*
Y42100D01*
X64900Y32000D02*
X65100D01*
X65000Y31900D02*
Y32100D01*
X69900Y39000D02*
X70100D01*
X70000Y38900D02*
Y39100D01*
X68900Y42000D02*
X69100D01*
X69000Y41900D02*
Y42100D01*
X67900Y42000D02*
X68100D01*
X68000Y41900D02*
Y42100D01*
X68900Y41000D02*
X69100D01*
X69000Y40900D02*
Y41100D01*
X67900Y41000D02*
X68100D01*
X68000Y40900D02*
Y41100D01*
X73400Y40500D02*
X73600D01*
X73500Y40400D02*
Y40600D01*
X70900Y42000D02*
X71100D01*
X71000Y41900D02*
Y42100D01*
X75475Y42575D02*
X75675D01*
X75575Y42475D02*
Y42675D01*
X73900Y41000D02*
X74100D01*
X74000Y40900D02*
Y41100D01*
X73900Y27000D02*
X74100D01*
X74000Y26900D02*
Y27100D01*
X73425Y28475D02*
X73625D01*
X73525Y28375D02*
Y28575D01*
X80350Y22975D02*
X80550D01*
X80450Y22875D02*
Y23075D01*
X80150Y30850D02*
X80350D01*
X80250Y30750D02*
Y30950D01*
X62900Y26000D02*
X63100D01*
X63000Y25900D02*
Y26100D01*
X63900Y26000D02*
X64100D01*
X64000Y25900D02*
Y26100D01*
X61400Y22500D02*
X61600D01*
X61500Y22400D02*
Y22600D01*
X60400Y22500D02*
X60600D01*
X60500Y22400D02*
Y22600D01*
X61400Y23500D02*
X61600D01*
X61500Y23400D02*
Y23600D01*
X61900Y24000D02*
X62100D01*
X62000Y23900D02*
Y24100D01*
X65400Y22500D02*
X65600D01*
X65500Y22400D02*
Y22600D01*
X64400Y22500D02*
X64600D01*
X64500Y22400D02*
Y22600D01*
X58900Y23000D02*
X59100D01*
X59000Y22900D02*
Y23100D01*
X59900Y23000D02*
X60100D01*
X60000Y22900D02*
Y23100D01*
X71400Y31500D02*
X71600D01*
X71500Y31400D02*
Y31600D01*
X69400Y32500D02*
X69600D01*
X69500Y32400D02*
Y32600D01*
X69400Y37500D02*
X69600D01*
X69500Y37400D02*
Y37600D01*
X64400Y23500D02*
X64600D01*
X64500Y23400D02*
Y23600D01*
X70400Y28500D02*
X70600D01*
X70500Y28400D02*
Y28600D01*
X70900Y31000D02*
X71100D01*
X71000Y30900D02*
Y31100D01*
X70900Y30000D02*
X71100D01*
X71000Y29900D02*
Y30100D01*
X70900Y29000D02*
X71100D01*
X71000Y28900D02*
Y29100D01*
X49775Y12725D02*
X49975D01*
X49875Y12625D02*
Y12825D01*
X48361Y12714D02*
X48561D01*
X48461Y12614D02*
Y12814D01*
X44525Y12700D02*
X44725D01*
X44625Y12600D02*
Y12800D01*
X73900Y38000D02*
X74100D01*
X74000Y37900D02*
Y38100D01*
X84175Y9725D02*
X84375D01*
X84275Y9625D02*
Y9825D01*
X56900Y38000D02*
X57100D01*
X57000Y37900D02*
Y38100D01*
X59900Y30000D02*
X60100D01*
X60000Y29900D02*
Y30100D01*
X59900Y26000D02*
X60100D01*
X60000Y25900D02*
Y26100D01*
X62900Y34000D02*
X63100D01*
X63000Y33900D02*
Y34100D01*
X63900Y33000D02*
X64100D01*
X64000Y32900D02*
Y33100D01*
X61900Y39000D02*
X62100D01*
X62000Y38900D02*
Y39100D01*
X62900Y36000D02*
X63100D01*
X63000Y35900D02*
Y36100D01*
X62900Y37000D02*
X63100D01*
X63000Y36900D02*
Y37100D01*
X62900Y39000D02*
X63100D01*
X63000Y38900D02*
Y39100D01*
X63900Y37000D02*
X64100D01*
X64000Y36900D02*
Y37100D01*
X34400Y110475D02*
X34600D01*
X34500Y110375D02*
Y110575D01*
X57400Y39500D02*
X57600D01*
X57500Y39400D02*
Y39600D01*
X58900Y39000D02*
X59100D01*
X59000Y38900D02*
Y39100D01*
X59900Y39000D02*
X60100D01*
X60000Y38900D02*
Y39100D01*
X60900Y38000D02*
X61100D01*
X61000Y37900D02*
Y38100D01*
X62900Y35000D02*
X63100D01*
X63000Y34900D02*
Y35100D01*
X61900Y37000D02*
X62100D01*
X62000Y36900D02*
Y37100D01*
X34627Y81204D02*
X34827D01*
X34727Y81104D02*
Y81304D01*
X18601Y110830D02*
X18801D01*
X18701Y110730D02*
Y110930D01*
X32200Y83225D02*
X32400D01*
X32300Y83125D02*
Y83325D01*
X31400Y84125D02*
X31600D01*
X31500Y84025D02*
Y84225D01*
X33025Y82400D02*
X33225D01*
X33125Y82300D02*
Y82500D01*
X33800Y81725D02*
X34000D01*
X33900Y81625D02*
Y81825D01*
X60975Y112800D02*
X61175D01*
X61075Y112700D02*
Y112900D01*
X61850Y112275D02*
X62050D01*
X61950Y112175D02*
Y112375D01*
X62600Y111850D02*
X62800D01*
X62700Y111750D02*
Y111950D01*
X64300Y110750D02*
X64500D01*
X64400Y110650D02*
Y110850D01*
X1775Y82375D02*
X1975D01*
X1875Y82275D02*
Y82475D01*
X2550Y81850D02*
X2750D01*
X2650Y81750D02*
Y81950D01*
X3450Y81400D02*
X3650D01*
X3550Y81300D02*
Y81500D01*
X16150Y82950D02*
X16350D01*
X16250Y82850D02*
Y83050D01*
X16950Y82475D02*
X17150D01*
X17050Y82375D02*
Y82575D01*
X17750Y81975D02*
X17950D01*
X17850Y81875D02*
Y82075D01*
X18550Y81500D02*
X18750D01*
X18650Y81400D02*
Y81600D01*
X30700Y83100D02*
X30900D01*
X30800Y83000D02*
Y83200D01*
X30025Y83075D02*
X30225D01*
X30125Y82975D02*
Y83175D01*
X29350Y83075D02*
X29550D01*
X29450Y82975D02*
Y83175D01*
X28650Y83075D02*
X28850D01*
X28750Y82975D02*
Y83175D01*
X27950Y83100D02*
X28150D01*
X28050Y83000D02*
Y83200D01*
X925Y82900D02*
X1125D01*
X1025Y82800D02*
Y83000D01*
X36625Y75975D02*
X36825D01*
X36725Y75875D02*
Y76075D01*
X85825Y42475D02*
X86025D01*
X85925Y42375D02*
Y42575D01*
X70450Y36500D02*
X70650D01*
X70550Y36400D02*
Y36600D01*
X74900Y32000D02*
X75100D01*
X75000Y31900D02*
Y32100D01*
X65400Y23500D02*
X65600D01*
X65500Y23400D02*
Y23600D01*
X65400Y24500D02*
X65600D01*
X65500Y24400D02*
Y24600D01*
X67400Y24500D02*
X67600D01*
X67500Y24400D02*
Y24600D01*
X68400Y25500D02*
X68600D01*
X68500Y25400D02*
Y25600D01*
X66400Y24500D02*
X66600D01*
X66500Y24400D02*
Y24600D01*
X66400Y25500D02*
X66600D01*
X66500Y25400D02*
Y25600D01*
X67400Y22500D02*
X67600D01*
X67500Y22400D02*
Y22600D01*
X67400Y23500D02*
X67600D01*
X67500Y23400D02*
Y23600D01*
X68400Y23500D02*
X68600D01*
X68500Y23400D02*
Y23600D01*
X68378Y24501D02*
X68578D01*
X68478Y24401D02*
Y24601D01*
M02*
