G04 Layer_Physical_Order=2*
G04 Layer_Color=32768*
%FSLAX43Y43*%
%MOMM*%
G71*
G01*
G75*
%ADD10C,0.100*%
%ADD47C,0.300*%
%ADD52C,0.400*%
%ADD53C,1.000*%
%ADD54C,1.200*%
%ADD55C,1.900*%
%ADD56C,1.216*%
%ADD57C,3.375*%
D10*
X95000Y-10000D02*
Y120000D01*
X-10000D02*
X95000D01*
X-10000Y-10000D02*
Y120000D01*
Y-10000D02*
X95000D01*
D47*
X15450Y9600D02*
Y14900D01*
Y9600D02*
X15500Y9650D01*
X38425D01*
X48275Y19500D01*
X68250D01*
X69175Y20425D01*
Y25300D01*
X67700Y26775D02*
X69175Y25300D01*
X50500Y26775D02*
X67700D01*
X38625Y14900D02*
X50500Y26775D01*
X15450Y14900D02*
X38625D01*
X73500Y39500D02*
X73500Y39500D01*
D52*
X44400Y84225D02*
D03*
X6450Y102325D02*
D03*
X5250D02*
D03*
X4450D02*
D03*
X3650D02*
D03*
X2850Y102350D02*
D03*
X2050Y102375D02*
D03*
X1250Y102350D02*
D03*
X69325Y83450D02*
D03*
X65575Y84625D02*
D03*
Y75325D02*
D03*
X50300Y113950D02*
D03*
X65550Y114450D02*
D03*
X65200Y106200D02*
D03*
X48950Y78475D02*
D03*
X-7575Y37775D02*
D03*
X64500Y4100D02*
D03*
X64000D02*
D03*
X2525Y36725D02*
D03*
X2575Y38300D02*
D03*
X8025Y37150D02*
D03*
X39875Y33575D02*
D03*
X78125Y13800D02*
D03*
X61200Y108175D02*
D03*
X63600Y111325D02*
D03*
X71000Y37000D02*
D03*
X72000Y37000D02*
D03*
Y38000D02*
D03*
Y39000D02*
D03*
X71000Y38000D02*
D03*
X70000D02*
D03*
X33700Y110975D02*
D03*
X32875Y111450D02*
D03*
X32125Y111875D02*
D03*
X31275Y112450D02*
D03*
X17875Y111250D02*
D03*
X19475Y110225D02*
D03*
X17075Y111725D02*
D03*
X16250Y112350D02*
D03*
X4450Y110300D02*
D03*
X3650Y110688D02*
D03*
X2890Y111085D02*
D03*
X2050Y111800D02*
D03*
X1251Y112499D02*
D03*
X61000Y35000D02*
D03*
X58000Y34000D02*
D03*
X59000D02*
D03*
X61000Y33000D02*
D03*
X60000D02*
D03*
X59000D02*
D03*
X61000Y36000D02*
D03*
X62000Y35000D02*
D03*
X62000Y34000D02*
D03*
X60000Y34000D02*
D03*
X62000Y33000D02*
D03*
X55500Y34500D02*
D03*
X58000Y35000D02*
D03*
X4300Y80975D02*
D03*
X60000Y36000D02*
D03*
X59000Y36000D02*
D03*
X58000Y36000D02*
D03*
X60000Y35000D02*
D03*
X19450Y80900D02*
D03*
X61000Y37000D02*
D03*
X60000Y38000D02*
D03*
X58000Y37000D02*
D03*
X59000D02*
D03*
Y38000D02*
D03*
X51525Y105550D02*
D03*
X50300Y106075D02*
D03*
X49525Y106125D02*
D03*
X48725Y106100D02*
D03*
X51425Y74425D02*
D03*
X49750Y77825D02*
D03*
X48150Y78625D02*
D03*
X47375Y80275D02*
D03*
X51737Y78562D02*
D03*
X50937D02*
D03*
X51337Y80338D02*
D03*
X46525Y80650D02*
D03*
X50537Y80338D02*
D03*
X47925Y106125D02*
D03*
X47125Y107800D02*
D03*
X46325Y108250D02*
D03*
X49500Y108600D02*
D03*
X48725Y108725D02*
D03*
X47950Y110425D02*
D03*
X47125Y110925D02*
D03*
X46300Y111425D02*
D03*
X67000Y38000D02*
D03*
X68000Y35000D02*
D03*
X66000Y38000D02*
D03*
X65000Y39000D02*
D03*
X66000Y36000D02*
D03*
X65000Y38000D02*
D03*
X64000Y39000D02*
D03*
X52604Y75304D02*
D03*
X67000Y34000D02*
D03*
X67000Y35000D02*
D03*
X67000Y37000D02*
D03*
X66000D02*
D03*
Y33000D02*
D03*
X66000Y35000D02*
D03*
X65000Y33000D02*
D03*
Y34000D02*
D03*
Y36000D02*
D03*
X65000Y35000D02*
D03*
X64000Y34000D02*
D03*
X25325Y20400D02*
D03*
X6800Y36725D02*
D03*
X39775Y-1775D02*
D03*
X27975Y17900D02*
D03*
X29000Y17900D02*
D03*
X1125Y13876D02*
D03*
X-7725Y54775D02*
D03*
X67528Y41502D02*
D03*
X67000Y39000D02*
D03*
X61575Y80600D02*
D03*
X62375Y80200D02*
D03*
X61750Y77725D02*
D03*
X63175Y78375D02*
D03*
X63975Y78350D02*
D03*
X64775Y78650D02*
D03*
X68000Y37000D02*
D03*
Y34000D02*
D03*
X69000Y34000D02*
D03*
X69000Y36000D02*
D03*
X69000Y39000D02*
D03*
Y38000D02*
D03*
X61000Y31000D02*
D03*
X67000Y33000D02*
D03*
Y32000D02*
D03*
X64000Y36000D02*
D03*
Y38000D02*
D03*
X68000Y36000D02*
D03*
X72000Y42000D02*
D03*
X32025Y32475D02*
D03*
X65000Y32000D02*
D03*
X43800Y40450D02*
D03*
X70000Y39000D02*
D03*
X69000Y42000D02*
D03*
X68000Y42000D02*
D03*
X69000Y41000D02*
D03*
X68000D02*
D03*
X73500Y40500D02*
D03*
X71000Y42000D02*
D03*
X70000Y43000D02*
D03*
X75575Y42575D02*
D03*
X80775Y84150D02*
D03*
X82000Y78600D02*
D03*
X80629Y80429D02*
D03*
X73500Y25500D02*
D03*
X75500Y41500D02*
D03*
X74000Y41000D02*
D03*
X77452Y40227D02*
D03*
X77875Y39775D02*
D03*
X76675Y43400D02*
D03*
X75500Y76950D02*
D03*
X75475Y77600D02*
D03*
Y78200D02*
D03*
Y78800D02*
D03*
X6275Y80338D02*
D03*
X5475D02*
D03*
X5075Y78562D02*
D03*
X5875D02*
D03*
X21450Y80338D02*
D03*
X20650D02*
D03*
X20250Y78562D02*
D03*
X21050D02*
D03*
X36311D02*
D03*
X35511D02*
D03*
X35911Y80338D02*
D03*
X36711D02*
D03*
X74500Y38525D02*
D03*
X79875Y71425D02*
D03*
X75525Y29475D02*
D03*
X79875Y72525D02*
D03*
X76500Y26450D02*
D03*
X79850Y73425D02*
D03*
X77479Y30201D02*
D03*
X79804Y78404D02*
D03*
X79850Y74775D02*
D03*
X77700Y29525D02*
D03*
X79875Y75775D02*
D03*
X78275Y26000D02*
D03*
X80850Y75800D02*
D03*
X78800Y24975D02*
D03*
X82075Y75800D02*
D03*
X80750Y114075D02*
D03*
X80675Y110275D02*
D03*
X80263Y108625D02*
D03*
X81063D02*
D03*
X75775Y44675D02*
D03*
X75904Y105630D02*
D03*
X76700Y44125D02*
D03*
Y105625D02*
D03*
X77450Y41900D02*
D03*
Y105625D02*
D03*
X74000Y27000D02*
D03*
X78050Y27225D02*
D03*
X78229Y105655D02*
D03*
X79050Y37450D02*
D03*
Y105675D02*
D03*
X80275Y105875D02*
D03*
X81469Y105881D02*
D03*
X76250Y45200D02*
D03*
X76275Y108400D02*
D03*
X77100Y40600D02*
D03*
X77069Y108406D02*
D03*
X77875Y108400D02*
D03*
X78075Y28475D02*
D03*
X73525D02*
D03*
X78675Y108425D02*
D03*
X79450Y39000D02*
D03*
X79475Y108425D02*
D03*
X81475Y110275D02*
D03*
X80450Y22975D02*
D03*
X80250Y30850D02*
D03*
X82200Y40075D02*
D03*
X88075Y36800D02*
D03*
X57525Y6650D02*
D03*
Y2925D02*
D03*
X65250Y14275D02*
D03*
X65750D02*
D03*
X69500Y24500D02*
D03*
X67150Y13475D02*
D03*
X63000Y26000D02*
D03*
X67650Y13475D02*
D03*
X64000Y26000D02*
D03*
X61500Y22500D02*
D03*
X60500D02*
D03*
X67250Y5025D02*
D03*
X67750D02*
D03*
X61500Y23500D02*
D03*
X62000Y24000D02*
D03*
X64275Y17025D02*
D03*
X63775D02*
D03*
X62075Y5025D02*
D03*
X61575D02*
D03*
X65850Y5500D02*
D03*
X65500Y22500D02*
D03*
X65350Y5500D02*
D03*
X64500Y22500D02*
D03*
X69532Y3050D02*
D03*
X69032D02*
D03*
X62750Y12000D02*
D03*
X62250D02*
D03*
X59000Y23000D02*
D03*
X60000D02*
D03*
X61025Y10800D02*
D03*
X60525D02*
D03*
X60250Y5775D02*
D03*
X60750D02*
D03*
X66750Y4250D02*
D03*
X66250D02*
D03*
X61750Y12300D02*
D03*
X61250D02*
D03*
X62500Y27500D02*
D03*
X63500Y28500D02*
D03*
X64500Y27500D02*
D03*
X62500Y30500D02*
D03*
X65500Y31500D02*
D03*
X67500Y30500D02*
D03*
X68500Y27500D02*
D03*
X66500Y27500D02*
D03*
X69500Y28500D02*
D03*
X70500Y29500D02*
D03*
X61500Y32500D02*
D03*
X63500D02*
D03*
Y29500D02*
D03*
X66500Y32500D02*
D03*
X55500Y30500D02*
D03*
X56500Y28500D02*
D03*
Y27500D02*
D03*
Y24500D02*
D03*
X57500Y25500D02*
D03*
X59500Y27500D02*
D03*
Y28500D02*
D03*
X57500Y29500D02*
D03*
X70500Y21500D02*
D03*
X73500Y22500D02*
D03*
X77000Y24000D02*
D03*
X72500Y25500D02*
D03*
X75500Y27500D02*
D03*
X74500Y30500D02*
D03*
X77000Y34000D02*
D03*
X73500Y33500D02*
D03*
X70500Y32500D02*
D03*
X69500Y35500D02*
D03*
X72500Y36500D02*
D03*
X75500Y37500D02*
D03*
X74500Y40500D02*
D03*
X71500Y39500D02*
D03*
X68500Y38500D02*
D03*
X66500Y34500D02*
D03*
X62500Y33500D02*
D03*
X59500Y32500D02*
D03*
X58500Y35500D02*
D03*
X54000Y37000D02*
D03*
X61500Y36500D02*
D03*
X65500Y37500D02*
D03*
X57500Y38500D02*
D03*
X60500Y39500D02*
D03*
X63500Y40500D02*
D03*
X56500Y41500D02*
D03*
X60000Y43000D02*
D03*
X63500Y31500D02*
D03*
Y26500D02*
D03*
X65500D02*
D03*
X67500D02*
D03*
X69500D02*
D03*
X70500Y27500D02*
D03*
X68500Y29500D02*
D03*
X54000Y25000D02*
D03*
Y23000D02*
D03*
Y22000D02*
D03*
X55500Y22500D02*
D03*
X56500D02*
D03*
X57500D02*
D03*
Y23500D02*
D03*
X58500D02*
D03*
X56500Y25500D02*
D03*
X58500Y26500D02*
D03*
X59500Y24500D02*
D03*
X60500D02*
D03*
Y25500D02*
D03*
X61500Y24500D02*
D03*
X61500Y26500D02*
D03*
X62500D02*
D03*
X64500D02*
D03*
Y24500D02*
D03*
X62000Y20000D02*
D03*
X65500Y21500D02*
D03*
X68500Y22500D02*
D03*
X66500Y26500D02*
D03*
X71500Y31500D02*
D03*
X69500Y32500D02*
D03*
Y37500D02*
D03*
X68500Y32500D02*
D03*
X39838Y27187D02*
D03*
X37575Y27175D02*
D03*
X42600Y27200D02*
D03*
X51200Y24800D02*
D03*
X-6425Y58575D02*
D03*
X-4675Y58575D02*
D03*
X-3400Y47125D02*
D03*
X4975Y27700D02*
D03*
X7375Y27725D02*
D03*
X5025Y26500D02*
D03*
X6125Y25375D02*
D03*
X1775Y11450D02*
D03*
X1750Y10700D02*
D03*
Y10000D02*
D03*
X7350Y10700D02*
D03*
X8125Y11550D02*
D03*
X2350Y12425D02*
D03*
X2850Y13675D02*
D03*
X3350Y14000D02*
D03*
X3850Y13675D02*
D03*
X4350Y12425D02*
D03*
X4850Y13675D02*
D03*
X5350Y12375D02*
D03*
X5850Y13650D02*
D03*
X6350Y12375D02*
D03*
X9175Y15400D02*
D03*
X13050Y23350D02*
D03*
X11250D02*
D03*
X7350Y24375D02*
D03*
X6850D02*
D03*
X6350D02*
D03*
X3350Y23000D02*
D03*
X3850D02*
D03*
X4350D02*
D03*
X5850D02*
D03*
X5350D02*
D03*
X4850D02*
D03*
X7530Y32030D02*
D03*
X8980Y32030D02*
D03*
X9600Y27200D02*
D03*
X9575Y29825D02*
D03*
X13975Y15425D02*
D03*
Y17250D02*
D03*
X9175Y14900D02*
D03*
X16750Y38850D02*
D03*
X15100Y39350D02*
D03*
Y40350D02*
D03*
Y41350D02*
D03*
Y42350D02*
D03*
X6025Y44575D02*
D03*
X5950Y42850D02*
D03*
Y41850D02*
D03*
Y40850D02*
D03*
Y39850D02*
D03*
X5125Y44175D02*
D03*
X20675Y37825D02*
D03*
X19675D02*
D03*
X17200Y39225D02*
D03*
X26125Y16425D02*
D03*
X29775Y16425D02*
D03*
X28750Y14850D02*
D03*
X27100Y14850D02*
D03*
X26250Y22950D02*
D03*
X27975D02*
D03*
X29500D02*
D03*
X27100Y13250D02*
D03*
X27550Y6600D02*
D03*
X29625Y3025D02*
D03*
X24350Y3000D02*
D03*
X26000Y3725D02*
D03*
X19275Y3025D02*
D03*
X22325Y6675D02*
D03*
X17625Y3025D02*
D03*
X34975Y-4475D02*
D03*
X36875Y-6400D02*
D03*
X37800Y-5400D02*
D03*
X38950Y-4708D02*
D03*
Y-4058D02*
D03*
X42800Y-2758D02*
D03*
X44800Y-6475D02*
D03*
X44150Y-2150D02*
D03*
X45925Y-1950D02*
D03*
X44650Y-875D02*
D03*
X42028Y14296D02*
D03*
Y11096D02*
D03*
X45675Y11100D02*
D03*
X50378Y11096D02*
D03*
X93500Y1550D02*
D03*
X88050Y-475D02*
D03*
X88454Y1645D02*
D03*
X89174Y11246D02*
D03*
X87425Y11025D02*
D03*
Y9075D02*
D03*
X77425Y12296D02*
D03*
X79325Y12300D02*
D03*
X79300Y9725D02*
D03*
X91500Y15850D02*
D03*
X86650Y15850D02*
D03*
X83375Y31825D02*
D03*
X49825Y26500D02*
D03*
X28275Y37100D02*
D03*
X28175Y41450D02*
D03*
X40025Y34900D02*
D03*
X79800Y42875D02*
D03*
X80925Y44050D02*
D03*
X88675Y40450D02*
D03*
X88650Y39125D02*
D03*
X88650Y43742D02*
D03*
Y46875D02*
D03*
X82550Y46750D02*
D03*
X75000Y58950D02*
D03*
X87825Y84400D02*
D03*
X85250Y84400D02*
D03*
X82175Y85475D02*
D03*
X67070D02*
D03*
X58416Y84223D02*
D03*
X56016Y84223D02*
D03*
X51965Y85475D02*
D03*
X36860D02*
D03*
X21755D02*
D03*
X6650D02*
D03*
X9185Y84623D02*
D03*
X11585Y84623D02*
D03*
X82341Y114800D02*
D03*
X85525Y113300D02*
D03*
X89185Y113373D02*
D03*
X42742Y-3408D02*
D03*
X42200Y-1725D02*
D03*
X7525Y36775D02*
D03*
X8425Y13950D02*
D03*
X8900Y10525D02*
D03*
X60500Y27500D02*
D03*
X52300Y27400D02*
D03*
X48400Y31600D02*
D03*
X46100Y30600D02*
D03*
X43800Y30000D02*
D03*
X64500Y23500D02*
D03*
X70500Y28500D02*
D03*
X55550Y12775D02*
D03*
X56050D02*
D03*
X58975Y12375D02*
D03*
X59475D02*
D03*
X57600Y11675D02*
D03*
X58250Y6075D02*
D03*
X58750D02*
D03*
X71000Y31000D02*
D03*
Y30000D02*
D03*
Y29000D02*
D03*
X49875Y12725D02*
D03*
X48461Y12714D02*
D03*
X44625Y12700D02*
D03*
X74000Y38000D02*
D03*
X84275Y9725D02*
D03*
X57000Y38000D02*
D03*
X81775Y10375D02*
D03*
X60000Y30000D02*
D03*
Y26000D02*
D03*
X82250Y8400D02*
D03*
X76775Y11500D02*
D03*
X36787Y104425D02*
D03*
X63000Y34000D02*
D03*
X64000Y33000D02*
D03*
X62000Y39000D02*
D03*
X63000Y36000D02*
D03*
Y37000D02*
D03*
Y39000D02*
D03*
X64000Y37000D02*
D03*
X34500Y110475D02*
D03*
X57500Y39500D02*
D03*
X59000Y39000D02*
D03*
X60000D02*
D03*
X61000Y38000D02*
D03*
X63000Y35000D02*
D03*
X62000Y37000D02*
D03*
X34727Y81204D02*
D03*
X18701Y110830D02*
D03*
X39075Y83275D02*
D03*
X32300Y83225D02*
D03*
X31500Y84125D02*
D03*
X33125Y82400D02*
D03*
X33900Y81725D02*
D03*
X61075Y112800D02*
D03*
X61950Y112275D02*
D03*
X62700Y111850D02*
D03*
X64400Y110750D02*
D03*
X1875Y82375D02*
D03*
X2650Y81850D02*
D03*
X3550Y81400D02*
D03*
X16250Y82950D02*
D03*
X17050Y82475D02*
D03*
X17850Y81975D02*
D03*
X18650Y81500D02*
D03*
X30800Y83100D02*
D03*
X30125Y83075D02*
D03*
X29450D02*
D03*
X28750D02*
D03*
X28050Y83100D02*
D03*
X1025Y82900D02*
D03*
X35375Y39950D02*
D03*
X36575Y33525D02*
D03*
X5075Y75075D02*
D03*
X5025Y84975D02*
D03*
X44850Y32125D02*
D03*
X49100Y31875D02*
D03*
X39850Y28925D02*
D03*
X37550Y28950D02*
D03*
X57100Y11675D02*
D03*
X73300Y83350D02*
D03*
X65963Y80287D02*
D03*
X66350Y80725D02*
D03*
X66763Y80262D02*
D03*
X65050Y80900D02*
D03*
X80625Y81250D02*
D03*
X80675Y78575D02*
D03*
X80175Y37825D02*
D03*
X80550Y39050D02*
D03*
X84800Y47700D02*
D03*
X36050Y104425D02*
D03*
X76075Y43200D02*
D03*
X23625Y87000D02*
D03*
X28400Y87050D02*
D03*
X34652Y35398D02*
D03*
X36725Y75975D02*
D03*
X44700Y39125D02*
D03*
X40725Y43400D02*
D03*
X5650Y108500D02*
D03*
X6450D02*
D03*
X6050Y108100D02*
D03*
X5225D02*
D03*
X20251D02*
D03*
X21076D02*
D03*
X21476Y108500D02*
D03*
X20676D02*
D03*
X35276Y108100D02*
D03*
X36101D02*
D03*
X36501Y108500D02*
D03*
X35701D02*
D03*
X50775Y110200D02*
D03*
X50725Y108625D02*
D03*
X51700Y110200D02*
D03*
X51525Y108625D02*
D03*
X63925Y108825D02*
D03*
X64528Y108530D02*
D03*
X66000Y108600D02*
D03*
X65975Y107800D02*
D03*
X5250Y105975D02*
D03*
X5050Y114475D02*
D03*
X20273Y106000D02*
D03*
X20100Y114500D02*
D03*
X35350Y114375D02*
D03*
X85925Y42475D02*
D03*
X20250Y75975D02*
D03*
X20250Y84800D02*
D03*
X50000Y85075D02*
D03*
X35875Y76075D02*
D03*
X35375Y85100D02*
D03*
X70550Y36500D02*
D03*
X83504Y41027D02*
D03*
X81150Y35375D02*
D03*
X65500Y23500D02*
D03*
X68032Y3375D02*
D03*
X65500Y24500D02*
D03*
X68553Y3375D02*
D03*
X67500Y24500D02*
D03*
X71575Y4900D02*
D03*
X68500Y25500D02*
D03*
X72075Y4900D02*
D03*
X66500Y24500D02*
D03*
Y25500D02*
D03*
X67632Y17225D02*
D03*
X68132D02*
D03*
X67500Y22500D02*
D03*
X68032Y10525D02*
D03*
X67500Y23500D02*
D03*
X68532Y10525D02*
D03*
X63050Y4800D02*
D03*
X63550D02*
D03*
X69950Y15375D02*
D03*
X68500Y23500D02*
D03*
X70450Y15375D02*
D03*
X68478Y24501D02*
D03*
X55600Y112900D02*
D03*
X53875Y112875D02*
D03*
X51950Y114550D02*
D03*
X6400Y114525D02*
D03*
X7225Y113975D02*
D03*
X11000D02*
D03*
X21575Y114500D02*
D03*
X24975Y112825D02*
D03*
X23175Y112975D02*
D03*
X36750Y114400D02*
D03*
X40375Y112925D02*
D03*
X38525D02*
D03*
X67150Y116675D02*
D03*
X69725Y113150D02*
D03*
X72975Y113175D02*
D03*
X2850Y41625D02*
D03*
X2150Y41675D02*
D03*
X3500Y41650D02*
D03*
X14875Y41825D02*
D03*
Y40850D02*
D03*
X14900Y39825D02*
D03*
X17975Y39125D02*
D03*
X17150Y38350D02*
D03*
X20200Y37375D02*
D03*
X6275Y42325D02*
D03*
Y41350D02*
D03*
X6250Y40350D02*
D03*
Y39350D02*
D03*
X34600Y14375D02*
D03*
X36600Y10375D02*
D03*
X35600Y12375D02*
D03*
X36600Y14375D02*
D03*
X38600Y10375D02*
D03*
X37600Y12375D02*
D03*
X38600Y14375D02*
D03*
X39600Y12375D02*
D03*
X40600Y14375D02*
D03*
X41600Y16375D02*
D03*
X42600Y18375D02*
D03*
X43600Y16375D02*
D03*
X44600Y18375D02*
D03*
X46600D02*
D03*
X45600Y20375D02*
D03*
X46600Y22375D02*
D03*
X47600Y20375D02*
D03*
X48600Y22375D02*
D03*
X49600Y20375D02*
D03*
Y24375D02*
D03*
X50600Y26375D02*
D03*
X51600Y20375D02*
D03*
X18400Y10250D02*
D03*
X22200Y10225D02*
D03*
X20925Y10200D02*
D03*
X18395Y14905D02*
D03*
X16750Y10250D02*
D03*
D53*
X-10000Y-10000D02*
Y120000D01*
X95000D01*
Y-10000D02*
Y120000D01*
X-10000Y-10000D02*
X95000D01*
D54*
X88975Y22000D02*
D03*
Y32000D02*
D03*
D55*
X-5425Y26956D02*
D03*
D56*
X55544Y2666D02*
D03*
X74020D02*
D03*
X12340D02*
D03*
X30816D02*
D03*
X55544Y47886D02*
D03*
X74020D02*
D03*
X12340D02*
D03*
X30816D02*
D03*
D57*
X83185Y3175D02*
D03*
Y51435D02*
D03*
X3175D02*
D03*
Y3175D02*
D03*
M02*
